SplineFontDB: 3.0
FontName: Tuffy-Bold-Italic
FullName: Tuffy Bold Italic
FamilyName: Tuffy
Weight: Bold
Copyright: Created by Thatcher Ulrich (http://tulrich.com), Karoly Barta and Michael Everson with FontForge  (http://fontforge.sf.net)\n\nThis font, including hint instructions, has been donated to the Public Domain.  Do whatever you want with it.\n
FontLog: "2010-08-20: Merged accented and extended characters from Karoly Barta and Michael Everson.+AAoA-2004-9-1: Created.+AAoA" 
Version: 001.270
DefaultBaseFilename: Tuffy_Bold
ItalicAngle: -12
UnderlinePosition: -204
UnderlineWidth: 102
Ascent: 1597
Descent: 451
LayerCount: 2
Layer: 0 0 "Back"  1
Layer: 1 0 "Fore"  0
XUID: [1021 745 1046372284 8541740]
FSType: 0
OS2Version: 0
OS2_WeightWidthSlopeOnly: 0
OS2_UseTypoMetrics: 0
CreationTime: 1166531129
ModificationTime: 1313907501
PfmFamily: 33
TTFWeight: 700
TTFWidth: 5
LineGap: 190
VLineGap: 0
Panose: 2 11 8 3 6 1 0 0 0 0
OS2TypoAscent: 0
OS2TypoAOffset: 1
OS2TypoDescent: 0
OS2TypoDOffset: 1
OS2TypoLinegap: 0
OS2WinAscent: 0
OS2WinAOffset: 1
OS2WinDescent: 0
OS2WinDOffset: 1
HheadAscent: 0
HheadAOffset: 1
HheadDescent: 0
HheadDOffset: 1
OS2Vendor: 'PfEd'
Lookup: 258 0 0 "'kern' Horizontal Kerning in Latin lookup 0"  {"'kern' Horizontal Kerning in Latin lookup 0 subtable"  } ['kern' ('latn' <'dflt' > ) ]
MarkAttachClasses: 1
DEI: 91125
ShortTable: cvt  2
  33
  633
EndShort
LangName: 1033 "" "" "" "" "" "" "" "" "" "Thatcher Ulrich, Karoly Barta, Michael Everson" "" "http://tulrich.com+AAoA" "http://tulrich.com+AAoA" "Public Domain+AAoA" 
Encoding: UnicodeBmp
Compacted: 1
UnicodeInterp: none
NameList: Adobe Glyph List
DisplaySize: -48
AntiAlias: 1
FitToEm: 1
WinInfo: 0 15 11
BeginPrivate: 0
EndPrivate
Grid
1362 0 m 25,0,0
1362 1074 m 25,0,0
1362 0 m 25,0,0
1362 1074 m 25,0,0
1362 0 m 25,0,0
1362 1074 m 25,0,0
1362 0 m 25,0,0
-24 537 m 2,0,-1
 772 537 l 0
1090 1610 m 25,2,-1
 1090 -16 l 25
-20 1455 m 2,4,-1
 1696 1455 l 0
-22 1074 m 2,6,-1
 1694 1074 l 0

StartChar: exclam
Encoding: 33 33 1
Width: 457
Flags: HW
HStem: -33 328<116 351.3> 1463 20G<205.5 257.5>
VStem: 69 328<14 249.3> 92 280<1241.69 1454.7> 133 199<395.8 590.153>
LayerCount: 2
Fore
SplineSet
425.524414062 440 m 1xc8
 418.297851562 406 342.984375 381 313.984375 381 c 1
 281.984375 381 219.297851562 406 226.524414062 440 c 1xc8
 387.241210938 1389 l 1
 398.506835938 1442 495.221679688 1483 546.221679688 1483 c 1
 599.221679688 1483 678.081054688 1440 667.666015625 1391 c 1xd0
 425.524414062 440 l 1xc8
EndSplineSet
Refer: 14 46 S 1 0 0.212557 1 5 0 2
EndChar

StartChar: quotedbl
Encoding: 34 34 2
Width: 874
Flags: HW
VStem: 129 231<1355.7 1491.63> 504 231<1352.89 1491.63>
LayerCount: 2
Back
SplineSet
442.368 1091.58 m 1
 421.886 1466.37 l 1
 421.89 1515.74 458.062 1542.25 493.697 1542.25 c 0
 495.021 1542.25 496.343 1542.22 497.664 1542.14 c 0
 529.511 1542.14 561.359 1523.8 569.437 1485.79 c 0
 570.71 1479.81 571.39 1473.33 571.39 1466.37 c 1
 550.912 1091.58 l 1
 548.864 1060.86 520.192 1044.48 495.616 1044.48 c 0
 473.258 1044.48 449.204 1056.35 443.505 1083.16 c 0
 442.938 1085.82 442.553 1088.63 442.368 1091.58 c 1
149.504 1091.58 m 1
 129.021 1466.37 l 1
 129.026 1515.74 165.198 1542.25 200.834 1542.25 c 0
 202.156 1542.25 203.48 1542.22 204.8 1542.14 c 0
 236.646 1542.14 268.495 1523.8 276.572 1485.79 c 0
 277.846 1479.81 278.526 1473.33 278.526 1466.37 c 1
 258.048 1091.58 l 1
 256 1060.86 227.328 1044.48 202.752 1044.48 c 0
 180.394 1044.48 156.34 1056.35 150.64 1083.16 c 0
 150.074 1085.82 149.688 1088.63 149.504 1091.58 c 1
EndSplineSet
Fore
SplineSet
756.111328125 1092 m 1
 815.608398438 1466 l 1
 826.235351562 1516 908.762695312 1542 944.762695312 1542 c 0
 945.762695312 1542 946.762695312 1542 948.762695312 1542 c 0
 979.762695312 1542 1048.93652344 1524 1048.859375 1486 c 0
 1049.58398438 1480 1048.09570312 1473 1046.60839844 1466 c 1
 947.111328125 1092 l 1
 938.522460938 1061 864.909179688 1044 839.909179688 1044 c 0
 817.909179688 1044 755.459960938 1056 755.19921875 1083 c 0
 755.836914062 1086 755.473632812 1089 756.111328125 1092 c 1
EndSplineSet
Refer: 7 39 S 1 0 0.212557 1 0 0 2
EndChar

StartChar: numbersign
Encoding: 35 35 3
Width: 1565
Flags: HMW
LayerCount: 2
Back
SplineSet
958.464 546.816 m 0
 958.464 884.736 l 0
 616.448 884.736 l 0
 616.448 546.816 l 0
 958.464 546.816 l 0
1107.97 405.504 m 0
 1107.97 53.248 l 1
 958.464 53.248 l 1
 958.464 405.504 l 0
 616.448 405.504 l 0
 616.448 53.248 l 1
 466.944 53.248 l 1
 466.944 405.504 l 0
 118.784 405.504 l 1
 118.784 546.816 l 1
 466.944 546.816 l 0
 466.944 884.736 l 0
 118.784 884.736 l 1
 118.784 1024 l 1
 466.944 1024 l 0
 466.944 1402.88 l 1
 616.448 1402.88 l 1
 616.448 1024 l 0
 958.464 1024 l 0
 958.464 1402.88 l 1
 1107.97 1402.88 l 1
 1107.97 1024 l 0
 1468.42 1024 l 1
 1468.42 884.736 l 1
 1107.97 884.736 l 0
 1107.97 546.816 l 0
 1468.42 546.816 l 1
 1468.42 405.504 l 1
 1107.97 405.504 l 0
EndSplineSet
Fore
SplineSet
1002.68359375 596 m 0
 1053.69726562 836 l 0
 868.697265625 836 l 0
 817.68359375 596 l 0
 1002.68359375 596 l 0
1205.66992188 356 m 0
 1139.99023438 47 l 1
 885.990234375 47 l 1
 951.669921875 356 l 0
 766.669921875 356 l 0
 700.990234375 47 l 1
 446.990234375 47 l 1
 512.669921875 356 l 0
 194.669921875 356 l 1
 245.68359375 596 l 1
 563.68359375 596 l 0
 614.697265625 836 l 0
 296.697265625 836 l 1
 347.073242188 1073 l 1
 665.073242188 1073 l 0
 735.216796875 1403 l 1
 989.216796875 1403 l 1
 919.073242188 1073 l 0
 1104.07324219 1073 l 0
 1174.21679688 1403 l 1
 1428.21679688 1403 l 1
 1358.07324219 1073 l 0
 1669.07324219 1073 l 1
 1618.69726562 836 l 1
 1307.69726562 836 l 0
 1256.68359375 596 l 0
 1567.68359375 596 l 1
 1516.66992188 356 l 1
 1205.66992188 356 l 0
EndSplineSet
EndChar

StartChar: dollar
Encoding: 36 36 4
Width: 927
Flags: HW
VStem: 432 170<-155 -26 225 578 885 1159 1405 1537>
LayerCount: 2
Back
SplineSet
18.4316 343.497 m 1
 266.127 426.394 l 1
 333.824 282.624 372.736 212.992 530.432 212.992 c 1
 684.032 212.992 741.376 278.528 741.376 393.216 c 1
 741.376 507.371 649.912 578.865 464.896 626.688 c 0
 277.113 675.808 45.0557 769.688 45.0557 1028.1 c 1
 45.0557 1301.06 265.624 1409.64 513.186 1409.64 c 1
 742.695 1409.64 879.372 1331.23 968.09 1151.04 c 1
 705.098 1073.14 l 1
 662.622 1149.38 624.193 1169.41 509.952 1169.41 c 1
 400.085 1169.41 319.488 1156.44 319.488 1028.1 c 1
 319.488 897.611 480.215 863.31 583.537 831.054 c 0
 791.046 760.94 1015.81 671.55 1015.81 393.216 c 1
 1015.81 122.88 811.008 -28.6719 530.432 -28.6719 c 1
 253.952 -28.6719 114.688 102.4 18.4316 343.497 c 1
EndSplineSet
Fore
SplineSet
758.69921875 1537 m 1
 928.69921875 1537 l 1
 900.4296875 1404 l 1
 1065.66601562 1391 1165.23632812 1309 1216.50292969 1155 c 1
 935.073242188 1073 l 1
 909.763671875 1128 902.376953125 1145 848.353515625 1159 c 1
 776.93359375 823 l 1
 961.692382812 756 1156.71289062 662 1097.83398438 385 c 0
 1052.13476562 170 866 0 596.473632812 -26 c 1
 569.053710938 -155 l 1
 401.053710938 -155 l 1
 428.473632812 -26 l 1
 211.299804688 -8 111.53515625 186 93.119140625 344 c 1
 356.548828125 426 l 1
 376.969726562 348 402.588867188 238 481.825195312 225 c 1
 569.823242188 639 l 1
 366.813476562 686 212.833007812 799 266.396484375 1051 c 0
 309.758789062 1255 527.090820312 1393 730.641601562 1405 c 1
 758.69921875 1537 l 1
622.112304688 885 m 1
 682.053710938 1167 l 1
 589.927734375 1157 547.923828125 1077 540.909179688 1044 c 0
 521.353515625 952 552.489257812 915 622.112304688 885 c 1
724.857421875 578 m 1
 648.125 217 l 1
 756.013671875 240 806.6796875 309 823.259765625 387 c 0
 832.399414062 430 838.8046875 526 724.857421875 578 c 1
EndSplineSet
EndChar

StartChar: percent
Encoding: 37 37 5
Width: 1435
Flags: HW
HStem: 63 207<964.3 1091.7> 479 205<964.9 1091> 768 207<333.3 460.7> 1184 205<335.2 460>
VStem: 94 215<993.1 1150.4> 483 219<989.2 1150.4> 725 215<289.1 446.4> 1114 217<285.2 446.4>
LayerCount: 2
Back
SplineSet
880.64 372.736 m 0
 880.64 286.72 935.937 219.136 1021.95 219.136 c 0
 1101.82 219.136 1169.41 282.624 1169.41 372.736 c 0
 1169.41 452.608 1105.92 522.24 1021.95 522.24 c 0
 944.128 522.24 880.64 452.608 880.64 372.736 c 0
751.616 372.736 m 0
 751.616 522.24 872.448 643.072 1024 643.072 c 0
 1175.55 643.072 1298.43 522.24 1298.43 372.736 c 0
 1298.43 223.232 1175.55 104.448 1024 104.448 c 0
 872.448 104.448 751.616 223.232 751.616 372.736 c 0
221.184 1077.25 m 0
 221.184 991.232 278.528 923.648 364.544 923.648 c 0
 444.416 923.648 512 987.136 512 1077.25 c 0
 512 1157.12 448.512 1226.75 364.544 1226.75 c 0
 286.72 1226.75 221.184 1157.12 221.184 1077.25 c 0
94.208 1077.25 m 0
 94.208 1226.75 215.04 1347.58 366.592 1347.58 c 0
 518.144 1347.58 641.024 1226.75 641.024 1077.25 c 0
 641.024 927.744 518.144 808.96 366.592 808.96 c 0
 215.04 808.96 94.208 927.744 94.208 1077.25 c 0
413.696 137.216 m 1
 264.192 137.216 l 1
 985.088 1318.91 l 0
 1128.45 1318.91 l 1
 413.696 137.216 l 1
EndSplineSet
Fore
SplineSet
1018.85839844 371 m 0
 1005.46777344 308 1036.390625 270 1085.390625 270 c 0
 1134.390625 270 1178.83007812 305 1192.85839844 371 c 0
 1205.18652344 429 1177.81445312 479 1127.81445312 479 c 0
 1080.81445312 479 1031.18652344 429 1018.85839844 371 c 0
803.645507812 370 m 0
 840.630859375 544 1004.38867188 684 1173.38867188 684 c 0
 1340.38867188 684 1446.63085938 544 1409.85839844 371 c 0
 1373.51171875 200 1208.390625 63 1041.390625 63 c 0
 872.390625 63 767.298828125 199 803.645507812 370 c 0
537.498046875 1075 m 0
 524.107421875 1012 555.2421875 975 604.2421875 975 c 0
 653.2421875 975 697.469726562 1009 711.498046875 1075 c 0
 723.826171875 1133 696.666992188 1184 646.666992188 1184 c 0
 600.666992188 1184 549.826171875 1133 537.498046875 1075 c 0
322.7109375 1076 m 0
 359.483398438 1249 524.241210938 1389 692.241210938 1389 c 0
 861.241210938 1389 967.270507812 1248 930.498046875 1075 c 0
 894.151367188 904 729.243164062 768 560.243164062 768 c 0
 392.243164062 768 286.151367188 904 322.7109375 1076 c 0
510.293945312 119 m 1
 300.293945312 119 l 1
 1230.18847656 1337 l 0
 1431.18847656 1337 l 1
 510.293945312 119 l 1
EndSplineSet
EndChar

StartChar: ampersand
Encoding: 38 38 6
Width: 1284
Flags: HW
HStem: -53 241<372.9 756.4> 358 217<598 772 1026 1184> 707 239<425.7 727> 1278 242<434.4 652.8>
VStem: 59 261<257.7 632.1> 106 269<971.1 1259.7>
LayerCount: 2
Back
SplineSet
751.616 1228.8 m 17xf4
 729.088 1292.29 626.688 1351.68 540.672 1351.68 c 1
 432.128 1351.68 319.488 1282.05 319.488 1134.59 c 1xf4
 319.488 978.944 425.984 897.024 557.056 897.024 c 1
 727.04 897.024 l 1
 727.04 755.712 l 1
 561.152 755.712 l 2
 374.784 755.712 237.568 630.784 237.568 430.08 c 0
 237.568 247.808 385.024 110.592 550.912 110.592 c 1
 720.896 110.592 833.536 256 833.536 407.552 c 1xfa
 618.496 407.552 l 1
 618.496 546.816 l 1
 1140.74 546.816 l 1
 1140.74 405.504 l 1xf1
 983.04 405.504 l 1
 983.04 231.424 862.208 -30.7197 550.912 -30.7197 c 1
 315.392 -30.7197 79.8721 126.976 79.8721 415.744 c 0xfa
 79.8721 696.32 245.76 802.816 354.304 827.392 c 1
 266.24 856.064 161.792 958.464 161.792 1134.59 c 0
 161.792 1339.39 323.584 1492.99 542.72 1492.99 c 0
 714.752 1492.99 825.344 1409.02 876.544 1304.58 c 9
 751.616 1228.8 l 17xf4
EndSplineSet
Fore
SplineSet
959.053710938 1167 m 17xf4
 946.043945312 1214 898.647460938 1278 812.647460938 1278 c 1
 730.647460938 1278 635.806640625 1227 612.638671875 1118 c 1xf4
 588.619140625 1005 657.078125 946 758.078125 946 c 1
 928.078125 946 l 1
 877.27734375 707 l 1
 711.27734375 707 l 2
 568.27734375 707 444.345703125 585 410.974609375 428 c 0
 383.12890625 297 453.9609375 188 590.9609375 188 c 1
 748.9609375 188 829.815429688 272 848.095703125 358 c 1
 674.095703125 358 l 1
 720.219726562 575 l 1
 1306.21972656 575 l 1
 1260.52050781 360 l 1
 1102.52050781 360 l 1
 1067.87402344 197 873.734375 -53 539.734375 -53 c 1
 275.734375 -53 87.2705078125 133 142.109375 391 c 0xf8
 208.001953125 701 393.982421875 795 473.997070312 828 c 1
 410.948242188 856 308.353515625 952 343.638671875 1118 c 0
 395.926757812 1364 626.0859375 1520 866.0859375 1520 c 0
 1061.0859375 1520 1163.70507812 1410 1192.796875 1274 c 9
 959.053710938 1167 l 17xf4
EndSplineSet
EndChar

StartChar: quotesingle
Encoding: 39 39 7
Width: 464
Flags: HW
VStem: 129 231<1355.7 1491.63>
LayerCount: 2
Back
SplineSet
118.784 1050.62 m 1
 118.784 1548.29 l 1
 268.288 1548.29 l 1
 268.288 1050.62 l 1
 118.784 1050.62 l 1
EndSplineSet
Fore
SplineSet
382.111328125 1092 m 1
 440.608398438 1466 l 1
 451.235351562 1516 533.762695312 1542 569.762695312 1542 c 0
 570.762695312 1542 571.762695312 1542 573.762695312 1542 c 0
 605.762695312 1542 673.936523438 1524 673.859375 1486 c 0
 674.583984375 1480 673.095703125 1473 671.608398438 1466 c 1
 572.111328125 1092 l 1
 563.522460938 1061 489.909179688 1044 465.909179688 1044 c 0
 442.909179688 1044 380.459960938 1056 381.19921875 1083 c 0
 380.836914062 1086 381.473632812 1089 382.111328125 1092 c 1
EndSplineSet
EndChar

StartChar: parenleft
Encoding: 40 40 8
Width: 653
Flags: HW
VStem: 31 258<388.4 1077.4>
LayerCount: 2
Back
SplineSet
268.288 -83.9678 m 1
 104.448 167.936 30.7197 458.752 30.7197 739.328 c 0
 30.7197 997.376 110.592 1314.82 268.288 1562.62 c 1
 446.464 1562.62 l 1
 262.144 1294.34 182.272 997.376 182.272 729.088 c 0
 182.272 466.944 272.384 169.984 446.464 -83.9678 c 1
 268.288 -83.9678 l 1
EndSplineSet
Fore
SplineSet
271.145507812 -84 m 1
 120.622070312 177 126.4375 449 188.079101562 739 c 0
 244.83203125 1006 367.811523438 1307 621.225585938 1563 c 1
 885.225585938 1563 l 1
 644.047851562 1294 500.918945312 997 443.954101562 729 c 0
 388.263671875 467 415.134765625 170 535.145507812 -84 c 1
 271.145507812 -84 l 1
EndSplineSet
EndChar

StartChar: parenright
Encoding: 41 41 9
Width: 643
Flags: HW
VStem: 344 258<386.4 1046.8>
LayerCount: 2
Back
SplineSet
256 -96.2559 m 1
 79.8721 -96.2559 l 1
 251.904 155.648 344.064 464.896 344.064 727.04 c 0
 344.064 972.8 253.952 1294.34 79.8721 1550.34 c 1
 256 1550.34 l 1
 413.696 1302.53 495.616 985.088 495.616 727.04 c 0
 495.616 452.608 417.792 151.552 256 -96.2559 c 1
EndSplineSet
Fore
SplineSet
319.594726562 -96 m 1
 59.5947265625 -96 l 1
 285.159179688 156 442.838867188 465 498.528320312 727 c 0
 550.817382812 973 528.8359375 1293 409.25 1549 c 1
 670.25 1549 l 1
 814.8359375 1293 813.28125 994 756.528320312 727 c 0
 696.162109375 443 579.008789062 160 319.594726562 -96 c 1
EndSplineSet
EndChar

StartChar: asterisk
Encoding: 42 42 10
Width: 1172
Flags: HW
HStem: 604 231<137.367 272.424 897.581 1032.63>
LayerCount: 2
Back
SplineSet
620.813 645.394 m 5
 826 332 l 5
 851 288.699 797.315 227.682 766.139 209.682 c 4
 765.272 209.182 764.406 208.682 762.675 207.682 c 4
 734.962 191.682 663.608 171.271 637.68 200.18 c 4
 632.947 204.376 629.447 210.438 625.947 216.5 c 5
 456.269 550.394 l 5
 442.5 578.24 494.622 627.963 515.406 639.963 c 4
 535.325 651.463 597.617 673.57 615.447 652.688 c 4
 617.813 650.59 619.313 647.991 620.813 645.394 c 5
572.675 551.712 m 5
 403.861 217.318 l 5
 378.861 174.017 299.177 190 268 208 c 4
 267.134 208.5 266.268 209 264.536 210 c 4
 236.823 226 183.47 277.589 195.541 314.498 c 4
 196.809 320.693 200.309 326.756 203.809 332.818 c 5
 408.13 646.712 l 5
 425.361 672.559 494.483 652.281 515.268 640.281 c 4
 535.187 628.781 585.479 585.889 576.309 560.006 c 4
 575.675 556.908 574.175 554.31 572.675 551.712 c 5
411.455 635 m 5
 206.269 948.394 l 5
 181.269 991.695 234.953 1052.71 266.13 1070.71 c 4
 266.996 1071.21 267.862 1071.71 269.594 1072.71 c 4
 297.307 1088.71 368.66 1109.12 394.589 1080.21 c 4
 399.321 1076.02 402.821 1069.96 406.321 1063.89 c 5
 576 730 l 5
 589.769 702.153 537.646 652.431 516.862 640.431 c 4
 496.943 628.931 434.651 606.823 416.821 627.706 c 4
 414.455 629.804 412.955 632.402 411.455 635 c 5
459.455 729 m 5
 628.269 1063.39 l 5
 653.269 1106.7 732.953 1090.71 764.13 1072.71 c 4
 764.996 1072.21 765.862 1071.71 767.594 1070.71 c 4
 795.307 1054.71 848.66 1003.12 836.589 966.214 c 4
 835.321 960.019 831.821 953.956 828.321 947.894 c 5
 624 634 l 5
 606.769 608.153 537.646 628.431 516.862 640.431 c 4
 496.943 651.931 446.651 694.823 455.821 720.706 c 4
 456.455 723.804 457.955 726.402 459.455 729 c 5
564 734 m 5
 938 755 l 5
 988 755 1014 678 1014 642 c 4
 1014 641 1014 640 1014 638 c 4
 1014 606 996 534 958 526 c 4
 952 524 945 524 938 524 c 5
 564 544 l 5
 533 546 516 616 516 640 c 4
 516 663 528 728 555 733 c 4
 558 734 561 734 564 734 c 5
468 545 m 5
 94 524 l 5
 44 524 18 601 18 637 c 4
 18 638 18 639 18 641 c 4
 18 673 36 745 74 753 c 4
 80 755 87 755 94 755 c 5
 468 735 l 5
 499 733 516 663 516 639 c 4
 516 616 504 551 477 546 c 4
 474 545 471 545 468 545 c 5
EndSplineSet
Fore
SplineSet
937.508789062 821 m 1
 1184.484375 835 l 2
 1234.484375 835 1244.11816406 758 1236.46582031 722 c 0
 1236.25292969 721 1236.04101562 720 1235.61523438 718 c 0
 1228.81347656 686 1195.50976562 614 1155.80957031 606 c 0
 1149.38378906 604 1142.38378906 604 1135.38378906 604 c 2
 892.147460938 617 l 1
 982.573242188 412 l 2
 984.873046875 404 985.172851562 396 983.259765625 387 c 0
 974.969726562 348 925.6171875 304 896.641601562 290 c 0
 895.428710938 289 894.428710938 289 893.215820312 288 c 0
 873.090820312 278 835.540039062 266 805.540039062 266 c 0
 788.540039062 266 773.390625 270 766.515625 280 c 0
 762.366210938 284 759.641601562 290 757.916992188 296 c 2
 692.678710938 516 l 1
 536.12890625 297 l 2
 519.877929688 277 494.390625 270 469.390625 270 c 0
 440.390625 270 412.303710938 279 398.215820312 288 c 0
 397.215820312 288 396.428710938 289 395.641601562 290 c 0
 373.6171875 304 336.969726562 348 344.409179688 383 c 0
 345.259765625 387 346.109375 391 348.747070312 394 c 0
 351.235351562 401 355.510742188 407 360.786132812 413 c 2
 537.360351562 618 l 1
 291.383789062 604 l 2
 241.383789062 604 231.750976562 681 239.403320312 717 c 0
 239.615234375 718 239.828125 719 240.252929688 721 c 0
 247.0546875 753 280.359375 825 320.059570312 833 c 0
 326.484375 835 333.484375 835 340.484375 835 c 2
 585.721679688 822 l 1
 493.5078125 1028 l 2
 491.208984375 1036 491.122070312 1045 492.822265625 1053 c 0
 501.111328125 1092 551.463867188 1136 579.65234375 1151 c 0
 580.65234375 1151 581.865234375 1152 584.078125 1153 c 0
 603.203125 1163 640.75390625 1175 670.75390625 1175 c 0
 688.75390625 1175 702.903320312 1171 710.565429688 1160 c 0
 713.715820312 1156 716.440429688 1150 718.165039062 1144 c 2
 783.615234375 925 l 1
 939.952148438 1143 l 2
 956.416015625 1164 981.903320312 1171 1007.90332031 1171 c 0
 1035.90332031 1171 1063.99121094 1162 1078.078125 1153 c 0
 1078.86523438 1152 1079.86523438 1152 1081.65234375 1151 c 0
 1103.46386719 1136 1139.32421875 1093 1131.88476562 1058 c 0
 1131.03417969 1054 1130.18457031 1050 1128.33398438 1046 c 0
 1125.05859375 1040 1120.78320312 1034 1115.5078125 1028 c 2
 937.508789062 821 l 1
EndSplineSet
EndChar

StartChar: plus
Encoding: 43 43 11
Width: 972
Flags: HW
HStem: 520 240<68 334 574 861>
VStem: 334 240<233 520 760 1062>
LayerCount: 2
Back
SplineSet
67.584 710.656 m 1
 374.784 710.656 l 1
 374.784 1021.95 l 1
 516.096 1021.95 l 1
 516.096 710.656 l 1
 823.296 710.656 l 1
 823.296 569.344 l 1
 516.096 569.344 l 1
 516.096 258.048 l 1
 374.784 258.048 l 1
 374.784 569.344 l 1
 67.584 569.344 l 1
 67.584 710.656 l 1
EndSplineSet
Fore
SplineSet
229.54296875 760 m 1
 495.54296875 760 l 1
 559.735351562 1062 l 1
 799.735351562 1062 l 1
 735.54296875 760 l 1
 1022.54296875 760 l 1
 971.529296875 520 l 1
 683.529296875 520 l 1
 622.525390625 233 l 1
 383.525390625 233 l 1
 444.529296875 520 l 1
 178.529296875 520 l 1
 229.54296875 760 l 1
EndSplineSet
EndChar

StartChar: comma
Encoding: 44 44 12
Width: 444
Flags: HW
HStem: -205 503<203 215>
VStem: 174.055 207.945<-76.2 137>
LayerCount: 2
Back
SplineSet
308.224 94.208 m 1
 308.224 -63.4883 206.848 -186.368 184.32 -221.184 c 1
 129.024 -190.464 l 1
 149.504 -159.744 200.704 -83.9678 200.704 -12.2881 c 0
 141.352 -12.2881 93.1836 34.8555 93.1836 94.208 c 0
 93.1836 153.561 141.352 201.728 200.704 201.728 c 0
 260.055 201.728 308.224 153.561 308.224 94.208 c 1
EndSplineSet
Fore
SplineSet
411.120117188 137 m 1
 376.260742188 -27 213.078125 -169 159.42578125 -205 c 1
 94.5654296875 -162 l 1
 107.966796875 -146 158.270507812 -74 165.498046875 -40 c 0
 166.34765625 -36 166.198242188 -32 165.8359375 -29 c 1
 113.598632812 -16 63.65234375 36 85.1201171875 137 c 1
 101.69921875 215 192.341796875 298 278.341796875 298 c 1
 393.341796875 298 425.999023438 207 411.120117188 137 c 1
EndSplineSet
EndChar

StartChar: hyphen
Encoding: 45 45 13
Width: 960
Flags: HW
HStem: 514 240<98 870>
LayerCount: 2
Back
SplineSet
98.3037 704.512 m 1
 776.192 704.512 l 1
 776.192 563.2 l 1
 98.3037 563.2 l 1
 98.3037 704.512 l 1
EndSplineSet
Fore
SplineSet
258.267578125 754 m 1
 1030.26757812 754 l 1
 979.25390625 514 l 1
 207.25390625 514 l 1
 258.267578125 754 l 1
EndSplineSet
EndChar

StartChar: period
Encoding: 46 46 14
Width: 451
Flags: HW
HStem: -33 328<111 346.3>
VStem: 64 328<14 249.3>
LayerCount: 2
Back
SplineSet
93.1836 94.208 m 0
 93.1836 153.561 141.352 201.728 200.704 201.728 c 0
 260.055 201.728 308.224 153.561 308.224 94.208 c 0
 308.224 34.8555 260.055 -13.3115 200.704 -13.3115 c 0
 141.352 -13.3115 93.1836 34.8555 93.1836 94.208 c 0
EndSplineSet
Fore
SplineSet
91.8447265625 131 m 0
 111.1875 222 200.704101562 295 290.704101562 295 c 0
 381.704101562 295 439.1875 222 419.844726562 131 c 0
 400.71484375 41 311.985351562 -33 220.985351562 -33 c 0
 130.985351562 -33 72.71484375 41 91.8447265625 131 c 0
EndSplineSet
EndChar

StartChar: slash
Encoding: 47 47 15
Width: 847
Flags: HW
HStem: 0 21G<-42 245>
VStem: -42 923<0 1544>
LayerCount: 2
Back
SplineSet
124.928 0 m 1
 -32.7676 0 l 1
 684.032 1544.19 l 0
 841.729 1544.19 l 1
 124.928 0 l 1
EndSplineSet
Fore
SplineSet
245 0 m 1
 -42 0 l 1
 941.1875 1544 l 0
 1209.1875 1544 l 1
 245 0 l 1
EndSplineSet
EndChar

StartChar: zero
Encoding: 48 48 16
Width: 1177
Flags: HW
HStem: -28.0023 242.002<337 831> 1248 242<343 837>
VStem: 80 268<301 1211> 821 268<301 1211>
LayerCount: 2
Back
SplineSet
90.1123 727.04 m 1
 90.1123 1136.64 268.288 1492.99 571.392 1492.99 c 1
 874.496 1492.99 1038.34 1136.64 1038.34 727.04 c 1
 1038.34 319.488 866.304 -30.7197 563.2 -30.7197 c 1
 260.096 -30.7197 90.1123 319.488 90.1123 727.04 c 1
247.808 727.04 m 1
 247.808 448.512 342.016 110.592 563.2 110.592 c 1
 786.432 110.592 880.64 448.512 880.64 727.04 c 1
 880.64 1007.62 794.624 1351.68 571.392 1351.68 c 1
 350.208 1351.68 247.808 1007.62 247.808 727.04 c 1
EndSplineSet
Fore
SplineSet
240.692382812 756 m 1
 338.46875 1216 586.708984375 1490 906.708984375 1490 c 1
 1226.70898438 1490 1347.46875 1216 1249.69238281 756 c 1
 1152.12890625 297 899.048828125 -28 579.048828125 -28 c 0
 578.048828125 -28 l 1
 258.048828125 -28 142.916992188 296 240.692382812 756 c 1
508.692382812 756 m 1
 434.297851562 406 439.487304688 214 629.487304688 214 c 1
 819.487304688 214 907.297851562 406 981.692382812 756 c 1
 1056.08789062 1106 1045.27050781 1248 855.270507812 1248 c 1
 665.270507812 1248 583.087890625 1106 508.692382812 756 c 1
EndSplineSet
EndChar

StartChar: one
Encoding: 49 49 17
Width: 1177
Flags: HW
HStem: 0 21G<502 770> 1436 20G<505 770>
VStem: 502 268<0 1206>
LayerCount: 2
Back
SplineSet
571.392 1275.9 m 1
 362.496 1099.78 l 1
 272.384 1196.03 l 1
 573.44 1456.13 l 1
 729.088 1456.13 l 1
 729.088 0 l 1
 571.392 0 l 1
 571.392 1275.9 l 1
EndSplineSet
Fore
SplineSet
753.666992188 1184 m 1
 758.342773438 1206 l 1
 485.342773438 1206 l 1
 523.719726562 1236 l 1
 814.482421875 1456 l 1
 1079.48242188 1456 l 1
 770 0 l 1
 502 0 l 1
 753.666992188 1184 l 1
EndSplineSet
EndChar

StartChar: two
Encoding: 50 50 18
Width: 1177
Flags: HW
HStem: 0 240<402 1061> 1252 240<422.7 711.3>
VStem: 759 262<831.7 1224.3>
LayerCount: 2
Back
SplineSet
725 1176 m 5
 942 1322 l 5
240 1112 m 21
 274 1230 408 1368 570 1368 c 5
 788 1368 893.694 1219.53 893 1040 c 28
 892.165 823.919 712 704 567 592 c 4
 422 480 243 336 243 146 c 5
188 398 m 5
 412 265 l 5
719 896 m 5
 931 751 l 5
485 686 m 5
 642 488 l 5
262.144 1110.02 m 9
 122.878 1165.31 l 17
 174.08 1347.58 366.592 1495.04 569.344 1495.04 c 0
 780.288 1495.04 989.182 1359.87 989.182 1052.67 c 0
 989.182 772.096 688.697 610.386 591.872 540.672 c 0
 489.472 466.944 272.384 274.432 272.384 141.312 c 1
 1036.29 141.312 l 17
 1036.29 0 l 1
 88.0645 0 l 1
 88.0645 325.632 333.824 528.384 544.771 675.84 c 0
 652.012 750.805 835.582 849.92 835.582 1052.67 c 0
 835.582 1249.28 702.464 1353.73 569.344 1353.73 c 0
 442.368 1353.73 313.344 1271.81 262.144 1110.02 c 9
EndSplineSet
Fore
SplineSet
586.7109375 1076 m 9
 363.802734375 1147 l 17
 444.67578125 1344 685.134765625 1492 884.134765625 1492 c 1
 1083.13476562 1492 1317.72851562 1396 1242.27148438 1041 c 1
 1208.04980469 880 1147.85644531 785 998.924804688 663 c 0
 819.678710938 516 538.046875 386 453.013671875 240 c 1
 1112.01367188 240 l 17
 1061 0 l 1
 92 0 l 1
 136.63671875 210 200.307617188 359 411.504882812 534 c 0
 639.465820312 722 931.80859375 813 980.271484375 1041 c 0
 1010.2421875 1182 944.12109375 1252 833.12109375 1252 c 1
 722.12109375 1252 645.79296875 1194 586.7109375 1076 c 9
EndSplineSet
EndChar

StartChar: three
Encoding: 51 51 19
Width: 1177
Flags: HW
HStem: -28 242<483.6 777.4> 651 213<433 708.9> 1253 237<458.5 702.9>
VStem: 760 252<934.4 1228.2> 831 269<271.7 588.9>
LayerCount: 2
Back
SplineSet
763 274 m 5
 920 76 l 5
805 530 m 5
 1022 676 l 5
741 1162 m 5
 958 1308 l 5
240 1112 m 21
 274 1230 408 1368 570 1368 c 5
 777.371 1368 889.966 1223.49 893.344 1056 c 4
 897.359 856.812 745.042 760 542 760 c 5
 762 760 964 690 964 428 c 5
 964 186 772 98 598 98 c 5
 450 98 318 180 264 282 c 5
122.88 251.904 m 9xd0
 278.528 299.008 l 17
 329.728 188.416 448.512 110.592 557.056 110.592 c 1
 720.896 110.592 868.352 202.752 868.352 403.456 c 1xd0
 868.352 602.112 718.848 692.224 561.152 692.224 c 0
 483.328 692.224 l 1
 483.328 825.344 l 1
 561.152 825.344 l 0
 706.56 825.344 833.536 909.312 833.536 1085.44 c 1
 833.536 1241.09 743.424 1357.82 559.104 1357.82 c 1
 552.96 1357.82 l 0
 448.512 1357.82 342.016 1302.53 299.008 1200.13 c 9
 161.792 1263.62 l 17
 231.424 1400.83 393.216 1497.09 559.104 1497.09 c 1
 811.008 1497.09 991.232 1327.1 991.232 1085.44 c 1xe0
 991.232 890.88 860.16 792.576 796.672 753.664 c 1
 884.736 727.04 1026.05 614.4 1026.05 403.456 c 1
 1026.05 129.024 817.152 -30.7197 557.056 -30.7197 c 1
 401.408 -30.7197 200.704 71.6797 122.88 251.904 c 9xd0
EndSplineSet
Fore
SplineSet
161.65625 323 m 9xe8
 434.53515625 393 l 17
 459.264648438 260 555.487304688 214 643.487304688 214 c 1
 781.487304688 214 896.467773438 308 922.186523438 429 c 1xe8
 948.331054688 552 856.374023438 651 736.374023438 651 c 0
 571.374023438 651 l 1
 616.6484375 864 l 1
 758.6484375 864 l 0
 861.6484375 864 964.479492188 962 984.034179688 1054 c 0
 1012.51757812 1188 938.333007812 1253 835.333007812 1253 c 0
 750.333007812 1253 678.004882812 1195 644.739257812 1142 c 9
 408.768554688 1208 l 17
 516.241210938 1389 675.708984375 1490 884.708984375 1490 c 1
 1112.70898438 1490 1305.328125 1380 1244.96191406 1096 c 1xf0
 1216.90429688 964 1134.625 878 1041.29589844 820 c 1
 1134.56738281 746 1236.03613281 640 1191.18652344 429 c 1
 1139.11035156 184 882.048828125 -28 592.048828125 -28 c 1
 375.048828125 -28 199.303710938 72 161.65625 323 c 9xe8
EndSplineSet
EndChar

StartChar: four
Encoding: 52 52 20
Width: 1177
Flags: HW
HStem: 0 21G<675 944> 348 237<348 675 944 1082> 1436 20G<655 944>
VStem: 675 269<0 348> 683 261<588 1105>
LayerCount: 2
Back
SplineSet
854.016 1445.25 m 1
 854.016 536.576 l 9
 1042.43 536.576 l 17
 1042.43 397.312 l 1
 854.016 397.312 l 1
 854.016 0 l 1
 696.32 0 l 1
 696.32 397.312 l 1
 77.8242 397.312 l 9
 684.032 1456.13 l 1
 696.32 1456.13 l 1
 854.016 1456.13 l 1
 860.16 1456.13 l 1
 854.016 1445.25 l 1
700.416 1229.67 m 1
 313.344 538.624 l 1
 700.416 538.624 l 1
 700.416 1229.67 l 1
EndSplineSet
Fore
SplineSet
1068.34570312 585 m 9xe8
 1206.34570312 585 l 17
 1155.96972656 348 l 1
 1017.96972656 348 l 1
 944 0 l 1
 675 0 l 1
 748.969726562 348 l 1xf0
 163.969726562 348 l 1
 207.331054688 552 l 1
 964.482421875 1456 l 1
 1253.48242188 1456 l 1
 1068.34570312 585 l 9xe8
917.875 1105 m 1xe8
 472.983398438 588 l 1
 807.983398438 588 l 1
 917.875 1105 l 1xe8
EndSplineSet
EndChar

StartChar: five
Encoding: 53 53 21
Width: 1177
Flags: HW
HStem: -26 242<403 793> 719 229<485.067 793> 1217 239<506 975>
VStem: 842 264<282.9 639.1>
LayerCount: 2
Back
SplineSet
763 274 m 1
 920 76 l 1
812 590 m 1
 1029 736 l 1
306 752 m 0
 354 782 472 823.669 598 823.669 c 1
 776 823.669 973 678 973 461 c 1
 973 240 772 98 598 98 c 1
 450 98 328 180 274 282 c 1
221 461 m 0
 221 660.824 394.968 823 597 823 c 0
 799.032 823 973 660.824 973 461 c 0
 973 261.176 799.032 99 597 99 c 0
 394.968 99 221 261.176 221 461 c 0
552.96 765.952 m 1
 425.984 765.952 272.384 712.704 182.272 671.744 c 9
 282.624 1456.13 l 1
 954.368 1456.13 l 1
 954.368 1314.82 l 1
 409.6 1314.82 l 1
 354.304 868.352 l 1
 409.6 897.024 475.136 901.12 559.104 901.12 c 1
 823.296 901.12 1038.34 706.561 1038.34 417.792 c 1
 1038.34 208.896 866.304 -30.7197 587.776 -30.7197 c 1
 356.352 -30.7197 169.984 133.12 114.688 329.729 c 9
 270.336 358.4 l 17
 305.152 256 391.168 110.592 587.776 110.592 c 1
 763.904 110.592 882.688 243.712 882.688 419.84 c 1
 882.688 614.4 724.992 765.952 552.96 765.952 c 1
EndSplineSet
Fore
SplineSet
750.828125 719 m 1
 656.828125 719 601.813476562 686 571.287109375 660 c 1
 333.416992188 750 l 1
 601.482421875 1456 l 1
 1284.48242188 1456 l 1
 1233.68164062 1217 l 1
 764.681640625 1217 l 1
 647.827148438 926 l 1
 677.015625 941 751.50390625 948 799.50390625 948 c 1
 1085.50390625 948 1266.69238281 756 1203.98828125 461 c 1
 1141.28417969 166 878.473632812 -26 592.473632812 -26 c 1
 278.473632812 -26 171.912109375 216 171.795898438 366 c 9
 446.573242188 412 l 17
 444.8203125 352 493.912109375 216 643.912109375 216 c 1
 793.912109375 216 910.868164062 324 939.98828125 461 c 1
 969.108398438 598 900.828125 719 750.828125 719 c 1
EndSplineSet
EndChar

StartChar: six
Encoding: 54 54 22
Width: 1177
Flags: HW
HStem: -28 236<436.5 757.6> 660 242<520.024 750.4> 1436 20G<547.275 834>
VStem: 109 268<262.7 581.2> 798 269<288.6 590.2>
LayerCount: 2
Back
SplineSet
387 429 m 5
 387 553 463 660 591 660 c 5
 719 660 788 547 788 433 c 5
 788 302 704 208 589 208 c 5
 457 208 387 321 387 429 c 5
677 886 m 5
 674 889 589 902 585 902 c 4
 300 902 118 703 118 429 c 5
 118 204 303 -28 591 -28 c 5
 871 -28 1056 195 1056 431 c 5
 1056 664 974 820 924 924 c 5
EndSplineSet
Fore
SplineSet
889.186523438 429 m 1
 915.543945312 553 852.287109375 660 724.287109375 660 c 1
 596.287109375 660 493.268554688 547 469.037109375 433 c 1
 441.192382812 302 515.211914062 208 630.211914062 208 c 1
 762.211914062 208 866.23046875 321 889.186523438 429 c 1
726.663085938 897 m 1
 730.30078125 900 777.725585938 902 781.725585938 902 c 0
 1066.72558594 902 1216.42773438 703 1158.18652344 429 c 1
 1110.36132812 204 866.048828125 -28 578.048828125 -28 c 1
 298.048828125 -28 150.448242188 195 200.612304688 431 c 1
 250.137695312 664 398.295898438 820 470.40234375 924 c 1
 856.482421875 1456 l 1
 1143.48242188 1456 l 1
 726.663085938 897 l 1
EndSplineSet
EndChar

StartChar: seven
Encoding: 55 55 23
Width: 1177
Flags: HW
HStem: 0 21G<98 422> 1202 254<100 703>
LayerCount: 2
Back
SplineSet
1069.06 1456.13 m 1
 514.048 0 l 1
 331.776 0 l 1
 847.872 1306.62 l 1
 100.352 1306.62 l 1
 100.352 1456.13 l 1
 1069.06 1456.13 l 1
EndSplineSet
Fore
SplineSet
1467.48242188 1456 m 1
 422 0 l 1
 98 0 l 1
 958.493164062 1202 l 1
 355.493164062 1202 l 1
 409.482421875 1456 l 1
 1467.48242188 1456 l 1
EndSplineSet
EndChar

StartChar: eight
Encoding: 56 56 24
Width: 1177
Flags: HW
HStem: -28 221<392.4 787.6> 676 247<434 735.6> 1270 219<409.9 763.5>
VStem: 68 268<249.7 615> 125 268<940.3 1218.5> 786 269<936.4 1222.4> 844 268<251 617.6>
LayerCount: 2
Back
SplineSet
571.392 110.592 m 0xf2
 753.664 110.592 903.168 235.52 903.168 411.648 c 1
 903.168 589.824 745.472 722.944 575.488 722.944 c 1
 395.264 722.944 251.904 587.776 251.904 411.648 c 0
 251.904 229.376 399.36 110.592 571.392 110.592 c 0xf2
317.44 1107.97 m 1xec
 317.44 956.416 430.08 856.064 575.488 856.064 c 1
 718.848 856.064 831.488 952.32 831.488 1107.97 c 1
 831.488 1239.04 745.472 1355.78 573.44 1355.78 c 1
 407.552 1355.78 317.44 1234.94 317.44 1107.97 c 1xec
573.44 1497.09 m 1
 825.344 1497.09 989.184 1333.25 989.184 1107.97 c 1xec
 989.184 913.408 870.4 833.536 817.152 786.432 c 1
 894.976 727.04 1060.86 612.352 1060.86 411.648 c 1
 1060.86 147.456 833.536 -30.7197 571.392 -30.7197 c 1
 309.248 -30.7197 94.208 151.552 94.208 411.648 c 1xf2
 94.208 604.16 245.76 727.04 329.728 786.432 c 1
 266.24 843.776 159.744 917.504 159.744 1107.97 c 1
 159.744 1327.1 323.584 1497.09 573.44 1497.09 c 1
EndSplineSet
Fore
SplineSet
631.0234375 193 m 0xf2
 783.0234375 193 906.279296875 293 936.037109375 433 c 1
 966.219726562 575 864.688476562 676 733.688476562 676 c 1
 569.688476562 676 457.794921875 573 428.037109375 433 c 0
 398.06640625 292 479.0234375 193 631.0234375 193 c 0xf2
625.749023438 1095 m 1xec
 600.455078125 976 666.189453125 923 786.189453125 923 c 1
 898.189453125 923 992.817382812 973 1018.74902344 1095 c 1
 1039.58007812 1193 992.947265625 1270 857.947265625 1270 c 1
 720.947265625 1270 645.942382812 1190 625.749023438 1095 c 1xec
904.497070312 1489 m 1
 1180.49707031 1489 1336.42480469 1324 1287.74902344 1095 c 1xec
 1250.33984375 919 1102.54785156 840 1037.47070312 802 c 1
 1137.51855469 774 1243.57226562 619 1204.03710938 433 c 1
 1139.20703125 128 871.048828125 -28 580.048828125 -28 c 1
 257.048828125 -28 102.221679688 161 160.037109375 433 c 1xf2
 198.509765625 614 378.369140625 778 483.470703125 802 c 1
 431.697265625 836 322.040039062 927 357.749023438 1095 c 1
 408.125 1332 623.497070312 1489 904.497070312 1489 c 1
EndSplineSet
EndChar

StartChar: nine
Encoding: 57 57 25
Width: 1177
Flags: HW
HStem: 0 21G<340 626.725> 554 242<423.6 647.694> 1248 236<416.4 737.5>
VStem: 107 269<865.8 1167.4> 797 268<874.8 1193.3>
LayerCount: 2
Back
SplineSet
282.624 1052.67 m 1
 282.624 890.88 409.6 751.616 587.776 751.616 c 1
 765.952 751.616 882.688 899.072 882.688 1048.58 c 1
 882.688 1218.56 745.472 1341.44 585.729 1341.44 c 1
 401.408 1341.44 282.624 1193.98 282.624 1052.67 c 1
724.992 632.832 m 1
 679.936 614.4 647.168 602.112 587.776 602.112 c 0
 339.968 602.112 133.12 798.72 133.12 1052.67 c 1
 133.12 1259.52 311.296 1490.94 589.824 1490.94 c 1
 856.064 1490.94 1032.19 1267.71 1032.19 1050.62 c 1
 1032.19 845.824 911.36 675.84 864.256 589.824 c 1
 509.952 -55.2959 l 9
 382.976 20.4805 l 17
 724.992 632.832 l 1
EndSplineSet
Fore
SplineSet
594.295898438 1027 m 1
 567.938476562 903 631.1953125 796 759.1953125 796 c 1
 887.1953125 796 990.213867188 909 1014.4453125 1023 c 1
 1042.29003906 1154 968.270507812 1248 853.270507812 1248 c 1
 721.270507812 1248 617.251953125 1135 594.295898438 1027 c 1
756.819335938 559 m 1
 753.181640625 556 705.755859375 554 701.755859375 554 c 0
 416.755859375 554 267.0546875 753 325.295898438 1027 c 1
 373.12109375 1252 617.43359375 1484 905.43359375 1484 c 1
 1185.43359375 1484 1333.03417969 1261 1282.87011719 1025 c 1
 1233.34472656 792 1085.18554688 636 1013.08007812 532 c 1
 627 0 l 1
 340 0 l 1
 756.819335938 559 l 1
EndSplineSet
EndChar

StartChar: less
Encoding: 60 60 28
Width: 864
Flags: HW
VStem: 45 750<636 1237>
LayerCount: 2
Back
SplineSet
581.632 22.5283 m 1
 73.7275 634.88 l 1
 581.632 1234.94 l 1
 780.288 1234.94 l 1
 270.336 632.832 l 1
 780.288 22.5283 l 1
 581.632 22.5283 l 1
EndSplineSet
Fore
SplineSet
468.1015625 24 m 1
 180.185546875 636 l 1
 725.932617188 1237 l 1
 1057.93261719 1237 l 1
 510.547851562 633 l 1
 798.1015625 24 l 1
 468.1015625 24 l 1
EndSplineSet
EndChar

StartChar: equal
Encoding: 61 61 29
Width: 907
Flags: HW
HStem: 309 240<55 856> 676 239<55 856>
LayerCount: 2
Back
SplineSet
55.2959 499.712 m 1
 856.064 499.712 l 1
 856.064 358.4 l 1
 55.2959 358.4 l 1
 55.2959 499.712 l 1
55.2959 866.304 m 1
 856.064 866.304 l 1
 856.064 724.992 l 1
 55.2959 724.992 l 1
 55.2959 866.304 l 1
EndSplineSet
Fore
SplineSet
171.693359375 549 m 1
 972.693359375 549 l 1
 921.6796875 309 l 1
 120.6796875 309 l 1
 171.693359375 549 l 1
249.489257812 915 m 1
 1050.48925781 915 l 1
 999.688476562 676 l 1
 198.688476562 676 l 1
 249.489257812 915 l 1
EndSplineSet
EndChar

StartChar: greater
Encoding: 62 62 30
Width: 864
Flags: HW
VStem: 55 752<20 636>
LayerCount: 2
Back
SplineSet
280.576 20.4805 m 1
 81.9199 20.4805 l 1
 589.824 632.832 l 1
 81.9199 1234.94 l 1
 280.576 1234.94 l 1
 786.432 634.88 l 1
 280.576 20.4805 l 1
EndSplineSet
Fore
SplineSet
397.250976562 20 m 1
 59.2509765625 20 l 1
 611.3359375 632 l 1
 317.5078125 1235 l 1
 656.5078125 1235 l 1
 942.185546875 636 l 1
 397.250976562 20 l 1
EndSplineSet
EndChar

StartChar: question
Encoding: 63 63 31
Width: 1034
Flags: HW
HStem: -33 328<390 625.3> 1253 244<362.3 626.2>
VStem: 343 328<14 249.3> 371 268<399 773.1> 702 281<787.2 1247.4>
LayerCount: 2
Back
SplineSet
264.745 1093.14 m 0
 264.745 1199.21 373.787 1289.56 508.14 1289.56 c 4
 642.494 1289.56 751.534 1199.21 751.534 1093.14 c 0
 751.534 987.072 642.494 900.987 508.14 900.987 c 0
 373.787 900.987 264.745 987.072 264.745 1093.14 c 0
51.2402 1093.14 m 0
 51.2402 1314.71 254.018 1494.53 503.869 1494.53 c 0
 753.72 1494.53 956.498 1314.71 956.498 1093.14 c 0
 956.498 871.573 753.72 691.753 503.869 691.753 c 0
 254.018 691.753 51.2402 871.573 51.2402 1093.14 c 0
EndSplineSet
Fore
SplineSet
751.655273438 530 m 1xd8
 723.810546875 399 l 1
 455.810546875 399 l 1
 497.258789062 594 l 0
 548.697265625 836 884.373046875 858 934.537109375 1094 c 1
 959.618164062 1212 864.333007812 1253 770.333007812 1253 c 1
 661.333007812 1253 572.903320312 1171 542.22265625 1069 c 1
 282.9375 1110 l 1
 354.0625 1327 556.197265625 1497 818.197265625 1497 c 1
 1063.19726562 1497 1272.50195312 1362 1216.38671875 1098 c 1
 1137.52832031 727 791.403320312 717 751.655273438 530 c 1xd8
EndSplineSet
Refer: 14 46 S 1 0 0.212557 1 279 0 2
EndChar

StartChar: at
Encoding: 64 64 32
Width: 1737
Flags: HW
HStem: -33 166<449.9 1057> 346 203<746.3 1012.8> 373 219<1284.7 1419.9> 905 189<751.5 989.4> 1323 172<449.9 1298.8>
VStem: 79 200<301.3 1154.1> 472 219<593.2 874> 1045 213<652.4 868.5> 1453 207<636.5 1160.4>
LayerCount: 2
Back
SplineSet
1165.31 212.992 m 1xbf80
 1243.14 110.592 l 17
 1116.16 18.4316 962.56 -34.8164 794.624 -34.8164 c 0
 370.688 -34.8164 30.7197 307.2 30.7197 731.136 c 0
 30.7197 1153.02 370.688 1495.04 794.624 1495.04 c 0
 1216.51 1495.04 1558.53 1153.02 1558.53 731.136 c 0
 1558.53 555.008 1411.07 417.792 1273.86 417.792 c 0xbf80
 1200.13 417.792 1112.06 460.8 1058.82 518.145 c 1
 999.424 438.272 901.12 389.12 794.624 389.12 c 0xdf80
 606.208 389.12 452.608 542.72 452.608 731.136 c 0
 452.608 917.504 606.208 1071.1 794.624 1071.1 c 0
 983.04 1071.1 1118.21 909.312 1118.21 731.136 c 0
 1118.21 645.12 1185.79 546.816 1267.71 546.816 c 0
 1351.68 546.816 1429.5 626.688 1429.5 731.136 c 0
 1429.5 1071.1 1153.02 1368.06 794.624 1368.06 c 0
 436.224 1368.06 157.696 1071.1 157.696 727.04 c 0
 157.696 385.024 436.224 92.1602 794.624 92.1602 c 0
 921.6 92.1602 1069.06 145.408 1165.31 212.992 c 1xbf80
581.632 731.136 m 0
 581.632 606.208 679.936 516.096 794.624 516.096 c 0xdf80
 917.504 516.096 993.28 614.4 993.28 731.136 c 0
 993.28 841.729 897.024 946.176 794.624 946.176 c 0
 684.032 946.176 581.632 849.92 581.632 731.136 c 0
EndSplineSet
Fore
SplineSet
1279.26464844 260 m 1xbf80
 1360.01855469 113 l 17
 1210.46386719 21 1068.98535156 -33 867.985351562 -33 c 0
 425.985351562 -33 142.766601562 300 234.37890625 731 c 0
 325.778320312 1161 750.772460938 1495 1192.77246094 1495 c 0
 1632.77246094 1495 1909.54101562 1174 1821.54296875 760 c 0
 1775.20605469 542 1587.28320312 373 1434.28320312 373 c 0xbf80
 1365.28320312 373 1290.57324219 412 1259.27832031 500 c 1
 1173.47167969 388 1060.54492188 346 948.544921875 346 c 0xdf80
 726.544921875 346 582.31640625 519 627.37890625 731 c 0
 669.677734375 930 885.537109375 1094 1107.53710938 1094 c 0
 1330.53710938 1094 1455.25292969 928 1416.56738281 746 c 0
 1401.26269531 674 1425.83300781 592 1476.83300781 592 c 0
 1529.83300781 592 1594.35058594 665 1614.54296875 760 c 0
 1680.01074219 1068 1482.21191406 1323 1156.21191406 1323 c 0
 829.211914062 1323 503.459960938 1056 433.954101562 729 c 0
 364.022460938 400 576.270507812 133 903.270507812 133 c 0
 1043.27050781 133 1196.29882812 199 1279.26464844 260 c 1xbf80
846.37890625 731 m 0
 823.84765625 625 892.693359375 549 991.693359375 549 c 0xdf80
 1097.69335938 549 1180.82324219 639 1203.35449219 745 c 0
 1223.54785156 840 1155.36328125 905 1067.36328125 905 c 0
 972.36328125 905 869.759765625 841 846.37890625 731 c 0
EndSplineSet
EndChar

StartChar: m
Encoding: 109 109 33
Width: 1575
Flags: HW
HStem: 0 21G<119 377 666 924 1212 1470> 868 234<477 670.5 1013 1216.2>
VStem: 119 258<0 800.3 915 1073> 666 258<0 740> 1212 258<0 800.3>
LayerCount: 2
Back
SplineSet
346 862 m 5
 390.825 954.286 506 1102 636 1102 c 4
 766 1102 924 1018 924 539 c 4
 924 0 l 5
 666 0 l 4
 666 539 l 4
 666 740 622 868 522 868 c 5
 422 868 378 740 378 539 c 4
 378 0 l 5
EndSplineSet
Fore
SplineSet
924 0 m 1
 666 0 l 0
 780.568359375 539 l 0
 823.291992188 740 820.499023438 868 705.499023438 868 c 1
 589.499023438 868 534.291992188 740 491.568359375 539 c 0
 377 0 l 9
 119 0 l 1
 347.073242188 1073 l 1
 605.073242188 1073 l 1
 571.489257812 915 l 17
 627.581054688 986 750.237304688 1102 880.237304688 1102 c 0
 1083.23730469 1102 1071.26269531 881 1075.22363281 862 c 1
 1139.77929688 954 1286.23730469 1102 1416.23730469 1102 c 0
 1587.23730469 1102 1672.77929688 954 1611.98730469 668 c 0
 1470 0 l 1
 1212 0 l 0
 1326.56835938 539 l 0
 1369.29199219 740 1366.49902344 868 1252.49902344 868 c 1
 1138.49902344 868 1081.29199219 740 1038.56835938 539 c 0
 924 0 l 1
EndSplineSet
EndChar

StartChar: n
Encoding: 110 110 34
Width: 1121
Flags: HW
HStem: 0 21G<119 377 756 1014> 866.89 235.11<515.4 716.4>
VStem: 119 258<0 810 912 1074> 756 258<0 894.5>
LayerCount: 2
Back
SplineSet
270.336 0 m 9
 118.784 0 l 1
 118.784 1073.15 l 1
 270.336 1073.15 l 1
 270.336 921.6 l 17
 339.968 999.424 417.792 1095.68 563.2 1095.68 c 0
 819.2 1095.68 905.216 880.64 905.216 622.592 c 0
 905.216 0 l 1
 753.664 0 l 0
 753.664 618.496 l 0
 753.664 790.528 684.032 958.464 573.44 958.464 c 1
 446.464 958.464 270.336 831.488 270.336 659.456 c 0
 270.336 0 l 9
EndSplineSet
Fore
SplineSet
377 0 m 9
 119 0 l 1
 347.286132812 1074 l 1
 605.286132812 1074 l 1
 570.8515625 912 l 17
 649.95703125 1016 792.237304688 1102 934.237304688 1102 c 0
 1077.23730469 1102 1216.56640625 953 1155.98730469 668 c 1
 1014 0 l 1
 756 0 l 0
 870.142578125 537 l 2
 928.595703125 812 868.286132812 867 760.286132812 867 c 0
 652.286132812 867 549.170898438 810 490.930664062 536 c 2
 377 0 l 9
EndSplineSet
EndChar

StartChar: o
Encoding: 111 111 35
Width: 1105
Flags: HMW
LayerCount: 2
Back
SplineSet
92.1602 536.576 m 0
 92.1602 851.968 241.664 1093.63 507.904 1093.63 c 0
 774.144 1093.63 923.648 851.968 923.648 536.576 c 0
 923.648 221.184 774.144 -28.6719 507.904 -28.6719 c 1
 241.664 -28.6719 92.1602 221.184 92.1602 536.576 c 0
245.76 536.576 m 0
 245.76 339.968 327.68 106.496 507.904 106.496 c 0
 700.416 106.496 770.048 339.968 770.048 536.576 c 0
 770.048 733.184 688.128 958.464 507.904 958.464 c 0
 327.68 958.464 245.76 733.184 245.76 536.576 c 0
EndSplineSet
Fore
SplineSet
458.142578125 537 m 0
 402.666015625 276 493.787109375 206 609.787109375 206 c 0
 724.787109375 206 846.666015625 276 902.142578125 537 c 1
 957.620117188 798 865.07421875 866 750.07421875 866 c 1
 634.07421875 866 513.620117188 798 458.142578125 537 c 0
206.142578125 537 m 0
 278.836914062 879 494.8125 1100 798.8125 1100 c 0
 1103.8125 1100 1222.83691406 879 1150.14257812 537 c 0
 1077.44824219 195 863.8359375 -29 558.8359375 -29 c 1
 254.8359375 -29 132.172851562 189 206.142578125 537 c 0
EndSplineSet
EndChar

StartChar: p
Encoding: 112 112 36
Width: 1132
Flags: HW
HStem: -426 21G<119 377> -28 234<533.2 713.2> 866 234<533.2 717.1>
VStem: 119 258<-426 157 917 1073> 803 260<245.8 855.5>
LayerCount: 2
Back
SplineSet
270.336 -425.984 m 17
 118.784 -425.984 l 1
 118.784 1073.15 l 1
 270.336 1073.15 l 1
 270.336 899.072 l 17
 327.68 995.328 405.504 1091.58 550.912 1091.58 c 0
 802.816 1091.58 923.648 823.296 923.648 540.672 c 0
 923.648 258.048 835.584 -28.6719 512 -28.6719 c 1
 348.16 -28.6719 270.336 139.264 270.336 139.264 c 0
 270.336 139.264 270.336 -205.537 270.336 -425.984 c 17
770.048 536.576 m 0
 770.048 770.048 688.128 956.416 561.152 956.416 c 1
 421.888 956.416 266.24 794.624 266.24 536.576 c 1
 266.24 245.76 409.6 106.496 522.24 106.496 c 0
 671.744 106.496 770.048 262.144 770.048 536.576 c 0
EndSplineSet
Fore
SplineSet
286.451171875 -426 m 17
 28.451171875 -426 l 1
 347.073242188 1073 l 1
 605.073242188 1073 l 1
 571.9140625 917 l 17
 664.083007812 1026 801.8125 1100 917.8125 1100 c 0
 1181.8125 1100 1240.69726562 836 1176.08007812 532 c 0
 1111.46289062 228 940.048828125 -28 678.048828125 -28 c 1
 562.048828125 -28 456.203125 48 410.37109375 157 c 1
 286.451171875 -426 l 17
917.142578125 537 m 0
 969.21875 782 872.07421875 866 775.07421875 866 c 1
 678.07421875 866 536.919921875 790 483.142578125 537 c 1
 428.94140625 282 537.787109375 206 634.787109375 206 c 0
 728.787109375 206 869.530273438 313 917.142578125 537 c 0
EndSplineSet
EndChar

StartChar: q
Encoding: 113 113 37
Width: 1132
Flags: HW
HStem: -28 234<423.8 603.8> 866 234<419.9 603.8>
VStem: 74 260<245.8 855.5> 760 258<-209.8 157 917 1073>
LayerCount: 2
Back
SplineSet
233.472 536.576 m 0
 233.472 262.144 335.872 106.496 485.376 106.496 c 0
 598.016 106.496 741.376 245.76 741.376 536.576 c 1
 741.376 794.624 585.729 956.416 446.464 956.416 c 1
 319.488 956.416 233.472 770.048 233.472 536.576 c 0
888.832 -198.656 m 2
 888.832 -278.528 917.504 -313.344 1007.62 -313.344 c 1
 1007.62 -448.512 l 1
 837.632 -448.512 737.28 -380.928 737.28 -204.8 c 0
 737.28 -199.234 737.28 133.698 737.28 139.264 c 1
 737.28 139.264 659.456 -28.6719 495.616 -28.6719 c 1
 172.032 -28.6719 83.9678 258.048 83.9678 540.672 c 0
 83.9678 823.296 204.8 1091.58 456.704 1091.58 c 0
 602.112 1091.58 675.84 995.328 737.28 899.072 c 9
 737.28 1073.15 l 1
 888.832 1073.15 l 1
 888.832 -198.656 l 2
EndSplineSet
Fore
SplineSet
730.029296875 -141 m 0
 793.37109375 157 l 1
 701.203125 48 563.048828125 -28 447.048828125 -28 c 1
 185.048828125 -28 122.462890625 228 187.080078125 532 c 0
 251.697265625 836 422.8125 1100 686.8125 1100 c 0
 802.8125 1100 909.083007812 1026 954.9140625 917 c 9
 988.073242188 1073 l 1
 1246.07324219 1073 l 1
 988.879882812 -137 l 0
 976.9765625 -193 989.150390625 -211 1080.15039062 -211 c 1
 1029.5625 -449 l 1
 792.5625 -449 683.692382812 -359 730.029296875 -141 c 0
448.142578125 537 m 0
 400.530273438 313 495.787109375 206 589.787109375 206 c 0
 686.787109375 206 827.94140625 282 882.142578125 537 c 1
 935.919921875 790 827.07421875 866 730.07421875 866 c 1
 633.07421875 866 500.21875 782 448.142578125 537 c 0
EndSplineSet
EndChar

StartChar: r
Encoding: 114 114 38
Width: 858
Flags: HW
HStem: 0 21G<122 380> 1053 20G<122 380>
VStem: 122 258<0 731.1 912 1073>
LayerCount: 2
Back
SplineSet
638.976 907.264 m 1
 616.448 921.6 544.768 948.224 509.952 948.224 c 1
 393.216 948.224 270.336 786.432 270.336 677.888 c 2
 270.336 0 l 17
 118.784 0 l 1
 118.784 1073.15 l 1
 270.336 1073.15 l 1
 270.336 913.408 l 17
 323.584 1007.62 419.84 1085.44 499.712 1085.44 c 0
 561.152 1085.44 655.36 1060.86 704.512 1030.14 c 1
 638.976 907.264 l 1
EndSplineSet
Fore
SplineSet
907.533203125 807 m 1
 887.295898438 820 811.499023438 868 764.499023438 868 c 1
 609.499023438 868 526.6640625 690 497.543945312 553 c 1
 380 0 l 17
 122 0 l 1
 350.073242188 1073 l 1
 608.073242188 1073 l 1
 573.8515625 912 l 17
 653.594726562 1019 783.237304688 1102 863.237304688 1102 c 0
 932.237304688 1102 1003.30957031 1060 1047.25683594 1008 c 1
 907.533203125 807 l 1
EndSplineSet
EndChar

StartChar: s
Encoding: 115 115 39
Width: 958
Flags: HW
HStem: -29 230<377.7 588.3> 869.811 230.009<409.6 586.4>
VStem: 123.727 248.273<662.058 879.158> 636.858 248.443<185.8 418.5>
LayerCount: 2
Back
SplineSet
458.752 491.52 m 0
 299.893 543.455 110.592 614.4 110.592 798.72 c 0
 110.592 983.04 258.048 1097.73 458.752 1097.73 c 0
 667.648 1097.73 790.528 978.944 813.056 870.4 c 1
 671.744 841.729 l 0
 649.216 911.36 585.729 962.561 460.8 962.561 c 0
 315.392 962.561 264.192 897.024 264.192 804.864 c 0
 264.192 692.224 393.216 661.504 460.8 636.928 c 0
 611.789 582.023 829.44 499.712 829.44 296.96 c 0
 829.44 86.0156 675.84 -28.6719 462.848 -28.6719 c 0
 249.856 -28.6719 126.976 69.6318 86.0156 217.088 c 1
 227.328 243.712 l 1
 249.856 155.648 327.68 106.496 458.752 106.496 c 0
 598.016 106.496 675.84 172.032 675.84 296.96 c 0
 675.84 401.408 565.248 456.704 458.752 491.52 c 0
EndSplineSet
Fore
SplineSet
446.365234375 491 m 0
 320.306640625 566 256.209960938 622 296.170898438 810 c 0
 334.005859375 988 503.8125 1100 727.8125 1100 c 0
 951.8125 1100 1051.86621094 945 1044.2578125 801 c 1
 795.118164062 758 l 1
 799.098632812 852 750.923828125 870 682.923828125 870 c 0
 614.923828125 870 554.161132812 857 538.431640625 783 c 0
 518.6640625 690 645.388671875 684 793.383789062 604 c 0
 925.080078125 532 979.375 444 942.390625 270 c 0
 904.98046875 94 693.8359375 -29 478.8359375 -29 c 0
 258.8359375 -29 140.830078125 98 139.641601562 290 c 1
 379.930664062 329 l 1
 377.076171875 245 444.723632812 201 525.723632812 201 c 0
 606.723632812 201 681.849609375 211 699.704101562 295 c 0
 719.897460938 390 567.061523438 419 446.365234375 491 c 0
EndSplineSet
EndChar

StartChar: t
Encoding: 116 116 40
Width: 706
Flags: HW
HStem: 844 229<72 213 471 625>
VStem: 213 258<212 844 1073 1323>
LayerCount: 2
Back
SplineSet
253.952 937.984 m 0
 112.64 937.984 l 1
 112.64 1073.15 l 1
 253.952 1073.15 l 0
 253.952 1323.01 l 1
 405.504 1323.01 l 0
 405.504 1073.15 l 0
 602.112 1073.15 l 1
 602.112 937.984 l 1
 405.504 937.984 l 0
 405.504 215.04 l 0
 405.504 110.592 477.184 98.3037 522.24 98.3037 c 1
 591.872 98.3037 l 1
 591.872 -28.6719 l 1
 522.24 -28.6719 l 1
 317.44 -28.6719 253.952 49.1523 253.952 210.944 c 1
 253.952 937.984 l 0
EndSplineSet
Fore
SplineSet
392.397460938 844 m 0
 251.397460938 844 l 1
 300.073242188 1073 l 1
 441.073242188 1073 l 0
 494.211914062 1323 l 1
 752.211914062 1323 l 0
 699.073242188 1073 l 0
 853.073242188 1073 l 1
 804.397460938 844 l 1
 650.397460938 844 l 0
 534.12890625 297 l 0
 516.061523438 212 579.936523438 202 624.936523438 202 c 1
 663.936523438 202 l 1
 617.811523438 -15 l 1
 578.811523438 -15 l 1
 292.811523438 -15 231.067382812 85 275.279296875 293 c 1
 392.397460938 844 l 0
EndSplineSet
EndChar

StartChar: u
Encoding: 117 117 41
Width: 1112
Flags: HW
HStem: -29 235.11<428 606.1> 1053 20G<108 366 744 1003>
VStem: 108 258<178.5 1073> 745 258<0 161 180.8 1073>
LayerCount: 2
Back
SplineSet
743.424 1073.15 m 9
 894.976 1073.15 l 1
 894.976 0 l 1
 743.424 0 l 1
 743.424 139.264 l 17
 704.512 79.8721 636.928 -22.5283 491.521 -22.5283 c 0
 235.52 -22.5283 108.544 192.512 108.544 450.56 c 0
 108.544 1073.15 l 1
 260.096 1073.15 l 0
 260.096 454.656 l 0
 260.096 282.624 370.688 114.688 481.28 114.688 c 1
 608.256 114.688 743.424 241.664 743.424 413.696 c 0
 743.424 1073.15 l 9
EndSplineSet
Fore
SplineSet
1003 0 m 2
 745 0 l 2
 779.221679688 161 l 17
 700.116210938 57 558.8359375 -29 421.8359375 -29 c 0
 229.8359375 -29 141.159179688 156 221.717773438 535 c 1
 336.073242188 1073 l 1
 594.073242188 1073 l 0
 479.930664062 536 l 2
 421.477539062 261 509.787109375 206 589.787109375 206 c 0
 669.787109375 206 799.90234375 263 858.142578125 537 c 2
 972.073242188 1073 l 9
 1231.07324219 1073 l 1
 1003 0 l 2
EndSplineSet
EndChar

StartChar: v
Encoding: 118 118 42
Width: 1060
Flags: HW
HStem: 0 21G<411 624> 1053 20G<72 343 716 963>
VStem: 72 891<1073 1073>
LayerCount: 2
Back
SplineSet
436.224 0 m 1
 71.6797 1073.15 l 1
 231.424 1073.15 l 1
 512 194.56 l 1
 798.72 1073.15 l 1
 956.416 1073.15 l 1
 587.776 0 l 1
 436.224 0 l 1
EndSplineSet
Fore
SplineSet
411 0 m 1
 300.073242188 1073 l 1
 571.073242188 1073 l 1
 605.259765625 387 l 1
 944.073242188 1073 l 1
 1191.07324219 1073 l 1
 624 0 l 1
 411 0 l 1
EndSplineSet
EndChar

StartChar: w
Encoding: 119 119 43
Width: 1449
Flags: HW
HStem: 0 21G<372 573 851 1070> 1053 20G<57 312 1142 1385>
LayerCount: 2
Back
SplineSet
688.128 829.44 m 1
 460.8 0 l 1
 344.064 0 l 1
 57.3438 1073.15 l 1
 206.848 1073.15 l 1
 403.456 282.624 l 1
 616.448 1064.96 l 1
 759.808 1064.96 l 17
 972.8 282.624 l 1
 1169.41 1073.15 l 17
 1318.91 1073.15 l 1
 1032.19 0 l 1
 909.312 0 l 1
 688.128 829.44 l 1
EndSplineSet
Fore
SplineSet
856.137695312 664 m 1
 573 0 l 1
 372 0 l 1
 285.073242188 1073 l 1
 540.073242188 1073 l 1
 565.873046875 404 l 1
 838.923828125 1077 l 1
 1070.92382812 1077 l 17
 1058.51074219 407 l 1
 1370.07324219 1073 l 17
 1613.07324219 1073 l 1
 1070 0 l 1
 851 0 l 1
 856.137695312 664 l 1
EndSplineSet
EndChar

StartChar: x
Encoding: 120 120 44
Width: 1054
Flags: HW
HStem: 0 21G<27 334 714 1021> 1053 20G<45 335 712 1026>
VStem: 27 999<0 1073>
LayerCount: 2
Back
SplineSet
860.16 0 m 1
 690.176 0 l 9
 448.512 440.32 l 1
 219.136 0 l 1
 43.0078 0 l 9
 356.352 538.624 l 1
 45.0557 1073.15 l 9
 215.04 1073.15 l 1
 448.512 638.976 l 0
 681.984 1073.15 l 1
 851.968 1073.15 l 1
 540.672 542.72 l 0
 860.16 0 l 1
EndSplineSet
Fore
SplineSet
1021 0 m 1
 714 0 l 9
 595.206054688 335 l 1
 334 0 l 1
 27 0 l 9
 481.930664062 536 l 1
 273.073242188 1073 l 9
 563.073242188 1073 l 1
 682.9296875 743 l 0
 940.073242188 1073 l 1
 1254.07324219 1073 l 1
 795.84375 545 l 0
 1021 0 l 1
EndSplineSet
EndChar

StartChar: y
Encoding: 121 121 45
Width: 1106
Flags: HW
HStem: -465 232<407.3 690.7> -29 235.11<428 606.1> 1053 20G<108 366 744 1003>
VStem: 108 258<178.5 1073> 745 258<-200.7 161 180.8 1073>
LayerCount: 2
Back
SplineSet
283.376 -183.838 m 0
 325.527 -261.986 409.975 -313.344 501.76 -313.344 c 0
 626.688 -313.344 743.424 -225.28 743.424 -32.7676 c 0
 743.424 145.408 l 17
 708.608 83.9678 636.928 -16.3838 491.521 -16.3838 c 0
 235.52 -16.3838 108.544 198.656 108.544 456.704 c 0
 108.544 1073.15 l 1
 260.096 1073.15 l 0
 260.096 460.8 l 0
 260.096 288.768 370.688 120.832 481.28 120.832 c 1
 608.256 120.832 743.424 247.808 743.424 419.84 c 0
 743.424 1073.15 l 9
 894.976 1073.15 l 1
 894.976 425.984 l 1
 894.976 -18.4316 l 2
 894.976 -290.816 712.704 -448.512 509.952 -448.512 c 1
 328.475 -448.512 217.541 -351.877 160.556 -247.556 c 1
 283.376 -183.838 l 0
EndSplineSet
Fore
SplineSet
996.8359375 -29 m 2
 950.7109375 -246 671.161132812 -465 456.161132812 -465 c 1
 245.161132812 -465 124.030273438 -348 92.3876953125 -224 c 1
 320.193359375 -112 l 0
 329.314453125 -182 390.474609375 -233 499.474609375 -233 c 0
 608.474609375 -233 709.290039062 -168 732.458984375 -59 c 1
 779.221679688 161 l 17
 700.116210938 57 558.8359375 -29 421.8359375 -29 c 0
 229.8359375 -29 141.159179688 156 221.717773438 535 c 1
 336.073242188 1073 l 1
 594.073242188 1073 l 0
 479.930664062 536 l 2
 421.477539062 261 509.787109375 206 589.787109375 206 c 0
 669.787109375 206 799.90234375 263 858.142578125 537 c 2
 972.073242188 1073 l 9
 1231.07324219 1073 l 1
 1009.1640625 29 l 1
 996.8359375 -29 l 2
EndSplineSet
EndChar

StartChar: z
Encoding: 122 122 46
Width: 1005
Flags: HW
HStem: 0 240<483 889> 834 239<115 502>
VStem: 66 855<0 1073>
LayerCount: 2
Back
SplineSet
331.776 141.312 m 1
 866.304 141.312 l 1
 866.304 0 l 1
 79.8721 0 l 1
 624.64 931.84 l 2
 100.352 931.84 l 1
 100.352 1073.15 l 1
 876.544 1073.15 l 1
 331.776 141.312 l 1
EndSplineSet
Fore
SplineSet
534.013671875 240 m 1
 940.013671875 240 l 1
 889 0 l 1
 66 0 l 1
 679.272460938 834 l 2
 292.272460938 834 l 1
 343.073242188 1073 l 1
 1149.07324219 1073 l 1
 534.013671875 240 l 1
EndSplineSet
EndChar

StartChar: multiply
Encoding: 215 215 52
Width: 833
Flags: HW
LayerCount: 2
Fore
SplineSet
159.350585938 458 m 1
 386.524414062 647 l 1
 215.5859375 859 l 1
 420.93359375 1030 l 1
 590.87109375 818 l 1
 835.4453125 1023 l 1
 970.5234375 854 l 1
 724.94921875 649 l 1
 887.225585938 448 l 1
 682.877929688 277 l 1
 521.814453125 479 l 1
 294.428710938 289 l 1
 159.350585938 458 l 1
EndSplineSet
EndChar

StartChar: Oslash
Encoding: 216 216 53
Width: 2478
Flags: HW
HStem: -29 242<640.457 1058.8> 1249 240<363.5 786.865>
VStem: 100 281<626.144 1031.2> 1047 282<480 893.883>
LayerCount: 2
Back
SplineSet
533.795 -28.6719 m 5
 247.128 -28.6719 l 5
 901.745 1515.5 l 4
 1169.41 1515.52 l 5
 533.795 -28.6719 l 5
1046.53 753.664 m 0
 1046.53 980.853 972.04 1249.28 714.752 1249.28 c 0
 459.416 1249.28 382.976 980.853 382.976 753.664 c 1
 382.976 506.839 461.042 212.992 714.752 212.992 c 1
 970.412 212.992 1046.53 506.839 1046.53 753.664 c 0
100.352 753.664 m 1
 100.352 1074.34 264.192 1488.9 714.752 1488.9 c 1
 1167.39 1488.9 1329.15 1074.34 1329.15 753.664 c 1
 1329.15 412.53 1165.23 -28.6719 714.752 -28.6719 c 1
 266.349 -28.6719 100.352 412.53 100.352 753.664 c 1
EndSplineSet
Fore
SplineSet
543.724609375 -6 m 1
 525.8359375 -29 l 1
 241.8359375 -29 l 1
 343.6953125 135 l 1
 231.303710938 279 216.693359375 549 254.528320312 727 c 1
 332.961914062 1096 586.497070312 1489 1037.49707031 1489 c 1
 1093.49707031 1489 1154.00878906 1482 1192.60839844 1466 c 1
 1206.34667969 1493 l 0
 1478.34667969 1493 l 1
 1386.52636719 1348 l 1
 1525.3671875 1192 1531.35351562 952 1483.52832031 727 c 1
 1427.4140625 463 1183.8359375 -29 708.8359375 -29 c 1
 650.8359375 -29 591.749023438 -20 543.724609375 -6 c 1
684.400390625 223 m 1
 710.549804688 219 716.274414062 213 758.274414062 213 c 1
 1024.27441406 213 1161.14257812 537 1201.52832031 727 c 0
 1228.31054688 853 1237.20410156 956 1211.79785156 1067 c 1
 684.400390625 223 l 1
530.548828125 426 m 1
 1047.78222656 1241 l 1
 1028.20800781 1243 1023.48339844 1249 986.483398438 1249 c 1
 711.483398438 1249 585.266601562 961 535.528320312 727 c 1
 521.712890625 662 510.553710938 506 530.548828125 426 c 1
EndSplineSet
EndChar

StartChar: Thorn
Encoding: 222 222 57
Width: 1384
Flags: HW
HStem: 0 21G<135 403> 287 239<403 652.6> 961 238<403 604.5> 1436 20G<135 403>
VStem: 135 268<0 287 526 961 1199 1456> 805 267<514.7 997>
LayerCount: 2
Back
SplineSet
292.454 477.103 m 1
 562.954 477.103 859.341 530.35 859.341 749.731 c 1
 859.341 984.023 511.836 1009.58 292.454 1009.58 c 1
 292.454 477.103 l 1
135.168 1456.13 m 0
 292.454 1456.13 l 1
 292.454 1150.16 l 1
 667.32 1150.16 1016.63 1067.09 1016.63 749.731 c 0
 1016.63 406.814 660.931 336.527 292.454 336.527 c 1
 292.454 0 l 1
 135.168 0 l 1
 135.168 1456.13 l 0
EndSplineSet
Fore
SplineSet
514.8046875 526 m 1
 706.8046875 526 925.944335938 569 964.416992188 750 c 1
 1004.80273438 940 762.266601562 961 607.266601562 961 c 1
 514.8046875 526 l 1
444.482421875 1456 m 0
 712.482421875 1456 l 1
 657.85546875 1199 l 1
 1003.85546875 1199 1307.08789062 1106 1231.41699219 750 c 0
 1149.58300781 365 804.00390625 287 464.00390625 287 c 1
 403 0 l 1
 135 0 l 1
 444.482421875 1456 l 0
EndSplineSet
EndChar

StartChar: germandbls
Encoding: 223 223 58
Width: 1261
Flags: HW
HStem: -29 224<534.5 815.3> 649 195<535 702.7> 1294 234<453.106 820.5>
VStem: 848 254<832.5 1271.9> 907 251<204 571.9>
LayerCount: 2
Back
SplineSet
164.188 1151.75 m 1
 252.784 1347.93 389.775 1478.72 645.018 1478.72 c 1
 893.932 1478.72 1098.42 1328.95 1089.99 1073.71 c 1
 1089.99 879.637 889.713 778.384 769.475 746.742 c 1
 883.385 719.319 1106.86 601.19 1106.86 398.685 c 1
 1106.86 120.238 891.822 -29.5322 600.72 -29.5322 c 1
 535.327 -29.5322 482.591 -10.5479 415.089 23.2041 c 9
 505.795 145.552 l 17
 539.546 132.894 571.188 109.69 600.72 109.69 c 1
 796.897 109.69 959.447 196.178 959.447 398.685 c 1
 959.447 548.454 737.833 679.24 541.655 679.24 c 1
 505.795 679.24 l 2
 493.138 679.24 480.481 679.24 463.605 672.911 c 1
 463.605 824.791 l 1
 478.372 820.572 488.919 820.572 499.466 820.572 c 2
 541.655 820.572 l 1
 712.52 820.572 940.462 917.606 940.462 1073.71 c 1
 940.462 1259.34 826.43 1341.6 645.018 1341.6 c 1
 440.402 1341.6 349.573 1238.24 305.274 1105.35 c 1
 235.663 902.84 248.32 310.088 229.335 0 c 1
 81.9199 0 l 1
 113.562 360.714 88.248 993.546 164.188 1151.75 c 1
EndSplineSet
Fore
SplineSet
426.821289062 1260 m 1xf0
 549.318359375 1427 721.786132812 1528 969.786132812 1528 c 1
 1248.78613281 1528 1386.40039062 1338 1330.07324219 1073 c 1xf0
 1289.26269531 881 1171.34472656 792 1096.03125 767 c 1
 1163.0546875 753 1286.171875 603 1242.81054688 399 c 1
 1181.59375 111 932.8359375 -29 611.8359375 -29 c 1
 525.8359375 -29 451.749023438 -20 419.888671875 23 c 9
 561.038085938 226 l 17
 574.63671875 210 589.448242188 195 634.448242188 195 c 1
 805.448242188 195 959.926757812 249 991.810546875 399 c 1xe8
 1020.08007812 532 907.94921875 649 678.94921875 649 c 1
 643.94921875 649 l 2
 653.94921875 649 645.374023438 651 667.514648438 694 c 1
 714.397460938 844 l 1
 843.397460938 844 1036.75 888 1076.07324219 1073 c 0
 1108.59472656 1226 1055.04785156 1294 920.047851562 1294 c 1
 772.047851562 1294 683.444335938 1230 621.314453125 1140 c 0
 530.256835938 1008 384.796875 159 295 0 c 1
 62 0 l 1
 162.796875 159 288.286132812 1074 426.821289062 1260 c 1xf0
EndSplineSet
EndChar

StartChar: ae
Encoding: 230 230 63
Width: 1764
Flags: HW
HStem: -29 230<1109.43 1285.27> -29 220<376.4 636> 469 182<993 1406> 524 217<376.4 631.303> 868 230<1035.2 1364.1> 897 205<342 602>
VStem: 90 242<244.2 467.8> 727 265<244.2 469>
LayerCount: 2
Back
SplineSet
208 294 m 0xb8
 134 294 110 236 110 173 c 0
 110 110 134 52 208 52 c 0
 270 52 306 108 306 173 c 1
 306 238 270 294 208 294 c 0xb8
347.172 444.129 m 1
 381.085 499.773 413.985 534 484 534 c 0
 614 534 667 416 667 262 c 0
 667 251.234 665.469 240.156 665.469 229 c 1
 377.297 229 l 1xd8
 377.297 182 389 52 484 52 c 0
 530.016 52 542.375 79.3281 563.422 118.484 c 0
 628.344 91.6094 l 0
 594.984 27.0625 559.422 -14 484 -14 c 0
 405.844 -14 380.021 27.0371 346 80 c 1
 320 34 302 -14 208 -14 c 0
 98 -14 36 68 36 173 c 0
 36 278 108 360 208 360 c 0
 270.223 360 289 337 308 309 c 1
 308.915 317.082 305.915 330.206 307.264 337.988 c 1
 307.264 409.284 281.354 466 210 466 c 0
 164 466 142 450 120 428 c 9
 82 478 l 0
 116 506 140 532 210 532 c 0
 273.279 532 313.223 501.687 347.172 444.129 c 1
377.364 295 m 1
 591.344 295 l 1
 582.672 381.516 562.031 468 484 468 c 0
 404 468 379 369 377.364 295 c 1
EndSplineSet
Fore
SplineSet
646.379882812 524 m 0x53
 524.379882812 524 425.950195312 442 407.669921875 356 c 0
 389.390625 270 453.598632812 191 575.598632812 191 c 0
 697.598632812 191 784.390625 270 802.669921875 356 c 0
 820.950195312 442 768.379882812 524 646.379882812 524 c 0x53
1250.72363281 201 m 0xab
 1309.72363281 201 1370.97460938 221 1418.75292969 267 c 1
 1625.921875 169 l 1
 1512.07714844 38 1334.8359375 -29 1201.8359375 -29 c 0xab
 1118.8359375 -29 1045.72460938 -6 985.439453125 35 c 1
 978 0 l 1
 721 0 l 1
 749.907226562 136 l 1
 708.328125 58 587.8359375 -29 447.8359375 -29 c 0
 245.8359375 -29 118.907226562 136 166.095703125 358 c 0
 213.283203125 580 409.504882812 741 607.504882812 741 c 0
 746.504882812 741 833.224609375 655 841.645507812 577 c 1
 841.857421875 578 842.920898438 583 844.833007812 592 c 0
 848.447265625 609 854.3984375 637 858.862304688 658 c 1
 902.223632812 862 762.663085938 897 662.663085938 897 c 0
 562.663085938 897 494.499023438 868 435.397460938 844 c 1
 367.256835938 1008 l 1
 436.459960938 1056 599.237304688 1102 706.237304688 1102 c 0x57
 859.237304688 1102 998.09765625 1059 1069.71582031 949 c 1
 1175.69628906 1043 1304.38671875 1098 1432.38671875 1098 c 0
 1699.38671875 1098 1838.79882812 860 1770.14257812 537 c 2
 1755.68945312 469 l 1
 1091.68945312 469 l 1
 1048.01367188 240 1174.72363281 201 1250.72363281 201 c 0xab
1131.37402344 651 m 1
 1544.37402344 651 l 1
 1559.18066406 763 1510.49902344 868 1383.49902344 868 c 0
 1257.49902344 868 1162.54296875 760 1131.37402344 651 c 1
EndSplineSet
EndChar

StartChar: icircumflex
Encoding: 238 238 70
Width: 546
Flags: HW
HStem: 0 21G<139 408> 1053 20G<139 408> 1146 344<156 676>
VStem: -128 804<1146 1149> 139 269<0 1073>
LayerCount: 2
Fore
SplineSet
367.073242188 1073 m 1xe8
 636.073242188 1073 l 1
 408 0 l 1
 139 0 l 1
 367.073242188 1073 l 1xe8
EndSplineSet
Refer: 117 94 S 1 0 0.212557 1 -250.425 -2 2
EndChar

StartChar: idieresis
Encoding: 239 239 71
Width: 548
Flags: HW
HStem: 0 21G<139 408> 1053 20G<139 408> 1159 328<-69 166.3 402 637.3>
VStem: -116 328<1206 1441.3> 139 269<0 1073> 355 328<1206 1441.3>
LayerCount: 2
Fore
SplineSet
367.073242188 1073 m 1xe8
 636.073242188 1073 l 1
 408 0 l 1
 139 0 l 1
 367.073242188 1073 l 1xe8
EndSplineSet
Refer: 14 46 S 1 0 0.212557 1 73.3674 1192 2
Refer: 14 46 S 1 0 0.212557 1 544.367 1192 2
EndChar

StartChar: eth
Encoding: 240 240 72
Width: 1062
Flags: HW
HStem: -49 229<414.9 635.9> 723 229<369.7 607.6> 1291.57 199.33<195.745 400.213>
VStem: 72 258<218.7 626.9> 692 258<278.5 566.699 569.243 672.4>
LayerCount: 2
Back
SplineSet
223.232 454.656 m 0
 223.232 223.232 380.928 106.496 481.28 106.496 c 0
 634.88 106.496 765.952 278.528 765.952 454.656 c 1
 765.952 647.168 593.92 790.528 442.368 790.528 c 1
 319.488 790.528 223.232 604.16 223.232 454.656 c 0
673.792 1290.24 m 1
 759.808 1191.94 892.928 983.04 905.216 800.768 c 1
 912.066 700.045 920.203 627.63 917.504 501.76 c 1
 917.504 192.512 727.124 -28.6719 491.521 -28.6719 c 0
 188.416 -28.6719 71.6797 202.752 71.6797 458.752 c 0
 71.6797 716.8 237.568 925.696 452.608 925.696 c 0
 622.592 925.696 673.792 845.824 749.568 778.24 c 1
 749.568 892.928 655.36 1120.26 561.152 1204.22 c 1
 407.552 1060.86 l 1
 309.248 1161.22 l 1
 444.416 1290.24 l 1
 391.168 1308.67 337.92 1314.82 284.672 1314.82 c 0
 245.76 1314.82 206.848 1310.72 169.984 1306.62 c 1
 155.648 1454.08 l 1
 182.272 1456.13 210.944 1456.13 237.568 1456.13 c 0
 350.208 1456.13 460.8 1439.74 565.248 1386.5 c 1
 720.896 1525.76 l 1
 817.152 1417.22 l 1
 673.792 1290.24 l 1
EndSplineSet
Fore
SplineSet
429.263671875 467 m 0
 388.666015625 276 473.259765625 180 540.259765625 180 c 0
 643.259765625 180 760.443359375 322 791.263671875 467 c 1
 824.84765625 625 730.678710938 723 628.678710938 723 c 1
 547.678710938 723 455.408203125 590 429.263671875 467 c 0
1006.23242188 1229 m 1
 1064.1015625 1139 1130.16503906 937 1105.66894531 770 c 1
 1101.97753906 715 1094.5625 666 1082.65917969 610 c 0
 1076.0703125 579 1067.84375 545 1057.55371094 506 c 1
 988.685546875 182 742.584960938 -49 497.584960938 -49 c 0
 182.584960938 -49 114.0859375 198 172.114257812 471 c 0
 230.9921875 748 453.353515625 952 685.353515625 952 c 0
 788.353515625 952 859.07421875 866 890.833007812 799 c 1
 906.13671875 871 865.971679688 1049 813.9375 1110 c 1
 707.5078125 1028 l 1
 588.2421875 1182 l 1
 687.758789062 1255 l 1
 665.009765625 1275 647.41015625 1291 558.623046875 1292 c 0
 556.623046875 1292 l 0
 515.623046875 1292 477.772460938 1288 448.497070312 1282 c 1
 469.520507812 1475 l 1
 505.284179688 1488 574.708984375 1490 620.921875 1491 c 0
 625.921875 1491 l 0
 752.921875 1491 846.231445312 1436 883.791992188 1401 c 1
 1026.38574219 1512 l 1
 1150.0625 1327 l 1
 1006.23242188 1229 l 1
EndSplineSet
EndChar

StartChar: oslash
Encoding: 248 248 79
Width: 1044
Flags: HW
HStem: -29 230<514.772 722.3> 870 230<390.8 616.047>
VStem: 92 260<447.059 740> 776 260<322.7 636.035>
LayerCount: 2
Back
SplineSet
53.248 -28.6719 m 29
 798.72 1101.82 l 25
 1060.86 1097.73 l 25
 339.968 -28.6719 l 25
 53.248 -28.6719 l 29
92.1602 536.576 m 0
 92.1602 862.404 288.516 1099.78 565.248 1099.78 c 0
 840.669 1099.78 1036.29 862.404 1036.29 536.576 c 0
 1036.29 212.042 840.669 -28.6719 565.248 -28.6719 c 1
 288.516 -28.6719 92.1602 212.042 92.1602 536.576 c 0
352.256 536.576 m 0
 352.256 375.544 446.976 200.704 565.248 200.704 c 0
 690.08 200.704 776.192 375.544 776.192 536.576 c 0
 776.192 697.87 682.111 870.4 565.248 870.4 c 0
 446.976 870.4 352.256 697.87 352.256 536.576 c 0
EndSplineSet
Fore
SplineSet
898.973632812 635 m 1
 546.974609375 221 l 1
 560.211914062 208 583.723632812 201 607.723632812 201 c 0
 728.723632812 201 854.858398438 371 889.080078125 532 c 0
 894.181640625 556 903.108398438 598 898.973632812 635 c 1
813.672851562 850 m 1
 800.798828125 860 784.923828125 870 762.923828125 870 c 0
 618.923828125 870 499.088867188 692 465.080078125 532 c 0
 460.19140625 509 453.98828125 461 458.950195312 442 c 1
 813.672851562 850 l 1
46.8359375 -29 m 1
 227.834960938 178 l 1
 189.989257812 254 175.53515625 393 205.080078125 532 c 1
 274.798828125 860 507.8125 1100 811.8125 1100 c 0
 865.8125 1100 952.348632812 1079 989.396484375 1051 c 1
 1032.23730469 1102 l 1
 1295.23730469 1102 l 1
 1125.08789062 899 l 1
 1167.38378906 811 1179.68847656 676 1149.08007812 532 c 0
 1080.21191406 208 829.8359375 -29 562.8359375 -29 c 1
 501.8359375 -29 417.024414062 -14 374.826171875 18 c 1
 333.8359375 -29 l 1
 46.8359375 -29 l 1
EndSplineSet
EndChar

StartChar: thorn
Encoding: 254 254 83
Width: 1093
Flags: HW
HStem: 0 21G<119 377> 117 229<437.4 679.2> 1102 229<471.2 671> 1434 20G<119 377>
VStem: 119 258<0 258 1159 1454> 756 258<414.6 1003.5>
LayerCount: 2
Back
SplineSet
270.336 0 m 17
 118.784 0 l 1
 118.784 1454.08 l 1
 270.336 1454.08 l 1
 270.336 1112.06 l 17
 335.872 1206.27 405.504 1284.1 550.912 1284.1 c 0
 802.816 1284.1 923.648 1015.81 923.648 733.184 c 0
 923.648 450.56 835.584 163.84 512 163.84 c 1
 348.16 163.84 270.336 311.296 270.336 311.296 c 0
 270.336 311.296 270.336 121.406 270.336 0 c 17
772.096 729.088 m 0
 772.096 962.561 688.128 1148.93 561.152 1148.93 c 1
 421.888 1148.93 266.24 987.136 266.24 729.088 c 1
 266.24 438.272 409.6 299.008 522.24 299.008 c 0
 671.744 299.008 772.096 454.656 772.096 729.088 c 0
EndSplineSet
Fore
SplineSet
377 0 m 17
 119 0 l 1
 428.057617188 1454 l 1
 686.057617188 1454 l 1
 623.353515625 1159 l 17
 669.232421875 1229 782.913085938 1331 878.913085938 1331 c 0
 1146.91308594 1331 1235.69628906 1043 1171.07910156 739 c 0
 1105.39941406 430 927.869140625 117 594.869140625 117 c 1
 492.869140625 117 441.25 227 431.83984375 258 c 1
 431.83984375 258 398.467773438 101 377 0 c 17
915.416992188 750 m 0
 956.866210938 945 881.237304688 1102 801.237304688 1102 c 1
 699.237304688 1102 567.740234375 935 528.629882812 751 c 1
 474.427734375 496 536.544921875 346 630.544921875 346 c 0
 724.544921875 346 860.578125 492 915.416992188 750 c 0
EndSplineSet
EndChar

StartChar: Euro
Encoding: 8364 8364 87
Width: 1271
Flags: HW
HStem: -0.00190363 89.302<608.829 999.008> 401.78 89.3027<126.46 269.075 377.042 969.478> 580.386 89.3027<129.611 269.075 376.964 1043.27> 982.168 89.3022<609.274 996.499>
VStem: 267.265 89.3025<491.084 580.386>
LayerCount: 2
Back
SplineSet
259.896 761.856 m 1
 131.072 761.856 l 1
 131.072 897.024 l 1
 283.875 897.024 l 1
 334.093 1068.98 455.209 1196.03 626.688 1196.03 c 0
 786.432 1196.03 847.872 1155.07 942.08 1062.91 c 9
 845.824 966.656 l 2
 788.48 1024 745.472 1060.86 626.688 1060.86 c 1
 542.262 1060.86 478.305 987.761 440.492 897.024 c 1
 710.656 897.024 l 1
 710.656 761.856 l 1
 404.933 761.856 l 1
 402.598 742.933 401.408 724.355 401.408 706.561 c 0
 401.408 685.201 402.559 664.713 404.72 645.12 c 1
 704.512 645.12 l 1
 704.512 509.952 l 1
 439.923 509.952 l 1
 486.666 403.348 566.669 346.112 626.688 346.112 c 0
 712.704 346.112 763.904 362.496 849.92 456.704 c 9
 946.176 360.448 l 1
 878.592 282.624 817.152 210.944 626.688 210.944 c 1
 441.516 210.944 330.388 340.519 283.775 509.952 c 1
 124.928 509.952 l 1
 124.928 645.12 l 1
 260.602 645.12 l 1
 258.894 666.777 258.048 688.671 258.048 710.656 c 0
 258.048 727.88 258.669 744.966 259.896 761.856 c 1
EndSplineSet
Fore
SplineSet
1023.8984375 1071.46972656 m 0
 1030.828125 1071.46972656 l 0
 1178.4609375 1071.46972656 1293.48339844 1019.33789062 1375.89453125 915.073242188 c 0
 1318.984375 824.038085938 l 0
 1252.09863281 929.458007812 1149.71972656 982.16796875 1011.84570312 982.16796875 c 0
 1006.01757812 982.16796875 l 0
 1003.734375 982.16796875 l 0
 906.296875 980.444335938 813.1015625 950.51953125 724.150390625 892.39453125 c 128
 635.19921875 834.2734375 566.918945312 760.037109375 519.310546875 669.688476562 c 0
 1222.46679688 669.688476562 l 0
 1166.63476562 580.385742188 l 0
 895.939453125 580.385742188 l 0
 482.13671875 580.385742188 l 0
 477.52734375 565.616210938 473.62890625 550.732421875 470.440429688 535.734375 c 128
 467.25390625 520.73828125 464.825195312 505.85546875 463.155273438 491.083007812 c 0
 1110.79296875 491.083007812 l 0
 1054.87890625 401.780273438 l 0
 462.443359375 401.780273438 l 0
 471.797851562 310.126953125 509.391601562 235.133789062 575.224609375 176.80078125 c 128
 641.055664062 118.466796875 723.334960938 89.2998046875 822.061523438 89.2998046875 c 0
 960.227539062 89.2998046875 1085.2109375 142.193359375 1197.00976562 247.981445312 c 0
 1170.39550781 122.768554688 l 0
 1054.06054688 40.921875 931.622070312 -0.001953125 803.080078125 -0.001953125 c 0
 679.578125 -0.001953125 577.759765625 37.7802734375 497.625 113.34375 c 128
 417.490234375 188.91015625 374.788085938 285.055664062 369.518554688 401.78125 c 0
 175.005859375 401.78125 l 0
 230.842773438 491.083984375 l 0
 373.458007812 491.083984375 l 0
 375.35546875 505.685546875 377.915039062 520.569335938 381.138671875 535.735351562 c 128
 384.358398438 550.881835938 388.125976562 565.765625 392.440429688 580.38671875 c 0
 214.624023438 580.38671875 l 0
 271.958007812 669.689453125 l 0
 426.543945312 669.689453125 l 0
 480.903320312 785.267578125 563.458984375 880.73828125 674.209960938 956.1015625 c 128
 784.9609375 1031.46777344 901.5234375 1069.92285156 1023.8984375 1071.46972656 c 0
EndSplineSet
EndChar

StartChar: A
Encoding: 65 65 88
Width: 1421
Flags: HW
HStem: 0 21G<20 338.12 1058.88 1377> 382 239<526 873> 1436 20G<535.816 861.184>
LayerCount: 2
Back
SplineSet
651.264 1255.42 m 5
 452.608 620.544 l 5
 851.968 620.544 l 5
 651.264 1255.42 l 5
897.024 505.856 m 5
 399.36 505.856 l 4
 227.328 0 l 4
 61.4404 0 l 5
 585.729 1456.13 l 4
 585.729 1456.13 663.184 1456.13 712.704 1456.13 c 21
 1236.99 0 l 5
 1067.01 0 l 5
 897.024 505.856 l 5
EndSplineSet
Fore
SplineSet
938.9140625 1124 m 0
 657.998046875 621 l 1
 1004.99804688 621 l 1
 938.9140625 1124 l 0
1163.48242188 1456 m 1
 1377 0 l 1
 1066 0 l 0
 1011.19628906 382 l 1
 857.196289062 382 702.196289062 382 548.196289062 382 c 1
 331 0 l 0
 20 0 l 1
 852.482421875 1456 l 1
 1163.48242188 1456 l 1
EndSplineSet
EndChar

StartChar: B
Encoding: 66 66 89
Width: 1222
Flags: HMW
LayerCount: 2
Back
SplineSet
276.48 706.561 m 1xf4
 276.48 141.312 l 1
 595.968 141.312 l 1
 888.832 141.312 927.744 299.008 927.744 430.08 c 0
 927.744 563.2 835.584 704.512 595.968 704.512 c 1
 569.344 704.512 309.248 706.561 276.48 706.561 c 1xf4
276.48 1316.86 m 1
 276.48 845.824 l 1
 315.392 845.824 481.28 843.776 514.048 843.776 c 1
 837.632 843.776 847.872 1007.62 847.872 1085.44 c 1xf8
 847.872 1173.5 817.152 1314.82 493.568 1314.82 c 1
 462.848 1314.82 313.344 1316.86 276.48 1316.86 c 1
118.784 1456.13 m 1
 493.568 1456.13 l 1
 933.888 1456.13 1007.62 1241.09 1007.62 1085.44 c 1xf8
 1007.62 921.6 862.208 782.336 753.664 782.336 c 1
 999.424 782.336 1083.39 542.72 1083.39 423.936 c 1xf4
 1083.39 286.72 1040.38 0 595.968 0 c 1
 118.784 0 l 1
 118.784 1456.13 l 1
EndSplineSet
Fore
SplineSet
518.611328125 638 m 1
 434.013671875 240 l 1
 661.013671875 240 l 1
 884.013671875 240 961.994140625 334 984.3125 439 c 0
 1006.63085938 544 968.611328125 638 745.611328125 638 c 1
 518.611328125 638 l 1
641.46875 1216 m 1
 569.625 878 l 1
 737.625 878 l 1
 938.625 878 1012.33007812 966 1029.12207031 1045 c 1
 1045.9140625 1124 1010.46875 1216 809.46875 1216 c 1
 785.46875 1216 670.46875 1216 641.46875 1216 c 1
424.482421875 1456 m 1
 860.482421875 1456 l 1
 1308.48242188 1456 1334.10644531 1219 1302.43554688 1070 c 1
 1269.70214844 916 1158.05957031 833 1035.40722656 797 c 1
 1229.77929688 747 1276.96875 555 1252.3125 439 c 1
 1219.57910156 285 1086 0 640 0 c 1
 115 0 l 1
 424.482421875 1456 l 1
EndSplineSet
EndChar

StartChar: C
Encoding: 67 67 90
Width: 1409
Flags: HW
HStem: -29 240<561.905 855.105> 1245 240<561.905 852.426>
VStem: 100 283<447.78 1006.98> 1002.2 294.26<372.01 483 969 1080.05>
LayerCount: 2
Back
SplineSet
1047 726 m 4
 1047 483 970 211 715 211 c 5
 461 211 383 483 383 726 c 5
 383 973 461 1245 715 1245 c 5
 970 1245 1047 973 1047 726 c 4
100 726 m 5
 100 389 266 -29 715 -29 c 5
 1165 -29 1329 389 1329 726 c 5
 1329 1067 1165 1485 715 1485 c 5
 266 1485 100 1067 100 726 c 5
EndSplineSet
Fore
SplineSet
1207.96777344 969 m 4
 1207.74902344 1095 1137.6328125 1245 979.6328125 1245 c 5
 725.6328125 1245 589.817382812 973 537.31640625 726 c 5
 485.665039062 483 505.849609375 211 759.849609375 211 c 5
 917.849609375 211 1050.8828125 357 1104.66503906 483 c 4
 1398.66503906 483 l 4
 1320.3515625 251 1055.8359375 -29 708.8359375 -29 c 5
 259.8359375 -29 182.684570312 389 254.31640625 726 c 5
 326.797851562 1067 581.646484375 1485 1030.64648438 1485 c 5
 1378.64648438 1485 1522.06835938 1200 1502.96777344 969 c 4
 1207.96777344 969 l 4
EndSplineSet
EndChar

StartChar: D
Encoding: 68 68 91
Width: 1273
Flags: HW
HStem: 0 240<383 693.249> 1217 239<383 698.73>
VStem: 115 268<240 1217> 913 283<500.701 978.236>
LayerCount: 2
Back
SplineSet
980.992 727.04 m 1
 980.992 1075.2 796.672 1314.82 538.624 1314.82 c 1
 272.384 1314.82 l 1
 272.384 141.312 l 1
 538.624 141.312 l 1
 796.672 141.312 980.992 380.928 980.992 727.04 c 1
1146.88 727.04 m 1
 1146.88 319.488 899.072 0 538.624 0 c 1
 114.688 0 l 1
 114.688 1456.13 l 1
 538.624 1456.13 l 1
 905.216 1456.13 1146.88 1136.64 1146.88 727.04 c 1
EndSplineSet
Fore
SplineSet
1072.84277344 752 m 1
 1129.80761719 1020 1020.68164062 1217 780.681640625 1217 c 1
 641.681640625 1217 l 1
 434.013671875 240 l 1
 573.013671875 240 l 1
 813.013671875 240 1006.95019531 442 1072.84277344 752 c 1
1355.84277344 752 m 1
 1264.65625 323 946 0 582 0 c 1
 115 0 l 1
 424.482421875 1456 l 1
 891.482421875 1456 l 1
 1261.48242188 1456 1438.52734375 1141 1355.84277344 752 c 1
EndSplineSet
EndChar

StartChar: E
Encoding: 69 69 92
Width: 1211
Flags: HW
HStem: 0 240<383 1097> 626 240<383 1034> 1216 240<383 1097>
VStem: 115 268<240 626 866 1216>
LayerCount: 2
Back
SplineSet
114.688 1456.13 m 0
 1036.29 1456.13 l 1
 1036.29 1314.82 l 0
 272.384 1314.82 l 0
 272.384 817.152 l 1
 993.28 817.152 l 1
 993.28 675.84 l 0
 272.384 675.84 l 0
 272.384 141.312 l 0
 1036.29 141.312 l 0
 1036.29 0 l 0
 114.688 0 l 1
 114.688 1456.13 l 0
EndSplineSet
Fore
SplineSet
424.482421875 1456 m 0
 1406.48242188 1456 l 1
 1355.46875 1216 l 0
 641.46875 1216 l 0
 567.07421875 866 l 1
 1218.07421875 866 l 1
 1167.06054688 626 l 0
 516.060546875 626 l 0
 434.013671875 240 l 0
 1148.01367188 240 l 0
 1097 0 l 0
 115 0 l 1
 424.482421875 1456 l 0
EndSplineSet
EndChar

StartChar: F
Encoding: 70 70 93
Width: 1191
Flags: HMW
LayerCount: 2
Back
SplineSet
114.688 1456.13 m 1
 1036.29 1456.13 l 1
 1036.29 1314.82 l 25
 272.384 1314.82 l 25
 272.384 817.152 l 1
 993.28 817.152 l 1
 993.28 675.84 l 25
 272.384 675.84 l 1
 272.384 0 l 1
 114.688 0 l 1
 114.688 1456.13 l 1
EndSplineSet
Fore
SplineSet
424.482421875 1456 m 1
 1406.48242188 1456 l 1
 1355.68164062 1217 l 25
 641.681640625 1217 l 25
 567.07421875 866 l 1
 1218.07421875 866 l 1
 1167.2734375 627 l 25
 516.2734375 627 l 1
 383 0 l 1
 115 0 l 1
 424.482421875 1456 l 1
EndSplineSet
EndChar

StartChar: G
Encoding: 71 71 94
Width: 1421
Flags: HW
HStem: -27 238<410.1 1034.1> 567 240<707 1010> 1257 240<409.5 791.7>
VStem: 90 283<431.8 1057.1> 1010 278<386.3 661>
LayerCount: 2
Back
SplineSet
690.176 -28.6719 m 0
 251.904 -28.6719 90.1123 389.12 90.1123 731.136 c 1
 90.1123 1071.1 251.904 1495.04 692.224 1495.04 c 0
 915.456 1495.04 1036.29 1400.83 1126.4 1259.52 c 9
 999.424 1191.94 l 2
 937.984 1275.9 811.008 1353.73 692.224 1353.73 c 1
 393.216 1353.73 256 1003.52 256 731.136 c 1
 256 456.704 393.216 110.592 690.176 110.592 c 0
 1003.52 110.592 1067.01 430.08 1067.01 616.448 c 1
 681.984 616.448 l 1
 681.984 757.76 l 1
 1230.85 757.76 l 1
 1230.85 671.744 l 1
 1230.85 356.352 1097.73 -28.6719 690.176 -28.6719 c 0
EndSplineSet
Fore
SplineSet
707.260742188 -27 m 0
 252.260742188 -27 174.384765625 397 251.967773438 762 c 1
 323.8125 1100 576.197265625 1497 1033.19726562 1497 c 0
 1236.19726562 1497 1396.60351562 1386 1439.06835938 1200 c 9
 1162.78808594 1114 l 17
 1157.51757812 1188 1041.18359375 1257 982.18359375 1257 c 1
 747.18359375 1257 583.21875 989 534.967773438 762 c 1
 480.978515625 508 524.849609375 211 757.849609375 211 c 0
 1004.84960938 211 1100.97460938 428 1130.51953125 567 c 1
 827.51953125 567 l 1
 878.533203125 807 l 1
 1459.53320312 807 l 1
 1428.5 661 l 1
 1360.48144531 341 1140.26074219 -27 707.260742188 -27 c 0
EndSplineSet
EndChar

StartChar: H
Encoding: 72 72 95
Width: 1253
Flags: HW
HStem: 0 21G<115 383 868 1138> 624 240<383 868> 1436 20G<115 383 868 1138>
VStem: 115 268<0 624 864 1456> 868 270<0 624 864 1456>
LayerCount: 2
Back
SplineSet
114.688 1456.13 m 0
 272.384 1456.13 l 1
 272.384 815.104 l 1
 933.888 815.104 l 1
 933.888 1456.13 l 1
 1091.58 1456.13 l 1
 1091.58 0 l 1
 933.888 0 l 1
 933.888 673.792 l 0
 272.384 673.792 l 1
 272.384 0 l 1
 114.688 0 l 1
 114.688 1456.13 l 0
EndSplineSet
Fore
SplineSet
424.482421875 1456 m 0
 692.482421875 1456 l 1
 566.6484375 864 l 1
 1051.6484375 864 l 1
 1177.48242188 1456 l 1
 1447.48242188 1456 l 1
 1138 0 l 1
 868 0 l 1
 1000.63574219 624 l 0
 515.635742188 624 l 1
 383 0 l 1
 115 0 l 1
 424.482421875 1456 l 0
EndSplineSet
EndChar

StartChar: I
Encoding: 73 73 96
Width: 555
Flags: HW
HStem: 0 21G<143 411> 1436 20G<143 411>
VStem: 143 268<0 1456>
LayerCount: 2
Back
SplineSet
143.36 0 m 1
 143.36 1456.13 l 1
 301.056 1456.13 l 1
 301.056 0 l 1
 143.36 0 l 1
EndSplineSet
Fore
SplineSet
143 0 m 1
 452.482421875 1456 l 1
 720.482421875 1456 l 1
 411 0 l 1
 143 0 l 1
EndSplineSet
EndChar

StartChar: J
Encoding: 74 74 97
Width: 1243
Flags: HW
HStem: -35 240<477.801 748.315> 1436 20G<860 1128>
VStem: 102 268<340.891 586> 860 268<349.627 1456>
LayerCount: 2
Back
SplineSet
102.4 534.528 m 0
 243.712 534.528 l 1
 243.712 337.92 364.544 129.024 555.008 129.024 c 1
 747.521 129.024 860.16 333.824 860.16 534.528 c 2
 860.16 1456.13 l 1
 1017.86 1456.13 l 1
 1017.86 534.528 l 2
 1017.86 208.896 829.44 -20.4805 555.008 -20.4805 c 1
 282.624 -20.4805 102.4 221.184 102.4 534.528 c 0
EndSplineSet
Fore
SplineSet
226.55859375 586 m 0
 494.55859375 586 l 1
 456.72265625 408 453.57421875 205 659.57421875 205 c 1
 852.57421875 205 945.873046875 404 984.55859375 586 c 2
 1169.48242188 1456 l 1
 1437.48242188 1456 l 1
 1252.55859375 586 l 2
 1175.1875 222 948.560546875 -35 608.560546875 -35 c 1
 250.560546875 -35 151.951171875 235 226.55859375 586 c 0
EndSplineSet
EndChar

StartChar: K
Encoding: 75 75 98
Width: 1333
Flags: HW
HStem: 0 21G<115 383 954 1290> 1436 20G<115 383 926 1261>
VStem: 115 268<0 496 833 1456>
LayerCount: 2
Back
SplineSet
114.688 1456.13 m 0
 272.384 1456.13 l 1
 272.384 747.52 l 1
 980.992 1456.13 l 1
 1167.36 1456.13 l 1
 487.424 753.664 l 1
 1200.13 0 l 1
 1005.57 0 l 1
 376.832 657.408 l 1
 272.384 550.912 l 1
 272.384 0 l 1
 114.688 0 l 1
 114.688 1456.13 l 0
EndSplineSet
Fore
SplineSet
424.482421875 1456 m 0
 692.482421875 1456 l 1
 560.059570312 833 l 1
 1235.48242188 1456 l 1
 1570.48242188 1456 l 1
 876.74609375 808 l 1
 1290 0 l 1
 954 0 l 1
 633.485351562 628 l 1
 488.427734375 496 l 1
 383 0 l 1
 115 0 l 1
 424.482421875 1456 l 0
EndSplineSet
EndChar

StartChar: L
Encoding: 76 76 99
Width: 1170
Flags: HW
HStem: 0 240<383 1099> 1436 20G<115 383>
VStem: 115 268<240 1456>
LayerCount: 2
Back
SplineSet
114.688 1456.13 m 1
 272.384 1456.13 l 1
 272.384 141.312 l 1
 1038.34 141.312 l 1
 1038.34 0 l 1
 114.688 0 l 1
 114.688 1456.13 l 1
EndSplineSet
Fore
SplineSet
424.482421875 1456 m 1
 692.482421875 1456 l 1
 434.013671875 240 l 1
 1150.01367188 240 l 1
 1099 0 l 1
 115 0 l 1
 424.482421875 1456 l 1
EndSplineSet
EndChar

StartChar: M
Encoding: 77 77 100
Width: 1655
Flags: HW
HStem: 0 21G<115 383 683.617 966.487 1272 1540> 1436 20G<115 481.783 1174.1 1540>
VStem: 115 268<0 962> 1272 268<0 962>
LayerCount: 2
Back
SplineSet
65.5361 0 m 1
 65.5361 1456.13 l 2
 280.576 1456.13 l 1
 739.328 208.896 l 2
 1200.13 1456.13 l 1
 1406.98 1456.13 l 1
 1406.98 0 l 1
 1253.38 0 l 25
 1253.38 1204.22 l 1
 825.344 16.3838 l 0
 647.168 16.3838 l 1
 219.136 1204.22 l 0
 219.136 0 l 1
 65.5361 0 l 1
EndSplineSet
Fore
SplineSet
115 0 m 1
 424.482421875 1456 l 2
 784.482421875 1456 l 1
 915.124023438 424 l 2
 1490.48242188 1456 l 1
 1849.48242188 1456 l 1
 1540 0 l 1
 1272 0 l 25
 1476.47949219 962 l 1
 960 0 l 0
 690 0 l 1
 587.479492188 962 l 0
 383 0 l 1
 115 0 l 1
EndSplineSet
EndChar

StartChar: N
Encoding: 78 78 101
Width: 1331
Flags: HW
HStem: 0 21G<115 383 940.304 1216> 1436 20G<115 387.191 948 1216>
VStem: 115 268<0 973> 948 268<516 1456>
LayerCount: 2
Back
SplineSet
118.784 0 m 1
 118.784 1456.13 l 2
 272.384 1456.13 l 1
 1011.71 294.912 l 25
 1011.71 1456.13 l 1
 1169.41 1456.13 l 1
 1169.41 0 l 0
 1024 0 l 1
 276.48 1189.89 l 0
 276.48 0 l 1
 118.784 0 l 1
EndSplineSet
Fore
SplineSet
115 0 m 1
 424.482421875 1456 l 2
 684.482421875 1456 l 1
 1057.67871094 516 l 25
 1257.48242188 1456 l 1
 1525.48242188 1456 l 1
 1216 0 l 0
 952 0 l 1
 589.817382812 973 l 0
 383 0 l 1
 115 0 l 1
EndSplineSet
EndChar

StartChar: O
Encoding: 79 79 102
Width: 1409
Flags: HW
HStem: -29 240<561.905 868.423> 1245 240<561.905 868.423>
VStem: 100 283<448.572 1006.98> 1047 282<443.082 1012.13>
LayerCount: 2
Back
SplineSet
1103.87 724.992 m 0
 1103.87 995.328 1007.62 1353.73 684.032 1353.73 c 0
 362.496 1353.73 266.24 995.328 266.24 724.992 c 1
 266.24 456.704 364.544 110.592 684.032 110.592 c 1
 1005.57 110.592 1103.87 456.704 1103.87 724.992 c 0
100.352 724.992 m 1
 100.352 1046.53 256 1495.04 684.032 1495.04 c 1
 1114.11 1495.04 1269.76 1046.53 1269.76 724.992 c 1
 1269.76 405.504 1112.06 -30.7197 684.032 -30.7197 c 1
 258.048 -30.7197 100.352 405.504 100.352 724.992 c 1
EndSplineSet
Fore
SplineSet
1201.31640625 726 m 4
 1253.81738281 973 1234.6328125 1245 979.6328125 1245 c 5
 725.6328125 1245 589.817382812 973 537.31640625 726 c 5
 485.665039062 483 505.849609375 211 759.849609375 211 c 5
 1014.84960938 211 1149.66503906 483 1201.31640625 726 c 4
254.31640625 726 m 5
 326.797851562 1067 581.646484375 1485 1030.64648438 1485 c 5
 1480.64648438 1485 1555.79785156 1067 1483.31640625 726 c 5
 1411.68457031 389 1158.8359375 -29 708.8359375 -29 c 5
 259.8359375 -29 182.684570312 389 254.31640625 726 c 5
EndSplineSet
EndChar

StartChar: P
Encoding: 80 80 103
Width: 1194
Flags: HW
HStem: 0 21G<115 383> 584 240<383 748.496> 1216 240<383 748.496>
VStem: 115 268<0 584 824 1216> 829 273.68<893.271 1146.77>
LayerCount: 2
Back
SplineSet
278.528 774.145 m 1
 423.936 774.145 l 1
 751.616 774.145 870.4 874.496 870.4 1046.53 c 1
 870.4 1216.51 751.616 1314.82 423.936 1314.82 c 1
 278.528 1314.82 l 1
 278.528 774.145 l 1
120.832 1456.13 m 0
 278.528 1456.13 l 1
 423.936 1456.13 l 1
 798.72 1456.13 1032.19 1302.53 1032.19 1046.53 c 0
 1032.19 794.624 798.72 630.784 423.936 630.784 c 1
 278.528 630.784 l 1
 278.528 0 l 1
 120.832 0 l 1
 120.832 1456.13 l 0
EndSplineSet
Fore
SplineSet
558.146484375 824 m 1
 629.146484375 824 l 0
 867.146484375 824 1008.61035156 845 1045.80761719 1020 c 0
 1083.00488281 1195 950.46875 1216 712.46875 1216 c 0
 641.46875 1216 l 1
 558.146484375 824 l 1
424.482421875 1456 m 0
 692.482421875 1456 l 2
 972.482421875 1456 1411.20703125 1450 1319.80761719 1020 c 0
 1228.62109375 591 787.1328125 584 507.1328125 584 c 1
 383 0 l 1
 115 0 l 1
 424.482421875 1456 l 0
EndSplineSet
EndChar

StartChar: Q
Encoding: 81 81 104
Width: 1437
Flags: HW
HStem: -35 242<377.6 793.6> 1255 240<391.4 1014.1>
VStem: 98 287<460.2 1072.5> 1047 278<623.342 1099.8>
LayerCount: 2
Back
SplineSet
1046.53 753.664 m 4
 1046.53 980.853 972.04 1282.05 714.752 1282.05 c 4
 459.416 1282.05 382.976 980.853 382.976 753.664 c 5
 382.976 506.839 461.042 188.416 714.752 188.416 c 5
 970.412 188.416 1046.53 506.839 1046.53 753.664 c 4
100.352 753.664 m 5
 100.352 1074.34 264.192 1521.66 714.752 1521.66 c 5
 1167.39 1521.66 1329.15 1074.34 1329.15 753.664 c 5
 1329.15 412.53 1165.23 -53.248 714.752 -53.248 c 5
 266.349 -53.248 100.352 412.53 100.352 753.664 c 5
EndSplineSet
Fore
SplineSet
1207.26757812 754 m 1
 1263.80761719 1020 1212.75878906 1255 985.758789062 1255 c 1
 733.758789062 1255 597.34375 999 545.267578125 754 c 1
 497.229492188 528 498.999023438 207 756.999023438 207 c 1
 779.999023438 207 855.849609375 211 897.864257812 244 c 1
 762.9453125 362 l 1
 951.819335938 559 l 1
 1081.97460938 428 l 1
 1127.94042969 489 1186.64941406 657 1207.26757812 754 c 1
258.267578125 754 m 1
 321.609375 1052 571.772460938 1495 1036.77246094 1495 c 1
 1468.77246094 1495 1560.08789062 1106 1485.26757812 754 c 1
 1435.52929688 520 1336.39453125 350 1255.26464844 260 c 1
 1370.22167969 161 l 1
 1179.8359375 -29 l 1
 1070.00488281 80 l 1
 981.975585938 14 848.560546875 -35 701.560546875 -35 c 1
 283.560546875 -35 179.833984375 385 258.267578125 754 c 1
EndSplineSet
EndChar

StartChar: R
Encoding: 82 82 105
Width: 1224
Flags: HW
HStem: -1 21G<115 383 841.057 1158> 581 243<383 533> 1216 239<383 748.604>
VStem: 115 268<-1 581 824 1216> 829 274<894.393 1145.62>
LayerCount: 2
Back
SplineSet
383 824 m 5
 663 824 829 828 829 1020 c 4
 829 1212 663 1216 383 1216 c 5
 383 824 l 5
115 1456 m 4
 383 1456 l 6
 663 1456 1102.68 1449.5 1102.68 1020 c 4
 1102.68 591 663 584 383 584 c 5
 383 0 l 5
 115 0 l 5
 115 1456 l 4
EndSplineSet
Fore
SplineSet
558.146484375 824 m 1
 629.146484375 824 l 0
 867.146484375 824 1008.61035156 845 1045.59472656 1019 c 0
 1082.58007812 1193 950.46875 1216 712.46875 1216 c 0
 641.46875 1216 l 1
 558.146484375 824 l 1
851.787109375 -1 m 1
 656.708007812 582 l 1
 643.495117188 581 621.283203125 580 597.283203125 580 c 0
 565.283203125 580 529.495117188 581 506.495117188 581 c 1
 382.787109375 -1 l 1
 114.787109375 -1 l 1
 424.26953125 1455 l 0
 692.26953125 1455 l 2
 972.26953125 1455 1410.78222656 1448 1319.59472656 1019 c 0
 1276.87109375 818 1147.53808594 680 931.060546875 626 c 1
 1157.78710938 -1 l 1
 851.787109375 -1 l 1
EndSplineSet
EndChar

StartChar: S
Encoding: 83 83 106
Width: 1202
Flags: HW
HStem: -29 242<472.144 776.304> 1251 241<460.444 763.964>
VStem: 135 274<999.001 1198.88> 852 274<283.06 525.087>
LayerCount: 2
Back
SplineSet
88.0645 290.816 m 5
 219.136 370.688 l 5
 309.248 231.424 405.504 110.592 600.064 110.592 c 5
 782.336 110.592 923.648 239.616 923.648 397.312 c 5
 923.648 548.864 776.192 649.216 532.48 712.704 c 4
 354.304 759.808 114.688 847.872 114.688 1095.68 c 5
 114.688 1347.58 342.016 1495.04 575.488 1495.04 c 5
 819.2 1495.04 933.888 1388.54 1028.1 1249.28 c 5
 907.264 1169.41 l 5
 847.872 1271.81 731.136 1353.73 571.392 1353.73 c 5
 417.792 1353.73 276.48 1267.71 276.48 1095.68 c 5
 276.48 913.408 509.952 868.352 643.072 823.296 c 4
 845.824 755.712 1085.44 665.6 1085.44 397.312 c 5
 1085.44 147.456 854.016 -30.7197 600.064 -30.7197 c 5
 380.928 -30.7197 221.184 81.9199 88.0645 290.816 c 5
EndSplineSet
Fore
SplineSet
168.873046875 404 m 1
 446.012695312 447 l 1
 450.71875 328 507.274414062 213 665.274414062 213 c 1
 818.274414062 213 914.491210938 294 937.873046875 404 c 0
 978.68359375 596 756.209960938 622 560.31640625 726 c 0
 439.131835938 791 321.19921875 876 366.686523438 1090 c 1
 424.501953125 1362 690.134765625 1492 937.134765625 1492 c 1
 1167.13476562 1492 1320.2265625 1356 1341.09179688 1186 c 1
 1057.25195312 1135 l 1
 1042.34277344 1206 995.908203125 1251 885.908203125 1251 c 1
 775.908203125 1251 667.043945312 1214 640.686523438 1090 c 0
 610.928710938 950 864.025390625 894 989.997070312 828 c 0
 1147.56738281 746 1262.03613281 640 1211.87304688 404 c 1
 1154.48242188 134 893.8359375 -29 613.8359375 -29 c 1
 336.8359375 -29 152.608398438 144 168.873046875 404 c 1
EndSplineSet
EndChar

StartChar: T
Encoding: 84 84 107
Width: 1353
Flags: HW
HStem: 0 21G<555 823> 1216 240<78 555 823 1280>
VStem: 555 268<0 1216>
LayerCount: 2
Back
SplineSet
77.8242 1456.13 m 0
 1169.41 1456.13 l 1
 1169.41 1314.82 l 0
 712.704 1314.82 l 1
 712.704 0 l 1
 555.008 0 l 1
 555.008 1314.82 l 1
 77.8242 1314.82 l 1
 77.8242 1456.13 l 0
EndSplineSet
Fore
SplineSet
387.482421875 1456 m 0
 1589.48242188 1456 l 1
 1538.46875 1216 l 0
 1081.46875 1216 l 1
 823 0 l 1
 555 0 l 1
 813.46875 1216 l 1
 336.46875 1216 l 1
 387.482421875 1456 l 0
EndSplineSet
EndChar

StartChar: U
Encoding: 85 85 108
Width: 1275
Flags: HW
HStem: -35 240<503.452 771.045>
VStem: 115 268<349.627 586> 892 268<349.627 586>
LayerCount: 2
Back
SplineSet
625 -35 m 5
 966 -35 1138 222 1138 586 c 6
 1138 1456 l 5
 870 1456 l 5
 870 586 l 6
 870 404 819 205 625 205 c 5
 432 205 381 404 381 586 c 6
 381 1456 l 5
 113 1456 l 5
 113 586 l 6
 113 222 285 -35 625 -35 c 5
EndSplineSet
Fore
SplineSet
629.560546875 -35 m 5
 289.560546875 -35 162.1875 222 239.55859375 586 c 6
 424.482421875 1456 l 5
 692.482421875 1456 l 5
 507.55859375 586 l 6
 468.873046875 404 487.57421875 205 680.57421875 205 c 5
 874.57421875 205 977.873046875 404 1016.55859375 586 c 6
 1201.48242188 1456 l 5
 1469.48242188 1456 l 5
 1284.55859375 586 l 6
 1207.1875 222 970.560546875 -35 629.560546875 -35 c 5
EndSplineSet
EndChar

StartChar: V
Encoding: 86 86 109
Width: 1302
Flags: HW
HStem: 0 21G<497 814> 1436 20G<70 359 953 1231>
LayerCount: 2
Back
SplineSet
1011.71 1456.13 m 1
 1175.55 1456.13 l 1
 735.232 0 l 1
 516.096 0 l 1
 69.6318 1456.13 l 1
 239.616 1456.13 l 1
 624.64 167.936 l 1
 1011.71 1456.13 l 1
EndSplineSet
Fore
SplineSet
1262.48242188 1456 m 1
 1540.48242188 1456 l 1
 814 0 l 1
 497 0 l 1
 379.482421875 1456 l 1
 668.482421875 1456 l 1
 741.360351562 411 l 1
 1262.48242188 1456 l 1
EndSplineSet
EndChar

StartChar: W
Encoding: 87 87 110
Width: 1708
Flags: HW
HStem: 0 21G<308.731 635.651 984.349 1311.27> 1436 20G<74 347.651 1272.37 1546>
LayerCount: 2
Back
SplineSet
73.7275 1456.13 m 1
 227.328 1456.13 l 1
 417.792 223.232 l 0
 702.464 1419.26 l 1
 876.544 1419.26 l 0
 1161.22 223.232 l 1
 1351.68 1456.13 l 25
 1505.28 1456.13 l 1
 1275.9 0 l 1
 1056.77 0 l 1
 790.528 1187.84 l 2
 524.288 0 l 1
 301.056 0 l 2
 73.7275 1456.13 l 1
EndSplineSet
Fore
SplineSet
383.482421875 1456 m 1
 654.482421875 1456 l 1
 577.853515625 498 l 0
 956.743164062 1429 l 1
 1270.74316406 1429 l 0
 1252.578125 492 l 1
 1584.48242188 1456 l 25
 1855.48242188 1456 l 1
 1308 0 l 1
 988 0 l 1
 1017.2421875 975 l 2
 632 0 l 1
 312 0 l 2
 383.482421875 1456 l 1
EndSplineSet
EndChar

StartChar: X
Encoding: 88 88 111
Width: 1326
Flags: HW
HStem: 0 21G<50 400.792 897.208 1248> 1435 20G<53 403.779 894.221 1245> 1435 20G<53 403.779 894.221 1245>
LayerCount: 2
Back
SplineSet
922 0 m 25
 67 1455 l 25
1262 0 m 25
 407 1455 l 25
404 0 m 25
 1259 1455 l 25
64 0 m 25
 919 1455 l 25
EndSplineSet
Fore
SplineSet
376.26953125 1455 m 0xc0
 716.26953125 1455 l 1
 871.305664062 980 l 1
 1228.26953125 1455 l 1
 1568.26953125 1455 l 1
 978.166015625 730 l 1
 1262 0 l 1
 922 0 l 1
 765.02734375 480 l 1
 404 0 l 1
 64 0 l 1
 658.166015625 730 l 1
 376.26953125 1455 l 0xc0
EndSplineSet
EndChar

StartChar: Y
Encoding: 89 89 112
Width: 1326
Flags: HW
HStem: 0 21G<530 798> 1435 20G<67 417.779 908.221 1259> 1435 20G<67 417.779 908.221 1259>
VStem: 530 268<0 690>
LayerCount: 2
Back
SplineSet
65.5361 1456.13 m 1
 233.472 1456.13 l 1
 589.824 856.064 l 1
 946.176 1456.13 l 1
 1114.11 1456.13 l 1
 667.648 747.52 l 1
 667.648 0 l 1
 509.952 0 l 1
 509.952 747.52 l 1
 65.5361 1456.13 l 1
EndSplineSet
Fore
SplineSet
376.26953125 1455 m 0xd0
 716.26953125 1455 l 1
 871.305664062 980 l 1
 1228.26953125 1455 l 1
 1568.26953125 1455 l 1
 944.6640625 690 l 1
 798 0 l 1
 530 0 l 1
 676.6640625 690 l 1
 376.26953125 1455 l 0xd0
EndSplineSet
EndChar

StartChar: Z
Encoding: 90 90 113
Width: 1378
Flags: HW
HStem: -0 240<528 1300> 1216 240<139 852>
LayerCount: 2
Back
SplineSet
118.784 1456.13 m 1
 1222.66 1456.13 l 1
 358.4 141.312 l 1
 1234.94 141.312 l 1
 1234.94 0 l 1
 90.1123 0 l 1
 962.56 1314.82 l 1
 118.784 1314.82 l 1
 118.784 1456.13 l 1
EndSplineSet
Fore
SplineSet
448.482421875 1456 m 1
 1615.48242188 1456 l 1
 579.013671875 240 l 1
 1351.01367188 240 l 1
 1300 0 l 1
 72 0 l 1
 1110.46875 1216 l 1
 397.46875 1216 l 1
 448.482421875 1456 l 1
EndSplineSet
EndChar

StartChar: bracketleft
Encoding: 91 91 114
Width: 743
Flags: HW
HStem: -98 237<375 623> 1292 240<375 623>
VStem: 121 254<139 1292> 121 502<-98 139 1292 1532>
LayerCount: 2
Back
SplineSet
516.096 -96.2559 m 0
 120.832 -96.2559 l 1
 120.832 1529.86 l 0
 516.096 1529.86 l 1
 516.096 1388.54 l 1
 270.336 1388.54 l 1
 270.336 43.0078 l 1
 516.096 43.0078 l 1
 516.096 -96.2559 l 0
EndSplineSet
Fore
SplineSet
602.169921875 -98 m 0xd0
 100.169921875 -98 l 1
 446.63671875 1532 l 0
 948.63671875 1532 l 1
 897.623046875 1292 l 1xd0
 649.623046875 1292 l 1
 404.544921875 139 l 1xe0
 652.544921875 139 l 1
 602.169921875 -98 l 0xd0
EndSplineSet
EndChar

StartChar: backslash
Encoding: 92 92 115
Width: 856
Flags: HW
HStem: 0 21G<585 895>
VStem: -39 934<0 1543>
LayerCount: 2
Back
SplineSet
679.936 0 m 1
 -38.9121 1544.19 l 1
 133.12 1544.19 l 0
 849.92 0 l 1
 679.936 0 l 1
EndSplineSet
Fore
SplineSet
585 0 m 1
 288.974609375 1543 l 1
 580.974609375 1543 l 0
 895 0 l 1
 585 0 l 1
EndSplineSet
EndChar

StartChar: bracketright
Encoding: 93 93 116
Width: 743
Flags: HW
HStem: -98 239<119 365> 1292 240<119 365>
VStem: 119 500<-98 141 1292 1532> 365 254<141 1292>
LayerCount: 2
Back
SplineSet
118.784 -96.2559 m 0
 118.784 45.0557 l 1
 364.544 45.0557 l 1
 364.544 1388.54 l 1
 118.784 1388.54 l 1
 118.784 1529.86 l 1
 514.048 1529.86 l 0
 514.048 -96.2559 l 1
 118.784 -96.2559 l 0
EndSplineSet
Fore
SplineSet
98.169921875 -98 m 0xe0
 148.970703125 141 l 1xe0
 394.970703125 141 l 1
 639.623046875 1292 l 1xd0
 393.623046875 1292 l 1
 444.63671875 1532 l 1
 944.63671875 1532 l 0
 598.169921875 -98 l 1
 98.169921875 -98 l 0xe0
EndSplineSet
EndChar

StartChar: asciicircum
Encoding: 94 94 117
Width: 1081
Flags: HW
HStem: 1148 344<406 926>
VStem: 122 804<1148 1151>
LayerCount: 2
Back
SplineSet
811.008 1148.93 m 1
 622.592 1148.93 l 1
 466.944 1361.92 l 1
 309.248 1150.98 l 0
 122.88 1150.98 l 1
 399.36 1492.99 l 1
 530.432 1492.99 l 1
 811.008 1148.93 l 1
EndSplineSet
Fore
SplineSet
1170.01464844 1148 m 1
 899.014648438 1148 l 1
 801.236328125 1309 l 1
 643.65234375 1151 l 0
 366.65234375 1151 l 1
 723.134765625 1492 l 1
 959.134765625 1492 l 1
 1170.01464844 1148 l 1
EndSplineSet
EndChar

StartChar: underscore
Encoding: 95 95 118
Width: 1241
Flags: HW
HStem: -281 240<78 1167>
LayerCount: 2
Back
SplineSet
77.8242 -231.424 m 1
 77.8242 -90.1123 l 1
 1167.36 -90.1123 l 1
 1167.36 -231.424 l 1
 77.8242 -231.424 l 1
EndSplineSet
Fore
SplineSet
18.271484375 -281 m 1
 69.28515625 -41 l 1
 1158.28515625 -41 l 1
 1107.27148438 -281 l 1
 18.271484375 -281 l 1
EndSplineSet
EndChar

StartChar: grave
Encoding: 96 96 119
Width: 536
Flags: HW
LayerCount: 2
Back
SplineSet
432.128 1300.48 m 1
 270.336 1300.48 l 2
 96.2559 1554.43 l 2
 253.952 1554.43 l 1
 432.128 1300.48 l 1
EndSplineSet
Fore
SplineSet
732.060546875 1532.65039062 m 2
 737.146484375 1528.06347656 744.793945312 1527.06347656 755.002929688 1529.65039062 c 0
 766.57421875 1532.58300781 779.999023438 1539.41308594 795.278320312 1550.13964844 c 128
 810.55859375 1560.87304688 823.107421875 1571.07714844 832.92578125 1580.75 c 256
 842.741210938 1590.41699219 852.782226562 1605.36621094 863.049804688 1625.59960938 c 128
 873.317382812 1645.83300781 878.09375 1662.38964844 877.380859375 1675.26953125 c 0
 877.095703125 1680.42285156 875.485351562 1684.58691406 872.548828125 1687.75976562 c 2
 642.479492188 1935.04003906 l 1
 632.271484375 1944.85351562 616.958007812 1947.17285156 596.541015625 1942 c 0
 581.567382812 1938.20703125 565.741210938 1931.09375 549.063476562 1920.66015625 c 128
 532.387695312 1910.2265625 518.49609375 1899.36035156 507.389648438 1888.05957031 c 1
 493.595703125 1875.41992188 481.618164062 1858.01660156 471.458007812 1835.84960938 c 128
 461.297851562 1813.68359375 456.716796875 1793.58300781 457.71484375 1775.54980469 c 0
 458.4296875 1762.67675781 462.421875 1752.91699219 469.69140625 1746.26953125 c 2
 732.060546875 1532.65039062 l 2
EndSplineSet
EndChar

StartChar: a
Encoding: 97 97 120
Width: 1080
Flags: HW
HStem: -29 220<376.4 636> 524 217<376.4 632> 897 205<342 602>
VStem: 90 242<244.2 467.8> 719.397 258.603<600.92 862> 727 251<0 14.2541 244.2 467.8>
LayerCount: 2
Back
SplineSet
720 -477 m 4
 720 -695 849 -785 1086 -785 c 5
 1085 -547 l 5
 994 -547 978 -529 978 -473 c 4
 978 738 l 5
 720 738 l 5
 720 581 l 21
 651 690 529 764 413 764 c 4
 149 764 34 500 34 196 c 4
 34 -108 151 -365 413 -364 c 5
 529 -364 651 -288 720 -179 c 5
 720 -477 l 4
294 201 m 4
 294 446 409 530 506 530 c 5
 603 530 729 454 728 201 c 5
 728 -54 603 -130 506 -130 c 4
 412 -130 294 -23 294 201 c 4
EndSplineSet
Fore
SplineSet
646.379882812 524 m 1xf4
 524.379882812 524 425.950195312 442 407.669921875 356 c 1
 389.390625 270 453.598632812 191 575.598632812 191 c 1
 697.598632812 191 784.390625 270 802.669921875 356 c 1
 820.950195312 442 768.379882812 524 646.379882812 524 c 1xf4
607.504882812 741 m 1
 747.504882812 741 833.01171875 654 841.432617188 576 c 1
 858.862304688 658 l 0
 902.223632812 862 762.663085938 897 662.663085938 897 c 1
 562.663085938 897 494.499023438 868 435.397460938 844 c 9
 367.256835938 1008 l 17
 436.459960938 1056 599.237304688 1102 706.237304688 1102 c 1
 968.237304688 1102 1185.45507812 976 1107.44726562 609 c 10xf8
 1042.83007812 305 l 2
 978 0 l 1
 721 0 l 1
 749.907226562 136 l 1
 708.328125 58 587.8359375 -29 447.8359375 -29 c 1
 245.8359375 -29 118.907226562 136 166.095703125 358 c 1
 213.283203125 580 409.504882812 741 607.504882812 741 c 1
EndSplineSet
EndChar

StartChar: b
Encoding: 98 98 121
Width: 1122
Flags: HW
HStem: -28 234<533.2 713.2> 866 234<533.2 717.1> 1434 20G<119 377>
VStem: 119 258<0 157 917 1454> 803 260<245.8 855.5>
LayerCount: 2
Back
SplineSet
377 0 m 9
 119 0 l 1
 119 1454 l 1
 377 1454 l 1
 377 912 l 17
 434 1016 557 1102 694 1102 c 0
 886 1102 1013.97 916.986 1014 538 c 2
 1014 0 l 1
 756 0 l 0
 756 537 l 2
 756 812 656 866.89 576 866.89 c 0
 496 866.89 377 810 377 536 c 2
 377 0 l 9
270.336 0 m 17
 118.784 0 l 1
 118.784 1454.08 l 1
 270.336 1454.08 l 1
 270.336 899.072 l 17
 331.776 995.328 405.504 1091.58 550.912 1091.58 c 0
 802.816 1091.58 923.648 823.296 923.648 540.672 c 0
 923.648 258.048 835.584 -28.6719 512 -28.6719 c 1
 348.16 -28.6719 270.336 139.264 270.336 139.264 c 0
 270.336 0 l 17
770.048 536.576 m 0
 770.048 770.048 688.128 956.416 561.152 956.416 c 1
 421.888 956.416 266.24 794.624 266.24 536.576 c 1
 266.24 245.76 409.6 106.496 522.24 106.496 c 0
 671.744 106.496 770.048 262.144 770.048 536.576 c 0
EndSplineSet
Fore
SplineSet
377 0 m 17
 119 0 l 1
 428.057617188 1454 l 1
 686.057617188 1454 l 1
 571.9140625 917 l 17
 664.083007812 1026 801.8125 1100 917.8125 1100 c 0
 1181.8125 1100 1240.69726562 836 1176.08007812 532 c 0
 1111.46289062 228 940.048828125 -28 678.048828125 -28 c 1
 562.048828125 -28 456.203125 48 410.37109375 157 c 1
 377 0 l 17
917.142578125 537 m 0
 969.21875 782 872.07421875 866 775.07421875 866 c 1
 678.07421875 866 536.919921875 790 483.142578125 537 c 1
 428.94140625 282 537.787109375 206 634.787109375 206 c 0
 728.787109375 206 869.530273438 313 917.142578125 537 c 0
EndSplineSet
EndChar

StartChar: c
Encoding: 99 99 122
Width: 1047
Flags: HW
HStem: -29 232<420.1 745.1> 870 230<417 705.712>
VStem: 86 262<274.6 790.7>
LayerCount: 2
Back
SplineSet
1362 0 m 21
 348 537 l 5
 1362 1074 l 13
1024 737 m 9
 776 737 l 17
 741 807 687 870 586 870 c 1
 456 870 348 731 348 532 c 4
 348 334 463 203 606 203 c 1
 713 203 733 262 762 315 c 9
 1024 315 l 1
 991 184 836 -29 606 -29 c 1
 285 -29 86 194 86 532 c 0
 86 871 297 1100 586 1100 c 0
 762 1100 983 975 1024 737 c 9
835.584 960.512 m 9
 735.232 860.16 l 2
 677.888 917.504 618.496 958.464 499.712 958.464 c 1
 368.64 958.464 239.616 778.24 239.616 536.576 c 0
 239.616 294.912 389.12 104.448 520.192 104.448 c 0
 647.168 104.448 694.272 157.696 741.376 217.088 c 9
 839.68 118.784 l 1
 786.432 61.4404 716.8 -28.6719 520.192 -30.7197 c 1
 262.144 -30.7197 86.0156 208.896 86.0156 536.576 c 0
 86.0156 864.256 270.336 1093.63 499.712 1093.63 c 0
 659.456 1093.63 741.376 1052.67 835.584 960.512 c 9
EndSplineSet
Fore
SplineSet
926.692382812 756 m 1
 904.659179688 817 862.923828125 870 770.923828125 870 c 0
 640.923828125 870 503.37890625 731 461.080078125 532 c 0
 418.994140625 334 506.149414062 203 649.149414062 203 c 1
 756.149414062 203 788.689453125 262 828.955078125 315 c 9
 1019.36132812 204 l 0
 926.129882812 90 771.8359375 -29 599.8359375 -29 c 1
 278.8359375 -29 127.236328125 194 199.080078125 532 c 0
 271.13671875 871 530.8125 1100 819.8125 1100 c 0
 972.8125 1100 1115.68164062 1010 1163.49902344 868 c 1
 926.692382812 756 l 1
EndSplineSet
EndChar

StartChar: d
Encoding: 100 100 123
Width: 1122
Flags: HW
HStem: -28 234<423.8 603.8> 866 234<419.9 603.8> 1434 20G<760 1018>
VStem: 74 260<245.8 855.5> 760 258<0 157 917 1454>
LayerCount: 2
Back
SplineSet
741.376 0 m 9
 741.376 139.264 l 0
 741.376 139.264 663.552 -28.6719 499.712 -28.6719 c 1
 176.128 -28.6719 88.0645 258.048 88.0645 540.672 c 0
 88.0645 823.296 208.896 1091.58 460.8 1091.58 c 0
 606.208 1091.58 684.032 987.136 741.376 899.072 c 9
 741.376 1454.08 l 1
 892.928 1454.08 l 1
 892.928 0 l 1
 741.376 0 l 9
241.664 536.576 m 0
 241.664 262.144 339.968 106.496 489.472 106.496 c 0
 602.112 106.496 745.472 245.76 745.472 536.576 c 1
 745.472 794.624 589.824 956.416 450.56 956.416 c 1
 323.584 956.416 241.664 770.048 241.664 536.576 c 0
EndSplineSet
Fore
SplineSet
760 0 m 9
 793.37109375 157 l 1
 701.203125 48 563.048828125 -28 447.048828125 -28 c 1
 185.048828125 -28 122.462890625 228 187.080078125 532 c 0
 251.697265625 836 422.8125 1100 686.8125 1100 c 0
 802.8125 1100 909.083007812 1026 954.9140625 917 c 9
 1069.05761719 1454 l 1
 1327.05761719 1454 l 1
 1018 0 l 1
 760 0 l 9
448.142578125 537 m 0
 400.530273438 313 495.787109375 206 589.787109375 206 c 0
 686.787109375 206 827.94140625 282 882.142578125 537 c 1
 935.919921875 790 827.07421875 866 730.07421875 866 c 1
 633.07421875 866 500.21875 782 448.142578125 537 c 0
EndSplineSet
EndChar

StartChar: e
Encoding: 101 101 124
Width: 1093
Flags: HW
HStem: -29 230<479.429 655.276> 469 182<363 776> 868 230<405.2 734.1>
VStem: 88 274<171.607 537>
LayerCount: 2
Back
SplineSet
247.104 604.16 m 1
 768.704 604.16 l 1
 757.76 778.24 667.712 958.464 507.904 958.464 c 0
 348.097 958.464 258.048 774.145 247.104 604.16 c 1
247.073 468.992 m 1
 262.144 286.72 348.033 106.496 507.904 106.496 c 0
 602.145 106.496 668.416 162.464 711.521 242.655 c 0
 844.48 187.616 l 0
 776.159 55.4238 662.368 -28.6719 507.904 -28.6719 c 1
 241.664 -28.6719 88.0645 221.184 88.0645 536.576 c 0
 88.0645 851.968 241.664 1093.63 507.904 1093.63 c 0
 774.144 1093.63 923.648 851.968 923.648 536.576 c 0
 923.648 514.539 924.608 491.84 924.608 468.992 c 1
 247.073 468.992 l 1
EndSplineSet
Fore
SplineSet
501.374023438 651 m 1
 914.374023438 651 l 1
 929.180664062 763 880.499023438 868 753.499023438 868 c 0
 627.499023438 868 532.54296875 760 501.374023438 651 c 1
620.723632812 201 m 0
 679.723632812 201 740.974609375 221 788.752929688 267 c 0
 995.921875 169 l 0
 882.077148438 38 704.8359375 -29 571.8359375 -29 c 1
 304.8359375 -29 132.63671875 210 202.142578125 537 c 0
 270.798828125 860 536.38671875 1098 802.38671875 1098 c 0
 1069.38671875 1098 1208.79882812 860 1140.14257812 537 c 0
 1125.68945312 469 l 1
 461.689453125 469 l 1
 418.013671875 240 544.723632812 201 620.723632812 201 c 0
EndSplineSet
EndChar

StartChar: f
Encoding: 102 102 125
Width: 782
Flags: HW
HStem: 0 21G<213 471> 844 229<74 213 471 636> 1260 229<478.9 596.3>
VStem: 213 258<0 844 1073 1233>
LayerCount: 2
Back
SplineSet
405.504 937.984 m 0
 405.504 0 l 1
 253.952 0 l 1
 253.952 937.984 l 0
 114.688 937.984 l 1
 114.688 1073.15 l 1
 253.952 1073.15 l 0
 253.952 1183.74 l 1
 253.952 1380.35 368.64 1480.7 538.624 1480.7 c 0
 622.592 1480.7 653.312 1454.08 712.704 1419.26 c 9
 616.448 1323.01 l 17
 581.632 1339.39 577.536 1345.54 548.864 1345.54 c 0
 450.56 1345.54 405.504 1288.19 405.504 1183.74 c 1
 405.504 1073.15 l 0
 602.112 1073.15 l 1
 602.112 937.984 l 1
 405.504 937.984 l 0
EndSplineSet
Fore
SplineSet
650.397460938 844 m 0
 471 0 l 1
 213 0 l 1
 392.397460938 844 l 0
 253.397460938 844 l 1
 302.073242188 1073 l 1
 441.073242188 1073 l 0
 458.078125 1153 l 1
 486.34765625 1286 681.497070312 1489 879.497070312 1489 c 0
 963.497070312 1489 1040.90722656 1458 1087.57910156 1400 c 9
 900.53125 1221 l 17
 882.483398438 1249 840.821289062 1260 820.821289062 1260 c 0
 763.821289062 1260 733.08203125 1233 720.329101562 1173 c 1
 699.073242188 1073 l 0
 864.073242188 1073 l 1
 815.397460938 844 l 1
 650.397460938 844 l 0
EndSplineSet
EndChar

StartChar: g
Encoding: 103 103 126
Width: 1137
Flags: HW
HStem: -461 224<380.7 710.9> -28 234<423.8 603.8> 866 234<419.9 603.8>
VStem: 74 260<245.8 855.5> 104 243<-229.777 -99> 760 258<-207.8 157 917 1073>
LayerCount: 2
Back
SplineSet
241.664 538.624 m 0
 241.664 264.192 339.968 108.544 489.472 108.544 c 0
 602.112 108.544 745.472 247.808 745.472 538.624 c 1
 745.472 796.672 589.824 958.464 450.56 958.464 c 1
 323.584 958.464 241.664 772.096 241.664 538.624 c 0
741.376 141.312 m 1
 731.136 119.808 665.6 -26.624 499.712 -26.624 c 1
 176.128 -26.624 88.0645 260.096 88.0645 542.72 c 0
 88.0645 825.344 208.896 1093.63 460.8 1093.63 c 0
 606.208 1093.63 679.936 1003.52 741.376 901.12 c 9
 741.376 1073.15 l 1
 892.928 1073.15 l 1
 892.928 -18.4316 l 2
 892.928 -290.816 710.656 -448.512 507.904 -448.512 c 1
 243.712 -448.512 129.024 -243.712 112.64 -108.544 c 0
 112.64 -108.544 200.09 -108.544 256 -108.544 c 17
 274.432 -227.328 380.928 -313.344 499.712 -313.344 c 0
 624.64 -313.344 741.376 -225.28 741.376 -32.7676 c 0
 741.376 141.312 l 1
EndSplineSet
Fore
SplineSet
745.12109375 -70 m 0xec
 793.37109375 157 l 1
 701.203125 48 563.048828125 -28 447.048828125 -28 c 1
 185.048828125 -28 122.462890625 228 187.080078125 532 c 0xf4
 251.697265625 836 422.8125 1100 686.8125 1100 c 0
 802.8125 1100 909.083007812 1026 954.9140625 917 c 9
 988.073242188 1073 l 1
 1246.07324219 1073 l 1
 1007.37207031 -50 l 0
 962.310546875 -262 764.01171875 -461 454.01171875 -461 c 1
 144.01171875 -461 67.923828125 -245 82.95703125 -99 c 0
 82.95703125 -99 232.444335938 -92 328.294921875 -88 c 17
 321.440429688 -172 369.624023438 -237 500.624023438 -237 c 0
 623.624023438 -237 722.58984375 -176 745.12109375 -70 c 0xec
448.142578125 537 m 0
 400.530273438 313 495.787109375 206 589.787109375 206 c 0
 686.787109375 206 827.94140625 282 882.142578125 537 c 1
 935.919921875 790 827.07421875 866 730.07421875 866 c 1
 633.07421875 866 500.21875 782 448.142578125 537 c 0
EndSplineSet
EndChar

StartChar: h
Encoding: 104 104 127
Width: 1121
Flags: HW
HStem: 0 21G<119 377 756 1014> 866.89 235.11<515.4 716.4> 1434 20G<119 377>
VStem: 119 258<0 810 912 1454> 756 258<0 894.5>
LayerCount: 2
Back
SplineSet
270.336 0 m 9
 118.784 0 l 1
 118.784 1454.08 l 1
 270.336 1454.08 l 1
 270.336 921.6 l 17
 339.968 995.328 417.792 1095.68 563.2 1095.68 c 0
 819.2 1095.68 905.216 880.64 905.216 622.592 c 0
 905.216 0 l 1
 753.664 0 l 0
 753.664 618.496 l 0
 753.664 790.528 684.032 958.464 573.44 958.464 c 1
 446.464 958.464 270.336 831.488 270.336 659.456 c 0
 270.336 0 l 9
EndSplineSet
Fore
SplineSet
377 0 m 9
 119 0 l 1
 428.057617188 1454 l 1
 686.057617188 1454 l 1
 570.8515625 912 l 17
 649.95703125 1016 792.237304688 1102 934.237304688 1102 c 0
 1077.23730469 1102 1216.56640625 953 1155.98730469 668 c 1
 1014 0 l 1
 756 0 l 0
 870.142578125 537 l 2
 928.595703125 812 868.286132812 867 760.286132812 867 c 0
 652.286132812 867 549.170898438 810 490.930664062 536 c 2
 377 0 l 9
EndSplineSet
EndChar

StartChar: i
Encoding: 105 105 128
Width: 534
Flags: HMW
LayerCount: 2
Back
SplineSet
120.832 1333.25 m 0
 120.832 1384.45 163.84 1427.46 215.04 1427.46 c 0
 266.24 1427.46 309.248 1384.45 309.248 1333.25 c 0
 309.248 1282.05 266.24 1239.04 215.04 1239.04 c 0
 163.84 1239.04 120.832 1282.05 120.832 1333.25 c 0
139.264 1073.15 m 1
 290.816 1073.15 l 1
 290.816 0 l 1
 139.264 0 l 1
 139.264 1073.15 l 1
EndSplineSet
Fore
SplineSet
404.55078125 1334 m 0
 423.04296875 1421 505.559570312 1494 585.559570312 1494 c 0
 665.559570312 1494 717.04296875 1421 698.55078125 1334 c 0
 680.057617188 1247 597.541015625 1174 517.541015625 1174 c 0
 437.541015625 1174 386.057617188 1247 404.55078125 1334 c 0
EndSplineSet
Refer: 310 305 S 1 0 0.212557 1 0 0 2
EndChar

StartChar: j
Encoding: 106 106 129
Width: 534
Flags: HW
HStem: -432 229<-24.3395 110.1> 1053 20G<139 397>
VStem: 121 294<1220.9 1447.1> 139 258<-175.2 1073>
LayerCount: 2
Back
SplineSet
120.832 1333.25 m 0
 120.832 1384.45 163.84 1427.46 215.04 1427.46 c 0
 266.24 1427.46 309.248 1384.45 309.248 1333.25 c 0
 309.248 1282.05 266.24 1239.04 215.04 1239.04 c 0
 163.84 1239.04 120.832 1282.05 120.832 1333.25 c 0
-247.808 -352.256 m 9
 -139.264 -260.096 l 1
 -114.688 -282.624 -77.8242 -294.912 -28.6719 -294.912 c 1
 102.4 -294.912 139.264 -208.896 139.264 0 c 1
 139.264 1073.15 l 1
 290.816 1073.15 l 0
 290.816 0 l 1
 290.816 -303.104 176.128 -430.08 -28.6719 -430.08 c 1
 -131.072 -430.08 -198.656 -399.36 -247.808 -352.256 c 9
EndSplineSet
Fore
SplineSet
404.55078125 1334 m 0xe0
 423.04296875 1421 505.559570312 1494 585.559570312 1494 c 0
 665.559570312 1494 717.04296875 1421 698.55078125 1334 c 0
 680.057617188 1247 597.541015625 1174 517.541015625 1174 c 0
 437.541015625 1174 386.057617188 1247 404.55078125 1334 c 0xe0
-306.78125 -333 m 9
 -101.221679688 -161 l 1
 -90.1103515625 -184 -55.1494140625 -203 -20.1494140625 -203 c 1
 46.8505859375 -203 105.840820312 -156 119.444335938 -92 c 1
 367.073242188 1073 l 1
 625.073242188 1073 l 0
 389.560546875 -35 l 1xd0
 345.986328125 -240 113.17578125 -432 -79.82421875 -432 c 1
 -181.82421875 -432 -250.423828125 -416 -306.78125 -333 c 9
EndSplineSet
EndChar

StartChar: k
Encoding: 107 107 130
Width: 999
Flags: HW
HStem: 0 21G<119 377 702 996> 1053 20G<658 973> 1434 20G<119 377>
VStem: 119 258<0 444 716 1454>
LayerCount: 2
Back
SplineSet
417.792 630.784 m 1
 929.792 0 l 1
 755.712 0 l 1
 315.392 532.48 l 1
 270.336 479.232 l 1
 270.336 0 l 1
 118.784 0 l 1
 118.784 1454.08 l 1
 270.336 1454.08 l 1
 270.336 669.696 l 17
 671.744 1073.15 l 1
 845.824 1073.15 l 1
 417.792 630.784 l 1
EndSplineSet
Fore
SplineSet
704.896484375 597 m 1
 996 0 l 1
 702 0 l 1
 490.263671875 467 l 1
 471.375 444 l 1
 377 0 l 1
 119 0 l 1
 428.057617188 1454 l 1
 686.057617188 1454 l 1
 529.190429688 716 l 17
 886.073242188 1073 l 1
 1201.07324219 1073 l 1
 704.896484375 597 l 1
EndSplineSet
EndChar

StartChar: l
Encoding: 108 108 131
Width: 561
Flags: HW
HStem: 1434 20G<139 397>
VStem: 139 258<219.9 1454>
LayerCount: 2
Back
SplineSet
290.816 215.04 m 1
 290.816 135.168 299.008 102.4 327.68 102.4 c 1
 327.68 -28.6719 l 1
 176.128 -28.6719 139.264 12.2881 139.264 210.944 c 1
 139.264 1454.08 l 1
 290.816 1454.08 l 1
 290.816 215.04 l 1
EndSplineSet
Fore
SplineSet
456.728515625 281 m 1
 446.73828125 234 459.236328125 194 531.236328125 194 c 1
 483.8359375 -29 l 1
 246.8359375 -29 147.501953125 40 197.666015625 276 c 1
 448.057617188 1454 l 1
 706.057617188 1454 l 1
 456.728515625 281 l 1
EndSplineSet
EndChar

StartChar: braceleft
Encoding: 123 123 132
Width: 747
Flags: HW
HStem: -102 213<502 645> 1348 213<502 645>
VStem: 80 565<729 1561>
LayerCount: 2
Back
SplineSet
79.8721 729.088 m 1
 350.208 815.104 241.664 1275.9 294.912 1400.83 c 1
 356.352 1525.76 487.424 1525.76 624.64 1529.86 c 1
 624.64 1394.69 l 1
 610.304 1396.74 595.968 1398.78 581.632 1398.78 c 0
 528.384 1398.78 456.704 1378.3 430.08 1339.39 c 1
 419.84 1320.96 417.792 1282.05 417.792 1236.99 c 2
 417.792 1191.94 l 2
 417.792 1071.1 393.216 770.048 292.863 729.088 c 1
 393.216 692.224 417.792 364.544 417.792 237.568 c 0
 417.792 194.56 l 0
 417.792 145.408 419.84 106.496 430.08 88.0645 c 1
 456.704 49.1523 528.384 28.6719 581.632 28.6719 c 0
 595.968 28.6719 610.304 30.7197 624.64 32.7676 c 1
 624.64 -102.4 l 1
 487.424 -98.3037 356.352 -98.3037 294.912 26.624 c 1
 241.664 151.552 350.208 647.168 79.8721 729.088 c 1
EndSplineSet
Fore
SplineSet
234.954101562 729 m 1
 500.383789062 811 520.0625 1327 605.931640625 1444 c 0
 691.375976562 1559 818.950195312 1557 976.80078125 1561 c 1
 931.526367188 1348 l 1
 821.526367188 1348 766.936523438 1317 741.217773438 1196 c 0
 708.484375 1042 641.21875 782 508.954101562 729 c 1
 619.11328125 678 575.423828125 416 542.689453125 262 c 0
 516.970703125 141 558.59375 111 668.59375 111 c 1
 623.319335938 -102 l 1
 466.95703125 -99 338.532226562 -101 301.975585938 14 c 0
 265.844726562 131 465.94921875 649 234.954101562 729 c 1
EndSplineSet
EndChar

StartChar: bar
Encoding: 124 124 133
Width: 468
Flags: HW
HStem: 0 21G<115 358> 1434 20G<115 358>
VStem: 115 243<0 1454>
LayerCount: 2
Back
SplineSet
114.688 0 m 17
 114.688 1454.08 l 1
 258.048 1454.08 l 1
 258.048 0 l 9
 114.688 0 l 17
EndSplineSet
Fore
SplineSet
115 0 m 17
 424.057617188 1454 l 1
 667.057617188 1454 l 1
 358 0 l 9
 115 0 l 17
EndSplineSet
EndChar

StartChar: braceright
Encoding: 125 125 134
Width: 747
Flags: HW
HStem: -102 213<121 264> 1348 213<121 264>
VStem: 121 565<-102 729>
LayerCount: 2
Back
SplineSet
667.648 729.088 m 1
 397.312 647.168 505.856 157.696 452.608 32.7676 c 1
 391.168 -92.1602 260.096 -92.1602 122.88 -96.2559 c 1
 122.88 38.9121 l 1
 137.216 36.8643 151.552 34.8164 165.888 34.8164 c 0
 219.136 34.8164 290.816 55.2959 317.44 94.208 c 1
 327.68 112.64 329.728 151.552 329.728 200.704 c 0
 329.728 243.712 l 0
 329.728 370.688 354.304 692.224 454.656 729.088 c 1
 354.304 770.048 329.728 1071.1 329.728 1191.94 c 2
 329.728 1236.99 l 2
 329.728 1282.05 327.68 1320.96 317.44 1339.39 c 1
 290.816 1378.3 219.136 1398.78 165.888 1398.78 c 0
 151.552 1398.78 137.216 1396.74 122.88 1394.69 c 1
 122.88 1529.86 l 1
 260.096 1525.76 391.168 1525.76 452.608 1400.83 c 1
 505.856 1275.9 397.312 815.104 667.648 729.088 c 1
EndSplineSet
Fore
SplineSet
840.954101562 729 m 1
 575.94921875 649 555.844726562 131 469.975585938 14 c 0
 384.532226562 -101 256.95703125 -99 99.3193359375 -102 c 1
 144.59375 111 l 1
 254.59375 111 308.970703125 141 334.689453125 262 c 0
 367.423828125 416 435.11328125 678 566.954101562 729 c 1
 457.21875 782 500.484375 1042 533.217773438 1196 c 0
 558.936523438 1317 517.526367188 1348 407.526367188 1348 c 1
 452.80078125 1561 l 1
 608.950195312 1557 737.375976562 1559 773.931640625 1444 c 0
 810.0625 1327 610.383789062 811 840.954101562 729 c 1
EndSplineSet
EndChar

StartChar: asciitilde
Encoding: 126 126 135
Width: 759
Flags: HW
HStem: 512 247<376.8 603> 664 247<134.6 339.6>
VStem: 53 637<606 808 808 866>
LayerCount: 2
Back
SplineSet
53.248 763.904 m 17
 98.3037 800.768 157.696 860.16 235.52 860.16 c 0
 333.824 860.16 397.312 708.608 501.76 708.608 c 1
 571.392 708.608 628.736 761.856 690.176 806.912 c 9
 690.176 661.504 l 17
 628.736 614.4 575.488 563.2 501.76 563.2 c 0
 387.072 563.2 315.392 714.752 233.472 714.752 c 0
 155.648 714.752 108.544 663.552 53.248 618.496 c 9
 53.248 763.904 l 17
EndSplineSet
Fore
SplineSet
224.74609375 808 m 17x60
 277.610351562 845 351.638671875 911 429.638671875 911 c 0x60
 527.638671875 911 569.330078125 759 673.330078125 759 c 1
 743.330078125 759 822.359375 825 874.07421875 866 c 9
 818.809570312 606 l 17
 775.857421875 578 703.829101562 512 620.829101562 512 c 0xa0
 505.829101562 512 456.137695312 664 374.137695312 664 c 0
 297.137695312 664 245.084960938 612 173.51953125 567 c 9
 224.74609375 808 l 17x60
EndSplineSet
EndChar

StartChar: .notdef
Encoding: 127 127 136
Width: 1409
Flags: HW
HStem: -29 242<565.081 865.742> 345 160.72<646.15 758.103> 975.14 119.56<637.377 790.161> 1249 240<558.02 873.202>
VStem: 100 283<454.98 1028.98> 476.601 131.319<902.876 948.608> 621.64 160.72<369.51 481.462> 635.36 131.32<556.68 694.142> 797.55 137.689<806.338 965.263> 1047 282<452.59 1028.3>
LayerCount: 2
Fore
SplineSet
898.649414062 620.869140625 m 2
 885.005859375 556.6796875 l 1
 753.685546875 556.6796875 l 1
 773.995117188 652.228515625 l 2
 777.3984375 668.236328125 783.579101562 683.099609375 792.538085938 696.819335938 c 128
 801.497070312 710.5390625 811.790039062 722.462890625 823.416992188 732.58984375 c 128
 835.04296875 742.716796875 847.561523438 752.434570312 860.974609375 761.744140625 c 128
 874.38671875 771.053710938 887.879882812 780.364257812 901.455078125 789.674804688 c 128
 915.03125 798.985351562 927.614257812 808.62109375 939.205078125 818.583984375 c 128
 950.796875 828.547851562 961.037109375 840.2265625 969.927734375 853.619140625 c 128
 978.817382812 867.012695312 984.928710938 881.548828125 988.26171875 897.228515625 c 0
 992.150390625 915.522460938 990.315429688 930.712890625 982.758789062 942.799804688 c 128
 975.201171875 954.88671875 964.983398438 963.297851562 952.107421875 968.034179688 c 128
 939.23046875 972.771484375 924.462890625 975.139648438 907.802734375 975.139648438 c 0
 881.99609375 975.139648438 858.858398438 966.565429688 838.389648438 949.415039062 c 128
 817.920898438 932.264648438 803.80078125 910.786132812 796.028320312 884.978515625 c 1
 668.979492188 905.069335938 l 1
 686.919921875 960.276367188 719.51953125 1005.68359375 766.778320312 1041.29003906 c 128
 814.036132812 1076.89648438 868.861328125 1094.70019531 931.255859375 1094.70019531 c 0
 955.428710938 1094.70019531 978.393554688 1092.08691406 1000.14941406 1086.86035156 c 128
 1021.90527344 1081.63378906 1041.68164062 1073.62988281 1059.47949219 1062.84960938 c 128
 1077.27929688 1052.0703125 1092.15917969 1039.08300781 1104.11914062 1023.88964844 c 128
 1116.08105469 1008.703125 1124.1171875 990.412109375 1128.22558594 969.014648438 c 128
 1132.33300781 947.6171875 1131.71386719 924.342773438 1126.3671875 899.189453125 c 0
 1121.16015625 874.689453125 1113.265625 852.149414062 1102.68554688 831.569335938 c 128
 1092.10449219 810.989257812 1080.37402344 793.838867188 1067.49414062 780.119140625 c 128
 1054.61425781 766.399414062 1040.99804688 753.823242188 1026.64453125 742.389648438 c 128
 1012.29101562 730.95703125 998.180664062 720.666992188 984.313476562 711.51953125 c 128
 970.4453125 702.373046875 957.591796875 693.389648438 945.754882812 684.569335938 c 128
 933.916992188 675.75 923.765625 666.03125 915.301757812 655.415039062 c 128
 906.838867188 644.797851562 901.288085938 633.283203125 898.649414062 620.869140625 c 2
712.052734375 425.359375 m 0
 716.774414062 447.573242188 728.641601562 466.51953125 747.654296875 482.19921875 c 128
 766.66796875 497.879882812 787.28125 505.719726562 809.494140625 505.719726562 c 128
 831.70703125 505.719726562 848.987304688 497.879882812 861.334960938 482.19921875 c 128
 873.681640625 466.51953125 877.494140625 447.573242188 872.772460938 425.359375 c 128
 868.051757812 403.146484375 856.184570312 384.200195312 837.170898438 368.51953125 c 128
 818.158203125 352.83984375 797.544921875 345 775.33203125 345 c 0
 753.4453125 345 736.263671875 352.921875 723.788085938 368.764648438 c 128
 711.3125 384.608398438 707.400390625 403.47265625 712.052734375 425.359375 c 0
EndSplineSet
Refer: 462 927 S 1 0 0.212557 1 0 0 2
EndChar

StartChar: exclamdown
Encoding: 161 161 137
Width: 309
Flags: HW
LayerCount: 2
Fore
SplineSet
223.532226562 1014 m 1xc8
 230.758789062 1048 306.073242188 1073 335.073242188 1073 c 1
 367.073242188 1073 429.758789062 1048 422.532226562 1014 c 1xc8
 261.81640625 65 l 1
 250.55078125 12 153.8359375 -29 102.8359375 -29 c 1
 49.8359375 -29 -29.0244140625 14 -18.609375 63 c 1xd0
 223.532226562 1014 l 1xc8
552.211914062 1323 m 0
 532.870117188 1232 443.353515625 1159 353.353515625 1159 c 0
 262.353515625 1159 204.870117188 1232 224.211914062 1323 c 0
 243.342773438 1413 332.071289062 1487 423.071289062 1487 c 0
 513.071289062 1487 571.342773438 1413 552.211914062 1323 c 0
EndSplineSet
EndChar

StartChar: cent
Encoding: 162 162 138
Width: 884
Flags: HW
VStem: 70 243<530.2 716.1> 307 230<78 285 977 1208>
LayerCount: 2
Back
SplineSet
370.688 278.528 m 1
 204.8 299.008 69.6318 434.176 69.6318 657.408 c 0
 69.6318 872.448 241.664 962.561 366.592 993.28 c 1
 366.592 1208.32 l 1
 501.76 1208.32 l 1
 501.76 993.28 l 1
 581.632 972.8 647.168 927.744 700.416 880.64 c 9
 610.304 786.432 l 2
 581.632 815.104 528.384 866.304 423.936 866.304 c 1
 313.344 866.304 212.992 778.24 212.992 653.312 c 0
 212.992 499.712 303.104 405.504 430.08 405.504 c 0
 512 405.504 581.632 438.272 638.976 512 c 9
 729.088 421.888 l 1
 688.128 356.352 604.16 305.152 505.856 274.432 c 1
 505.856 77.8242 l 1
 370.688 77.8242 l 1
 370.688 278.528 l 1
EndSplineSet
Fore
SplineSet
375.279296875 293 m 1x80
 246.955078125 315 163.3125 439 204.123046875 631 c 0x80
 245.784179688 827 408.50390625 948 514.455078125 976 c 1
 563.768554688 1208 l 1
 793.768554688 1208 l 1
 744.66796875 977 l 1x40
 796.330078125 966 873.7890625 907 909.91015625 837 c 9
 723.702148438 709 l 2
 722.702148438 709 l 0
 714.702148438 709 694.54296875 760 609.54296875 760 c 1
 533.54296875 760 460.939453125 696 446.698242188 629 c 0
 430.543945312 553 461.814453125 479 547.814453125 479 c 0
 632.814453125 479 652.041992188 513 689.630859375 544 c 9
 821.72265625 408 l 1
 752.26953125 340 670.853515625 291 603.579101562 285 c 1
 559.579101562 78 l 1
 329.579101562 78 l 1
 375.279296875 293 l 1x80
EndSplineSet
EndChar

StartChar: sterling
Encoding: 163 163 139
Width: 1267
Flags: HW
HStem: 0 231<498 1004> 549 229<74 294 575 930> 1247 228<576.3 797.3>
VStem: 311 262<778 1105.4>
LayerCount: 2
Back
SplineSet
301.056 595.968 m 1
 73.7275 595.968 l 1
 73.7275 731.136 l 1
 311.296 731.136 l 1
 311.296 1200.13 389.12 1466.37 585.729 1466.37 c 0
 729.088 1466.37 839.68 1376.26 913.408 1169.41 c 1
 770.048 1163.26 l 1
 749.568 1245.18 692.224 1333.25 585.729 1333.25 c 0
 520.192 1333.25 464.896 1093.63 464.896 933.888 c 2
 464.896 808.96 l 1
 464.896 731.136 l 1
 823.296 731.136 l 1
 823.296 595.968 l 1
 458.752 595.968 l 1
 447.914 444.25 391.381 252.543 352.256 135.168 c 1
 856.064 135.168 l 1
 888.832 137.216 923.648 139.264 972.8 206.848 c 1
 1052.67 92.1602 l 1
 1005.57 20.4805 923.648 12.2881 843.776 0 c 1
 135.168 0 l 1
 168.001 131.332 287.58 380.356 301.056 595.968 c 1
EndSplineSet
Fore
SplineSet
410.693359375 549 m 1
 190.693359375 549 l 1
 239.369140625 778 l 1
 476.369140625 778 l 1
 570.744140625 1222 718.520507812 1475 1005.52050781 1475 c 0
 1171.52050781 1475 1258.62792969 1372 1282.88964844 1138 c 1
 1048.21289062 1116 l 1
 1046.60449219 1179 1038.05761719 1247 957.057617188 1247 c 0
 868.057617188 1247 800.435546875 1070 775.353515625 952 c 2
 752.823242188 846 l 1
 738.369140625 778 l 1
 1095.36914062 778 l 1
 1046.69335938 549 l 1
 691.693359375 549 l 1
 651.375 444 613.23046875 321 547.100585938 231 c 1
 1010.10058594 231 l 1
 1053.10058594 231 1099.30371094 279 1119.46777344 308 c 1
 1233.15917969 156 l 1
 1153.43945312 35 1049 0 958 0 c 1
 135 0 l 1
 192.719726562 121 355.39453125 350 410.693359375 549 c 1
EndSplineSet
EndChar

StartChar: currency
Encoding: 164 164 140
Width: 987
Flags: HW
HStem: 305 334<53 164 819 934>
VStem: 53 334<305 422 1084 1192> 600 334<305 424 1084 1192>
LayerCount: 2
Back
SplineSet
143.36 753.664 m 4
 143.36 945.849 299.336 1101.82 491.521 1101.82 c 4
 683.704 1101.82 839.68 945.849 839.68 753.664 c 4
 839.68 561.479 683.704 405.504 491.521 405.504 c 4
 299.336 405.504 143.36 561.479 143.36 753.664 c 4
393.216 753.664 m 0
 393.216 807.928 437.256 851.968 491.521 851.968 c 0
 545.784 851.968 589.824 807.928 589.824 753.664 c 0
 589.824 699.4 545.784 655.36 491.521 655.36 c 0
 437.256 655.36 393.216 699.4 393.216 753.664 c 0
EndSplineSet
Fore
SplineSet
552.842773438 752 m 0
 540.088867188 692 582.224609375 655 633.224609375 655 c 0
 684.224609375 655 739.001953125 701 749.842773438 752 c 0
 762.595703125 812 724.098632812 852 675.098632812 852 c 0
 620.098632812 852 565.595703125 812 552.842773438 752 c 0
690.124023438 424 m 1
 656.1484375 410 596.297851562 406 580.297851562 406 c 0
 563.297851562 406 505.935546875 409 476.69921875 422 c 1
 451.830078125 305 l 1
 117.830078125 305 l 1
 188.823242188 639 l 1
 299.823242188 639 l 1
 293.987304688 668 293.490234375 708 302.416992188 750 c 0
 311.131835938 791 326.634765625 831 342.373046875 858 c 1
 235.373046875 858 l 1
 306.3671875 1192 l 1
 640.3671875 1192 l 1
 617.411132812 1084 l 1
 651.38671875 1098 711.450195312 1103 728.450195312 1103 c 0
 744.450195312 1103 809.961914062 1096 830.411132812 1084 c 1
 853.3671875 1192 l 1
 1187.3671875 1192 l 1
 1116.37304688 858 l 1
 1005.37304688 858 l 1
 1007.23339844 815 1008.13183594 791 999.416992188 750 c 0
 990.490234375 708 975.11328125 678 954.823242188 639 c 1
 1069.82324219 639 l 1
 998.830078125 305 l 1
 664.830078125 305 l 1
 690.124023438 424 l 1
EndSplineSet
EndChar

StartChar: yen
Encoding: 165 165 141
Width: 1136
Flags: HW
HStem: 0 21G<420 678> 285 229<143 420 678 938> 635 229<143 313 783 938>
VStem: 420 258<0 285 514 635>
LayerCount: 2
Back
SplineSet
460.8 681.984 m 1
 149.504 681.984 l 1
 149.504 817.152 l 1
 407.552 817.152 l 1
 63.4883 1396.74 l 1
 219.136 1396.74 l 1
 542.72 831.488 l 1
 886.784 1396.74 l 1
 1042.43 1396.74 l 1
 669.696 817.152 l 1
 917.504 817.152 l 1
 917.504 681.984 l 1
 612.352 681.984 l 1
 612.352 466.944 l 1
 917.504 466.944 l 1
 917.504 331.776 l 1
 612.352 331.776 l 1
 612.352 0 l 1
 460.8 0 l 1
 460.8 331.776 l 1
 149.504 331.776 l 1
 149.504 466.944 l 1
 460.8 466.944 l 1
 460.8 681.984 l 1
EndSplineSet
Fore
SplineSet
554.973632812 635 m 1
 277.973632812 635 l 1
 326.6484375 864 l 1
 496.6484375 864 l 1
 341.94140625 1397 l 1
 624.94140625 1397 l 1
 747.75 888 l 1
 1103.94140625 1397 l 1
 1365.94140625 1397 l 1
 966.6484375 864 l 1
 1121.6484375 864 l 1
 1072.97363281 635 l 1
 812.973632812 635 l 1
 787.25390625 514 l 1
 1047.25390625 514 l 1
 998.579101562 285 l 1
 738.579101562 285 l 1
 678 0 l 1
 420 0 l 1
 480.579101562 285 l 1
 203.579101562 285 l 1
 252.25390625 514 l 1
 529.25390625 514 l 1
 554.973632812 635 l 1
EndSplineSet
EndChar

StartChar: brokenbar
Encoding: 166 166 142
Width: 405
Flags: HW
HStem: 0 21G<80 324>
VStem: 80 244<0 666 768 1434>
LayerCount: 2
Back
SplineSet
223.232 665.6 m 17
 223.232 0 l 1
 79.8721 0 l 1
 79.8721 665.6 l 9
 223.232 665.6 l 17
79.8721 768 m 17
 79.8721 1433.6 l 1
 223.232 1433.6 l 1
 223.232 768 l 9
 79.8721 768 l 17
EndSplineSet
Fore
SplineSet
465.5625 666 m 17
 324 0 l 1
 80 0 l 1
 221.5625 666 l 9
 465.5625 666 l 17
243.243164062 768 m 17
 384.805664062 1434 l 1
 628.805664062 1434 l 1
 487.243164062 768 l 9
 243.243164062 768 l 17
EndSplineSet
EndChar

StartChar: section
Encoding: 167 167 143
Width: 694
Flags: HW
HStem: 821.4 192.6<276.718 384.776>
VStem: 33 236<665.736 854> 413 253<552 730.968>
LayerCount: 2
Back
SplineSet
176.128 958.464 m 1
 194.809 963.801 216.384 966.654 241.664 966.656 c 0
 447.896 966.656 657.408 782.336 657.408 530.432 c 0
 657.408 307.2 516.096 104.448 339.968 104.448 c 0
 221.184 104.448 122.395 153.396 40.96 290.816 c 9
 190.464 301.056 l 17
 217.088 264.192 284.672 239.616 323.584 239.616 c 2
 327.68 239.616 l 2
 425.984 239.616 491.521 327.68 512 440.32 c 0
 514.707 455.211 470.452 432.134 446.464 432.128 c 0
 243.46 432.128 32.7676 577.536 32.7676 872.448 c 0
 32.7676 1089.54 159.744 1294.34 348.16 1294.34 c 0
 483.328 1294.34 544.768 1245.18 632.832 1130.5 c 1
 479.232 1114.11 l 0
 454.656 1140.74 397.312 1159.17 364.544 1159.17 c 2
 360.448 1159.17 l 2
 253.952 1159.17 200.704 1069.06 176.128 958.464 c 1
495.616 581.632 m 0
 495.616 698.368 389.12 831.488 239.616 831.488 c 0
 216.423 831.488 201.2 826.798 184.32 817.152 c 1
 184.32 698.368 319.488 567.296 440.32 567.296 c 0
 462.657 567.296 495.616 564.406 495.616 581.632 c 0
EndSplineSet
Fore
SplineSet
492.619140625 1005 m 1
 502.89453125 1011 513.532226562 1014 524.532226562 1014 c 0
 701.532226562 1014 840.083984375 819 783.331054688 552 c 0
 728.279296875 293 533.116210938 57 352.116210938 57 c 0
 235.116210938 57 153.569335938 125 113.530273438 313 c 9
 337.669921875 356 l 17
 333.892578125 310 380.00390625 287 393.00390625 287 c 1
 397.00390625 287 l 0
 441.00390625 287 481.84375 338 504.873046875 404 c 1
 489.109375 391 472.833984375 385 456.833984375 385 c 0
 288.833984375 385 147.780273438 540 214.5234375 854 c 0
 267.875 1105 443.038085938 1341 629.038085938 1341 c 0
 762.038085938 1341 807.734375 1269 857.599609375 1099 c 1
 632.971679688 1049 l 0
 637.749023438 1095 590.36328125 1112 584.36328125 1112 c 0
 544.36328125 1112 514.16015625 1064 492.619140625 1005 c 1
538.833007812 592 m 0
 561.577148438 699 538.508789062 821 469.508789062 821 c 0
 459.508789062 821 450.083984375 819 441.170898438 810 c 1
 417.577148438 699 453.645507812 577 509.645507812 577 c 0
 511.645507812 577 514.432617188 576 517.432617188 576 c 0
 526.432617188 576 535.857421875 578 538.833007812 592 c 0
EndSplineSet
EndChar

StartChar: dieresis
Encoding: 168 168 144
Width: 933
Flags: HW
HStem: 1593 328<119.544 343.98 590.544 814.98>
VStem: 67 328<1645.54 1869.98> 538 328<1645.54 1869.98>
LayerCount: 2
Back
SplineSet
536.576 837.632 m 0
 536.576 888.832 579.584 931.84 630.784 931.84 c 0
 681.984 931.84 724.992 888.832 724.992 837.632 c 0
 724.992 786.432 681.984 743.424 630.784 743.424 c 0
 579.584 743.424 536.576 786.432 536.576 837.632 c 0
65.5361 835.584 m 0
 65.5361 886.784 108.544 929.792 159.744 929.792 c 0
 210.944 929.792 253.952 886.784 253.952 835.584 c 0
 253.952 784.384 210.944 741.376 159.744 741.376 c 0
 108.544 741.376 65.5361 784.384 65.5361 835.584 c 0
EndSplineSet
Fore
Refer: 250 729 S 1 0 0.212557 1 234 0 2
Refer: 250 729 S 1 0 0.212557 1 -237 0 2
EndChar

StartChar: copyright
Encoding: 169 169 145
Width: 1089
Flags: HW
HStem: 193 185<202.5 735.5> 496 159<402.7 515.784> 844 161<402.7 510.612> 1122 176<202.5 735.5>
VStem: -78 178<483.5 1016.5> 216 159<682.4 816.3> 839 165<483.5 1016.5>
LayerCount: 2
Back
SplineSet
-77.8242 745.472 m 4
 -77.8242 1050.71 164.397 1298.43 462.848 1298.43 c 4
 761.299 1298.43 1003.52 1050.71 1003.52 745.472 c 4
 1003.52 440.238 761.299 192.512 462.848 192.512 c 4
 164.397 192.512 -77.8242 440.238 -77.8242 745.472 c 4
654.295 579.216 m 21
 608.952 533.873 540.938 496.087 470.405 496.087 c 4
 329.339 496.087 215.982 609.443 215.982 750.51 c 4
 215.982 891.576 329.339 1004.93 470.405 1004.93 c 4
 540.938 1004.93 608.952 977.224 654.295 931.881 c 13
 540.672 815.104 l 21
 522.24 831.488 495.616 843.776 468.992 843.776 c 4
 417.792 843.776 374.784 800.768 374.784 749.568 c 4
 374.784 698.368 417.792 655.36 468.992 655.36 c 4
 495.616 655.36 526.336 665.6 544.768 681.984 c 13
 654.295 579.216 l 21
99.5322 750.183 m 4
 99.5322 545.28 264.396 378.061 469.299 378.061 c 4
 674.201 378.061 839.065 545.28 839.065 750.183 c 4
 839.065 955.085 674.201 1122.3 469.299 1122.3 c 4
 264.396 1122.3 99.5322 955.085 99.5322 750.183 c 4
EndSplineSet
Fore
SplineSet
80.3544921875 745 m 0
 145.396484375 1051 439.8984375 1298 738.8984375 1298 c 0
 1036.8984375 1298 1227.39648438 1051 1162.35449219 745 c 0
 1097.52441406 440 802.0234375 193 504.0234375 193 c 0
 205.0234375 193 15.5244140625 440 80.3544921875 745 c 0
777.0703125 579 m 17
 722.504882812 534 646.427734375 496 575.427734375 496 c 0
 434.427734375 496 345.447265625 609 375.629882812 751 c 0
 405.600585938 892 542.619140625 1005 683.619140625 1005 c 0
 754.619140625 1005 816.66796875 977 852.102539062 932 c 9
 714.233398438 815 l 17
 698.634765625 831 675.397460938 844 648.397460938 844 c 0
 597.397460938 844 545.2578125 801 534.416992188 750 c 0
 523.364257812 698 557.224609375 655 608.224609375 655 c 0
 635.224609375 655 667.5625 666 689.963867188 682 c 9
 777.0703125 579 l 17
259.416992188 750 m 0
 215.84375 545 344.346679688 378 549.346679688 378 c 0
 754.346679688 378 954.84375 545 998.416992188 750 c 0
 1041.99121094 955 912.48828125 1122 707.48828125 1122 c 0
 502.48828125 1122 302.991210938 955 259.416992188 750 c 0
EndSplineSet
EndChar

StartChar: guillemotleft
Encoding: 171 171 146
Width: 907
Flags: HW
VStem: 51 756<827 1118>
LayerCount: 2
Back
SplineSet
643.072 1118.21 m 1
 778.24 1118.21 l 1
 585.729 827.392 l 1
 778.24 536.576 l 1
 643.072 536.576 l 1
 450.56 827.392 l 1
 643.072 1118.21 l 1
241.664 1118.21 m 1
 376.832 1118.21 l 1
 184.32 827.392 l 1
 376.832 536.576 l 1
 241.664 536.576 l 1
 49.1523 827.392 l 1
 241.664 1118.21 l 1
EndSplineSet
Fore
SplineSet
829.638671875 1118 m 1
 1044.63867188 1118 l 1
 790.784179688 827 l 1
 920.930664062 536 l 1
 705.930664062 536 l 1
 574.784179688 827 l 1
 829.638671875 1118 l 1
477.638671875 1118 m 1
 696.638671875 1118 l 1
 442.784179688 827 l 1
 568.930664062 536 l 1
 353.930664062 536 l 1
 226.784179688 827 l 1
 477.638671875 1118 l 1
EndSplineSet
EndChar

StartChar: logicalnot
Encoding: 172 172 147
Width: 1120
Flags: HW
HStem: 698 244<143 774>
VStem: 774 230<350 698>
LayerCount: 2
Back
SplineSet
909.312 544.768 m 1
 774.144 544.768 l 1
 774.144 749.568 l 0
 143.36 749.568 l 1
 143.36 892.928 l 1
 909.312 892.928 l 1
 909.312 544.768 l 1
EndSplineSet
Fore
SplineSet
1078.39453125 350 m 1
 848.39453125 350 l 1
 922.364257812 698 l 0
 291.364257812 698 l 1
 343.228515625 942 l 1
 1204.22851562 942 l 1
 1078.39453125 350 l 1
EndSplineSet
EndChar

StartChar: registered
Encoding: 174 174 149
Width: 1224
Flags: HW
HStem: 421 198<422.2 804.4> 1097 133<562 669.8> 1322 198<417 778.4>
VStem: 84 199<654.9 1278.9> 422 140<712 883 982 1097> 677 135<970.1 1109.2> 938 199<678.3 1284.1>
LayerCount: 2
Back
SplineSet
200.704 749.568 m 0
 200.704 479.232 417.792 358.4 591.872 358.4 c 0
 770.048 358.4 985.088 499.712 985.088 749.568 c 0
 985.088 1019.9 745.472 1142.78 591.872 1142.78 c 0
 413.696 1142.78 200.704 1015.81 200.704 749.568 c 0
83.9678 749.568 m 0
 83.9678 1101.82 368.64 1259.52 591.872 1259.52 c 0
 868.352 1259.52 1101.82 1044.48 1101.82 749.568 c 0
 1101.82 446.464 847.872 241.664 591.872 241.664 c 0
 356.352 241.664 83.9678 413.696 83.9678 749.568 c 0
497.664 800.768 m 1
 514.048 800.768 530.432 800.768 548.864 800.768 c 0
 626.688 800.768 702.464 806.912 702.464 866.304 c 1
 702.464 927.744 608.256 931.84 526.336 931.84 c 0
 516.096 931.84 505.856 931.84 497.664 931.84 c 1
 497.664 800.768 l 1
415.744 1009.66 m 0
 497.664 1009.66 l 1
 647.168 1009.66 782.336 972.8 782.336 866.304 c 0
 782.336 765.952 692.224 739.328 595.968 724.992 c 1
 804.864 495.616 l 1
 704.512 495.616 l 1
 497.664 720.896 l 1
 497.664 495.616 l 1
 415.744 495.616 l 1
 415.744 1009.66 l 0
EndSplineSet
Fore
SplineSet
487.692382812 963 m 0
 437.31640625 726 597.572265625 619 743.572265625 619 c 0
 891.572265625 619 1096.14160156 744 1142.69238281 963 c 0
 1195.19335938 1210 1021 1322 893 1322 c 0
 743 1322 539.342773438 1206 487.692382812 963 c 0
288.692382812 963 m 0
 370.526367188 1348 703.0859375 1520 935.0859375 1520 c 0
 1220.0859375 1520 1410.34765625 1286 1341.69238281 963 c 0
 1273.03613281 640 965.486328125 421 701.486328125 421 c 0
 456.486328125 421 212.596679688 605 288.692382812 963 c 0
770.73046875 982 m 1
 783.73046875 982 796.517578125 981 811.517578125 981 c 0
 873.517578125 981 886.581054688 986 897.846679688 1039 c 1
 909.32421875 1093 883.174804688 1097 817.174804688 1097 c 0
 809.174804688 1097 801.174804688 1097 795.174804688 1097 c 1
 770.73046875 982 l 1
683.444335938 1230 m 0
 823.444335938 1230 l 1
 980.444335938 1230 1063.02929688 1181 1032.84667969 1039 c 0
 1010.74023438 935 959.33984375 919 905.813476562 893 c 1
 962.127929688 711 l 1
 811.127929688 711 l 1
 775.625 878 l 1
 749.6875 883 l 1
 713.33984375 712 l 1
 573.33984375 712 l 1
 683.444335938 1230 l 0
EndSplineSet
EndChar

StartChar: macron
Encoding: 175 175 150
Width: 960
Flags: HW
HStem: 1686 127<98 870>
LayerCount: 2
Back
SplineSet
53.248 1130.5 m 1
 657.408 1130.5 l 1
 657.408 995.328 l 1
 53.248 995.328 l 1
 53.248 1130.5 l 1
EndSplineSet
Fore
SplineSet
483.365234375 1813 m 1
 1255.36523438 1813 l 1
 1228.37011719 1686 l 1
 456.370117188 1686 l 1
 483.365234375 1813 l 1
EndSplineSet
EndChar

StartChar: degree
Encoding: 176 176 151
Width: 763
Flags: HW
HStem: 866 162<195.7 406.3> 1328 162<195.7 406.3>
VStem: -17 173<1068.8 1285.9> 445 173<1068.8 1285.9>
LayerCount: 2
Back
SplineSet
156.304 1177.7 m 4
 156.304 1093.96 219.832 1027.54 300.688 1027.54 c 4
 381.542 1027.54 445.071 1093.96 445.071 1177.7 c 4
 445.071 1261.45 381.542 1327.86 300.688 1327.86 c 4
 219.832 1327.86 156.304 1261.45 156.304 1177.7 c 4
-16.5684 1178.03 m 4
 -16.5684 1351.5 124.682 1490.27 300.626 1490.27 c 4
 476.569 1490.27 617.82 1351.5 617.82 1178.03 c 4
 617.82 1004.56 476.569 865.792 300.626 865.792 c 4
 124.682 865.792 -16.5684 1004.56 -16.5684 1178.03 c 4
EndSplineSet
Fore
SplineSet
406.391601562 1178 m 0
 388.537109375 1094 438.5078125 1028 519.5078125 1028 c 0
 600.5078125 1028 677.537109375 1094 695.391601562 1178 c 0
 713.034179688 1261 664.275390625 1328 583.275390625 1328 c 0
 502.275390625 1328 424.034179688 1261 406.391601562 1178 c 0
233.391601562 1178 m 0
 270.1640625 1351 441.708984375 1490 617.708984375 1490 c 0
 793.708984375 1490 905.1640625 1351 868.391601562 1178 c 0
 831.619140625 1005 661.07421875 866 485.07421875 866 c 0
 309.07421875 866 196.619140625 1005 233.391601562 1178 c 0
EndSplineSet
EndChar

StartChar: acute
Encoding: 180 180 153
Width: 577
Flags: HW
HStem: 1532.65 409.353
VStem: 80.3096 440.981
LayerCount: 2
Back
SplineSet
90.1123 1247.23 m 1
 260.096 1490.94 l 1
 432.128 1490.94 l 2
 264.192 1247.23 l 2
 90.1123 1247.23 l 1
EndSplineSet
Fore
SplineSet
521.088867188 1532.65039062 m 2
 514.053710938 1528.06347656 505.981445312 1527.06347656 496.87109375 1529.65039062 c 0
 486.546875 1532.58300781 476.025390625 1539.41308594 465.306640625 1550.13964844 c 128
 454.588867188 1560.87304688 446.377929688 1571.07714844 440.672851562 1580.75 c 256
 434.965820312 1590.41699219 431.280273438 1605.36621094 429.615234375 1625.59960938 c 128
 427.94921875 1645.83300781 430.209960938 1662.38964844 436.399414062 1675.26953125 c 0
 438.875 1680.42285156 442.255859375 1684.58691406 446.541015625 1687.75976562 c 2
 781.732421875 1935.04003906 l 1
 796.111328125 1944.85351562 812.411132812 1947.17285156 830.629882812 1942 c 0
 843.991210938 1938.20703125 856.791992188 1931.09375 869.034179688 1920.66015625 c 128
 881.275390625 1910.2265625 890.547851562 1899.36035156 896.849609375 1888.05957031 c 1
 905.270507812 1875.41992188 909.848632812 1858.01660156 910.5859375 1835.84960938 c 128
 911.323242188 1813.68359375 907.359375 1793.58300781 898.696289062 1775.54980469 c 0
 892.5078125 1762.67675781 884.366210938 1752.91699219 874.271484375 1746.26953125 c 2
 521.088867188 1532.65039062 l 2
EndSplineSet
EndChar

StartChar: microsign
Encoding: 181 181 154
Width: 1128
Flags: HW
HStem: -29 234<498.4 651.8>
VStem: 143 244<-397 78 264 889> 762 244<0 84 320.1 889>
LayerCount: 2
Back
SplineSet
286.72 74.0361 m 1
 286.72 -395.264 l 1
 143.36 -395.264 l 1
 143.36 872.448 l 1
 288.768 872.448 l 0
 288.768 413.696 l 0
 288.768 192.512 366.592 110.592 485.376 110.592 c 1
 645.12 110.592 716.8 290.816 716.8 413.696 c 0
 716.8 872.448 l 9
 860.16 872.448 l 1
 860.16 0 l 1
 716.8 0 l 1
 716.8 98.3037 l 17
 657.408 24.5762 575.478 -26.624 495.616 -26.624 c 0
 372.736 -26.624 331.776 28.6719 286.72 74.0361 c 1
EndSplineSet
Fore
SplineSet
403.579101562 78 m 1
 302.615234375 -397 l 1
 58.615234375 -397 l 1
 331.962890625 889 l 1
 579.962890625 889 l 0
 490.263671875 467 l 0
 447.115234375 264 559.57421875 205 629.57421875 205 c 1
 722.57421875 205 837.245117188 354 861.263671875 467 c 0
 950.962890625 889 l 9
 1194.96289062 889 l 1
 1006 0 l 1
 762 0 l 1
 779.854492188 84 l 17
 728.700195312 8 631.8359375 -29 585.8359375 -29 c 0
 513.8359375 -29 418.67578125 22 403.579101562 78 c 1
EndSplineSet
EndChar

StartChar: paragraph
Encoding: 182 182 155
Width: 1286
Flags: HW
HStem: 0 229<735 883>
VStem: 111 243<861.1 1114.6> 492 243<229 570 847 1144> 883 257<229 565 781 1229>
LayerCount: 2
Back
SplineSet
634.88 1259.52 m 1
 634.88 747.52 l 1
 669.696 747.52 815.104 739.328 851.968 739.328 c 1
 851.968 1271.81 l 1
 817.152 1271.81 671.744 1259.52 634.88 1259.52 c 1
491.521 1226.75 m 1
 385.024 1191.94 253.952 1134.59 253.952 995.328 c 1
 253.952 839.68 380.928 802.816 491.521 774.145 c 1
 491.521 1226.75 l 1
634.88 135.168 m 1
 851.968 135.168 l 1
 851.968 612.352 l 1
 815.104 612.352 671.744 622.592 634.88 622.592 c 1
 634.88 135.168 l 1
491.521 0 m 1
 491.521 643.072 l 1
 274.432 690.176 110.592 763.904 110.592 995.328 c 0
 110.592 1265.66 446.464 1396.74 806.912 1396.74 c 1
 1003.52 1396.74 l 0
 1003.52 0 l 1
 491.521 0 l 1
EndSplineSet
Fore
SplineSet
994.53125 1221 m 1
 903.982421875 795 l 1
 914.982421875 795 1038.00683594 781 1049.00683594 781 c 1
 1144.23242188 1229 l 1
 1133.23242188 1229 1005.53125 1221 994.53125 1221 c 1
735.165039062 1144 m 1
 686.9140625 1124 585.686523438 1090 568.256835938 1008 c 1
 544.23828125 895 631.499023438 868 672.03515625 847 c 1
 735.165039062 1144 l 1
783.67578125 229 m 1
 931.67578125 229 l 1
 1003.09472656 565 l 1
 992.094726562 565 867.157226562 570 856.157226562 570 c 1
 783.67578125 229 l 1
492 0 m 1
 623.360351562 618 l 1
 440.625 671 270.842773438 752 325.256835938 1008 c 0
 387.323242188 1300 846.293945312 1441 1174.29394531 1441 c 1
 1446.29394531 1441 l 0
 1140 0 l 1
 492 0 l 1
EndSplineSet
EndChar

StartChar: cedilla
Encoding: 184 184 157
Width: 528
Flags: HW
HStem: -365 439<170 307>
VStem: 188 227<-180.3 -58.5005>
LayerCount: 2
Back
SplineSet
106.496 -190.464 m 1
 137.216 -167.936 200.704 -122.88 200.704 -86.0156 c 0
 200.704 -53.248 178.176 -28.6719 145.408 18.4316 c 0
 274.432 73.7275 l 0
 317.44 32.7676 358.4 -28.6719 358.4 -98.3037 c 0
 358.4 -208.896 219.136 -270.336 149.504 -315.392 c 1
 106.496 -190.464 l 1
EndSplineSet
Fore
SplineSet
6.4111328125 -238 m 1
 55.7255859375 -213 152.290039062 -168 161.004882812 -127 c 0
 168.01953125 -94 175.034179688 -61 141.598632812 -16 c 9
 213.0390625 19 322.729492188 74 322.729492188 74 c 0
 367.313476562 25 404.584960938 -49 386.729492188 -133 c 0
 363.135742188 -244 190.194335938 -319 92.4169921875 -365 c 1
 6.4111328125 -238 l 1
EndSplineSet
EndChar

StartChar: guillemotright
Encoding: 187 187 158
Width: 983
Flags: HW
VStem: 127 756<537 827>
LayerCount: 2
Back
SplineSet
223.232 1118.21 m 1
 415.744 827.392 l 1
 223.232 536.576 l 1
 88.0645 536.576 l 1
 280.576 827.392 l 1
 88.0645 1118.21 l 1
 223.232 1118.21 l 1
624.64 1118.21 m 1
 817.152 827.392 l 1
 624.64 536.576 l 1
 489.472 536.576 l 1
 681.984 827.392 l 1
 489.472 1118.21 l 1
 624.64 1118.21 l 1
EndSplineSet
Fore
SplineSet
579.850585938 1119 m 1
 710.784179688 827 l 1
 456.142578125 537 l 1
 241.142578125 537 l 1
 494.784179688 827 l 1
 364.638671875 1118 l 1
 579.850585938 1119 l 1
931.850585938 1119 m 1
 1058.78417969 827 l 1
 808.142578125 537 l 1
 593.142578125 537 l 1
 842.784179688 827 l 1
 712.638671875 1118 l 1
 931.850585938 1119 l 1
EndSplineSet
EndChar

StartChar: questiondown
Encoding: 191 191 159
Width: 954
Flags: HW
HStem: -35 244<313.8 577.7> 1167 328<314.7 550>
VStem: -43 281<214.6 674.8> 269 328<1212.7 1448> 301 268<688.9 1063>
LayerCount: 2
Fore
SplineSet
499.102539062 932 m 1xd8
 526.947265625 1063 l 1
 794.947265625 1063 l 1
 753.499023438 868 l 0
 702.060546875 626 366.383789062 604 316.220703125 368 c 1
 291.138671875 250 386.424804688 209 480.424804688 209 c 1
 589.424804688 209 677.853515625 291 708.53515625 393 c 1
 967.8203125 352 l 1
 896.6953125 135 694.560546875 -35 432.560546875 -35 c 1
 187.560546875 -35 -21.744140625 100 34.3701171875 364 c 1
 113.229492188 735 459.354492188 745 499.102539062 932 c 1xd8
879.913085938 1331 m 0
 860.5703125 1240 771.053710938 1167 681.053710938 1167 c 0
 590.053710938 1167 532.5703125 1240 551.913085938 1331 c 0
 571.04296875 1421 659.772460938 1495 750.772460938 1495 c 0
 840.772460938 1495 899.04296875 1421 879.913085938 1331 c 0
EndSplineSet
EndChar

StartChar: AE
Encoding: 198 198 166
Width: 1589
Flags: HW
HStem: 0 250<1084 1473> 596 243<621 819 1085 1473> 1203 253<1085 1473>
VStem: 819 266<250 590 840 1203>
LayerCount: 2
Back
SplineSet
775.021 645.346 m 1
 510.447 645.346 l 0
 251.935 0 l 0
 72.5918 0 l 1
 663.998 1456.13 l 1
 1372.83 1456.13 l 1
 1372.83 1307.21 l 0
 930.878 1307.21 l 0
 930.878 788.392 l 1
 1372.83 788.392 l 1
 1372.83 641.075 l 0
 930.878 641.075 l 0
 930.878 147.318 l 0
 1372.83 147.318 l 1
 1372.83 0 l 1
 775.021 0 l 1
 775.021 645.346 l 1
772.885 1236.75 m 1
 772.885 1311.48 l 1
 570.665 788.392 l 1
 775.021 788.392 l 1
 772.885 1236.75 l 1
EndSplineSet
Fore
SplineSet
945.68359375 596 m 1
 667.68359375 596 l 0
 308 0 l 0
 10 0 l 1
 895.482421875 1456 l 1
 1782.48242188 1456 l 1
 1728.70507812 1203 l 0
 1340.70507812 1203 l 0
 1263.54785156 840 l 1
 1651.54785156 840 l 1
 1598.40820312 590 l 0
 1209.40820312 590 l 0
 1137.13867188 250 l 0
 1526.13867188 250 l 1
 1473 0 l 1
 819 0 l 1
 945.68359375 596 l 1
1092.34765625 1286 m 1
 799.334960938 839 l 1
 997.334960938 839 l 1
 1092.34765625 1286 l 1
EndSplineSet
EndChar

StartChar: Eth
Encoding: 208 208 176
Width: 1480
Flags: HW
HStem: 0 243<528 991.1> 612 239<135 260 528 774> 1211 245<527 991.1>
VStem: 260 268<243 612 851 1211> 1090 267<352.6 1100.1>
LayerCount: 2
Back
SplineSet
315.392 662.405 m 1
 134.184 662.405 l 1
 134.184 802.979 l 1
 315.392 802.979 l 1
 315.392 1456.13 l 1
 696.483 1456.13 l 1
 1062.83 1456.13 1301.22 1133.12 1301.22 726.303 c 1
 1301.22 319.488 1056.44 0 696.483 0 c 0
 470.549 0 l 1
 315.392 0 l 1
 315.392 662.405 l 1
472.679 662.405 m 1
 472.679 142.704 l 1
 696.483 142.704 l 1
 954.204 142.704 1143.93 379.126 1143.93 726.303 c 1
 1143.93 1073.48 954.204 1312.03 696.483 1312.03 c 1
 472.679 1312.03 l 1
 472.679 802.979 l 1
 773.161 802.979 l 1
 773.161 662.405 l 1
 472.679 662.405 l 1
EndSplineSet
Fore
SplineSet
390.084960938 612 m 1
 265.084960938 612 l 1
 315.885742188 851 l 1
 440.885742188 851 l 1
 569.482421875 1456 l 1
 1005.48242188 1456 l 1
 1406.48242188 1456 1597.82617188 1133 1511.52832031 727 c 1
 1425.01855469 320 1090 0 696 0 c 0
 471 0 l 1
 260 0 l 1
 390.084960938 612 l 1
658.084960938 612 m 1
 579.651367188 243 l 1
 747.651367188 243 l 1
 974.651367188 243 1183.3125 439 1244.52832031 727 c 1
 1305.53222656 1014 1180.40625 1211 953.40625 1211 c 1
 784.40625 1211 l 1
 707.885742188 851 l 1
 954.885742188 851 l 1
 904.084960938 612 l 1
 658.084960938 612 l 1
EndSplineSet
EndChar

StartChar: figuredash
Encoding: 8210 8210 186
Width: 1177
Flags: HW
HStem: 426 240<68 1112>
LayerCount: 2
Back
SplineSet
159.744 675.84 m 1
 927.744 675.84 l 1
 927.744 540.672 l 1
 159.744 540.672 l 1
 159.744 675.84 l 1
EndSplineSet
Fore
SplineSet
209.5625 666 m 5
 1253.5625 666 l 5
 1202.54882812 426 l 1
 158.548828125 426 l 1
 209.5625 666 l 5
EndSplineSet
EndChar

StartChar: endash
Encoding: 8211 8211 187
Width: 1343
Flags: HW
HStem: 426 240<119 1220>
LayerCount: 2
Back
SplineSet
159.744 675.84 m 1
 845.824 675.84 l 1
 845.824 540.672 l 1
 159.744 540.672 l 1
 159.744 675.84 l 1
EndSplineSet
Fore
SplineSet
260.5625 666 m 5
 1361.5625 666 l 5
 1310.54882812 426 l 1
 209.548828125 426 l 1
 260.5625 666 l 5
EndSplineSet
EndChar

StartChar: emdash
Encoding: 8212 8212 188
Width: 1548
Flags: HW
HStem: 426 239<66 1492>
LayerCount: 2
Back
SplineSet
139.264 675.84 m 1
 1148.93 675.84 l 1
 1148.93 540.672 l 1
 139.264 540.672 l 1
 139.264 675.84 l 1
EndSplineSet
Fore
SplineSet
207.350585938 665 m 1
 1633.35058594 665 l 1
 1582.54882812 426 l 1
 156.548828125 426 l 1
 207.350585938 665 l 1
EndSplineSet
EndChar

StartChar: OE
Encoding: 338 338 195
Width: 1661
Flags: HW
HStem: -29 242<332.5 727.224> 0 240<1091 1585> 627 239<1091 1522> 1217 239<1345.15 1585> 1249 240<339 731.427>
VStem: 100 283<586.3 924.3> 823 268<929.566 1118.27>
LayerCount: 2
Fore
SplineSet
823 0 m 9x76
 824.48828125 7 l 17
 763.598632812 -16 695.8359375 -29 618.8359375 -29 c 0
 173.8359375 -29 209.466796875 515 260.267578125 754 c 0
 310.430664062 990 496.497070312 1489 941.497070312 1489 c 0xae
 1018.49707031 1489 1080.94628906 1477 1132.26953125 1455 c 1
 1894.48242188 1456 l 1
 1843.68164062 1217 l 0
 1349.68164062 1217 l 0
 1328.85058594 1119 l 1
 1275.07421875 866 l 1
 1310.07421875 866 l 1
 1706.07421875 866 l 1
 1655.2734375 627 l 0
 1259.2734375 627 l 1
 1224.2734375 627 l 0
 1169.22070312 368 l 1
 1142.01367188 240 l 0
 1636.01367188 240 l 0
 1585 0 l 0
 823 0 l 9x76
1060.63867188 1118 m 1
 1049.21777344 1196 1004.48339844 1249 890.483398438 1249 c 0
 670.483398438 1249 571.112304688 885 543.267578125 754 c 1
 515.84765625 625 445.274414062 213 670.274414062 213 c 1
 784.274414062 213 852.815429688 272 899.307617188 359 c 1
 1060.63867188 1118 l 1
EndSplineSet
EndChar

StartChar: oe
Encoding: 339 339 196
Width: 1105
Flags: HW
HStem: -29 235<375.2 641.429 1029.43 1205.28> 469 182<953 1286> 868 230<375.2 641.209 960.47 1284.1>
VStem: 92 252<244.5 829.5> 698 254<387.806 537>
LayerCount: 2
Fore
SplineSet
1091.37402344 651 m 1
 1424.37402344 651 l 1
 1439.18066406 763 1430.49902344 868 1303.49902344 868 c 0
 1177.49902344 868 1122.54296875 760 1091.37402344 651 c 1
843.59375 111 m 1
 755.1015625 24 645.8359375 -29 518.8359375 -29 c 1
 237.8359375 -29 141.313476562 232 206.142578125 537 c 0
 270.97265625 842 477.8125 1100 758.8125 1100 c 0
 884.8125 1100 971.758789062 1048 1023.69238281 963 c 1
 1116.75878906 1048 1230.38671875 1098 1352.38671875 1098 c 0
 1619.38671875 1098 1718.79882812 860 1650.14257812 537 c 0
 1635.68945312 469 l 1
 1051.68945312 469 l 1
 1008.01367188 240 1094.72363281 201 1170.72363281 201 c 0
 1229.72363281 201 1250.97460938 221 1298.75292969 267 c 0
 1505.921875 169 l 0
 1392.07714844 38 1254.8359375 -29 1121.8359375 -29 c 1
 997.8359375 -29 902.888671875 23 843.59375 111 c 1
458.142578125 537 m 0
 410.317382812 312 453.787109375 206 569.787109375 206 c 0
 658.787109375 206 726.177734375 269 774.447265625 402 c 0
 788.737304688 441 801.302734375 486 812.142578125 537 c 1
 823.196289062 589 829.760742188 634 832.05078125 673 c 0
 839.895507812 804 799.07421875 866 710.07421875 866 c 1
 594.07421875 866 505.967773438 762 458.142578125 537 c 0
EndSplineSet
EndChar

StartChar: trademark
Encoding: 8482 8482 197
Width: 1529
Flags: HW
HStem: 1074 778<279.5 463.5 725.5 906.5 1307 1488> 1682.5 169.5<41 279.5 463.5 692>
VStem: 279.5 184<1074 1682.5> 725.5 181<1074 1431.31> 1307 181<1074 1437.54>
LayerCount: 2
Fore
SplineSet
953.786132812 1074 m 1
 1119.15429688 1852 l 1
 1342.09179688 1852 l 1
 1400.3515625 1388.25 l 1
 1659.34472656 1852 l 1
 1881.65429688 1852 l 1
 1716.28613281 1074 l 1
 1535.28613281 1074 l 1
 1612.55859375 1437.54003906 l 1
 1419.56542969 1074 l 1
 1247.98535156 1074 l 1
 1210.734375 1431.30957031 l 1
 1134.78613281 1074 l 1
 953.786132812 1074 l 1
434.654296875 1852 m 1
 1085.65429688 1852 l 1
 1049.62597656 1682.5 l 1
 821.125976562 1682.5 l 1
 691.786132812 1074 l 1
 507.786132812 1074 l 1
 637.125976562 1682.5 l 1
 398.625976562 1682.5 l 1
 434.654296875 1852 l 1
EndSplineSet
EndChar

StartChar: dcaron
Encoding: 271 271 209
Width: 1348
GlyphClass: 2
Flags: HW
HStem: -28 234<440.739 610.921> 0 21<760 1018> 866 234<431.943 613.685> 1434 20<760 1018>
VStem: 74 260<327.895 755.917> 760 258<0 157 304.943 767.852 917 1454> 1156.3 145.6<1231.76 1409.2>
LayerCount: 2
Fore
SplineSet
1596.33300781 1385.20019531 m 0
 1589.87207031 1354.79980469 1578.39648438 1323.86621094 1561.90820312 1292.40039062 c 0
 1545.41992188 1260.93359375 1527.39160156 1233.20019531 1507.82324219 1209.20019531 c 0
 1488.25488281 1185.20019531 1470.47070312 1165.20019531 1454.46972656 1149.20019531 c 0
 1438.46875 1133.20019531 1424.60546875 1120.66699219 1412.87792969 1111.59960938 c 1
 1368.38964844 1146 l 1
 1375.67675781 1156.13378906 1385.58300781 1172 1398.10742188 1193.59960938 c 0
 1410.63183594 1215.20019531 1418.14160156 1231.86621094 1420.63574219 1243.59960938 c 0
 1421.42871094 1247.33300781 1421.5859375 1250.26660156 1421.10546875 1252.40039062 c 1
 1400.41992188 1258.26660156 1384.43554688 1272.53320312 1373.15332031 1295.20019531 c 0
 1361.87109375 1317.86621094 1360.19824219 1347.86621094 1368.13378906 1385.20019531 c 0
 1374.93554688 1417.20019531 1392.3984375 1446.66699219 1420.5234375 1473.59960938 c 0
 1448.6484375 1500.53320312 1477.41015625 1514 1506.81054688 1514 c 0
 1543.67773438 1514 1569.51464844 1500.53320312 1584.32324219 1473.59960938 c 0
 1599.13183594 1446.66699219 1603.13476562 1417.20019531 1596.33300781 1385.20019531 c 0
EndSplineSet
Refer: 123 100 N 1 0 0.212557 1 0 0 2
EndChar

StartChar: Dcroat
Encoding: 272 272 210
Width: 1480
GlyphClass: 2
Flags: HW
HStem: 0 243<528 870.199> 612 239<135 260 528 774> 1211 245<527 869.549>
VStem: 260 268<243 612 851 1211> 1090 267<489.462 964.538>
LayerCount: 2
Fore
SplineSet
390.084960938 612 m 1
 265.084960938 612 l 1
 315.885742188 851 l 1
 440.885742188 851 l 1
 569.482421875 1456 l 1
 1005.48242188 1456 l 2
 1103.48242188 1456 1190.11035156 1437 1265.36621094 1399 c 128
 1340.62304688 1361 1399.47363281 1309.33300781 1441.91992188 1244 c 128
 1484.36621094 1178.66699219 1511.92871094 1101.33300781 1524.60742188 1012 c 128
 1537.28515625 922.666992188 1532.92578125 827.666992188 1511.52832031 727 c 128
 1490.13085938 626.333007812 1453.77148438 531.333007812 1402.45019531 442 c 128
 1351.12792969 352.666992188 1290.05957031 275.5 1219.24316406 210.5 c 128
 1148.42675781 145.5 1067.68261719 94.1669921875 977.009765625 56.5 c 128
 886.336914062 18.8330078125 792.666992188 0 696 0 c 2
 471 0 l 1
 260 0 l 1
 390.084960938 612 l 1
658.084960938 612 m 1
 579.651367188 243 l 1
 747.651367188 243 l 2
 862.318359375 243 966.215820312 288 1059.34667969 378 c 128
 1152.4765625 468 1214.20410156 584.333007812 1244.52832031 727 c 128
 1274.85351562 869.666992188 1262.4140625 986 1207.2109375 1076 c 128
 1152.0078125 1166 1067.40625 1211 953.40625 1211 c 2
 784.40625 1211 l 1
 707.885742188 851 l 1
 954.885742188 851 l 1
 904.084960938 612 l 1
 658.084960938 612 l 1
EndSplineSet
EndChar

StartChar: dcroat
Encoding: 273 273 211
Width: 1122
GlyphClass: 2
Flags: HW
HStem: -28 234<440.739 610.921> 0 21<760 1018> 866 234<431.943 613.685> 1140 240<576 1086> 1434 20<760 1018>
VStem: 74 260<327.895 755.917> 760 258<0 157 304.943 767.852 917 1454>
LayerCount: 2
Fore
SplineSet
869.328125 1380 m 1
 1379.328125 1380 l 1
 1328.31445312 1140 l 1
 818.314453125 1140 l 1
 869.328125 1380 l 1
EndSplineSet
Refer: 123 100 N 1 0 0.212557 1 0 0 2
EndChar

StartChar: Lcaron
Encoding: 317 317 218
Width: 1220
GlyphClass: 2
Flags: HW
HStem: 0 240<383 1149> 1436 20<115 383>
VStem: 115 268<240 1456> 577.3 145.6<1231.76 1409.2>
LayerCount: 2
Fore
SplineSet
1017.33203125 1385.20019531 m 4
 1010.87109375 1354.79980469 999.395507812 1323.86621094 982.908203125 1292.40039062 c 4
 966.419921875 1260.93359375 948.391601562 1233.20019531 928.823242188 1209.20019531 c 4
 909.254882812 1185.20019531 891.470703125 1165.20019531 875.469726562 1149.20019531 c 4
 859.46875 1133.20019531 845.60546875 1120.66699219 833.877929688 1111.59960938 c 5
 789.389648438 1146 l 5
 796.676757812 1156.13378906 806.583007812 1172 819.106445312 1193.59960938 c 4
 831.631835938 1215.20019531 839.141601562 1231.86621094 841.635742188 1243.59960938 c 4
 842.428710938 1247.33300781 842.584960938 1250.26660156 842.104492188 1252.40039062 c 5
 821.418945312 1258.26660156 805.435546875 1272.53320312 794.153320312 1295.20019531 c 4
 782.87109375 1317.86621094 781.198242188 1347.86621094 789.133789062 1385.20019531 c 4
 795.935546875 1417.20019531 813.3984375 1446.66699219 841.5234375 1473.59960938 c 4
 869.647460938 1500.53320312 898.41015625 1514 927.810546875 1514 c 4
 964.677734375 1514 990.514648438 1500.53320312 1005.32324219 1473.59960938 c 4
 1020.13085938 1446.66699219 1024.13378906 1417.20019531 1017.33203125 1385.20019531 c 4
EndSplineSet
Refer: 99 76 N 1 0 0.212557 1 0 0 2
EndChar

StartChar: lcaron
Encoding: 318 318 219
Width: 772
GlyphClass: 2
Flags: HW
HStem: 1434 20<139 397>
VStem: 139 258<206.164 1454> 577.3 145.6<1231.76 1409.2>
LayerCount: 2
Fore
SplineSet
1017.33203125 1385.20019531 m 4
 1010.87109375 1354.79980469 999.395507812 1323.86621094 982.908203125 1292.40039062 c 4
 966.419921875 1260.93359375 948.391601562 1233.20019531 928.823242188 1209.20019531 c 4
 909.254882812 1185.20019531 891.470703125 1165.20019531 875.469726562 1149.20019531 c 4
 859.46875 1133.20019531 845.60546875 1120.66699219 833.877929688 1111.59960938 c 5
 789.389648438 1146 l 5
 796.676757812 1156.13378906 806.583007812 1172 819.106445312 1193.59960938 c 4
 831.631835938 1215.20019531 839.141601562 1231.86621094 841.635742188 1243.59960938 c 4
 842.428710938 1247.33300781 842.584960938 1250.26660156 842.104492188 1252.40039062 c 5
 821.418945312 1258.26660156 805.435546875 1272.53320312 794.153320312 1295.20019531 c 4
 782.87109375 1317.86621094 781.198242188 1347.86621094 789.133789062 1385.20019531 c 4
 795.935546875 1417.20019531 813.3984375 1446.66699219 841.5234375 1473.59960938 c 4
 869.647460938 1500.53320312 898.41015625 1514 927.810546875 1514 c 4
 964.677734375 1514 990.514648438 1500.53320312 1005.32324219 1473.59960938 c 4
 1020.13085938 1446.66699219 1024.13378906 1417.20019531 1017.33203125 1385.20019531 c 4
EndSplineSet
Refer: 131 108 N 1 0 0.212557 1 0 0 2
EndChar

StartChar: Lslash
Encoding: 321 321 220
Width: 1220
GlyphClass: 2
Flags: HW
HStem: 0 240<383 1149> 1436 20<115 383>
VStem: 115 268<240 1456>
LayerCount: 2
Fore
SplineSet
85.0224609375 400 m 1
 133.91015625 630 l 1
 270.265625 730.467773438 l 1
 424.482421875 1456 l 1
 692.482421875 1456 l 1
 588.032226562 964.6015625 l 1
 893.942382812 1190 l 1
 843.204101562 956 l 1
 538.747070312 732.731445312 l 1
 434.013671875 240 l 1
 1200.01367188 240 l 1
 1149 0 l 1
 115 0 l 1
 221.2578125 499.90625 l 1
 85.0224609375 400 l 1
EndSplineSet
EndChar

StartChar: tcaron
Encoding: 357 357 238
Width: 884
GlyphClass: 2
Flags: HW
HStem: -15 217<483.875 621> 844 229<72 213 471 625>
VStem: 213 258<216.248 844 1073 1323> 706.3 145.6<1231.76 1409.2>
LayerCount: 2
Fore
SplineSet
1146.33203125 1385.20019531 m 0
 1139.87109375 1354.79980469 1128.39550781 1323.86621094 1111.90820312 1292.40039062 c 0
 1095.41992188 1260.93359375 1077.39160156 1233.20019531 1057.82324219 1209.20019531 c 0
 1038.25488281 1185.20019531 1020.47070312 1165.20019531 1004.46972656 1149.20019531 c 0
 988.46875 1133.20019531 974.60546875 1120.66699219 962.877929688 1111.59960938 c 1
 918.389648438 1146 l 1
 925.676757812 1156.13378906 935.583007812 1172 948.106445312 1193.59960938 c 0
 960.631835938 1215.20019531 968.141601562 1231.86621094 970.635742188 1243.59960938 c 0
 971.428710938 1247.33300781 971.584960938 1250.26660156 971.104492188 1252.40039062 c 1
 950.418945312 1258.26660156 934.435546875 1272.53320312 923.153320312 1295.20019531 c 0
 911.87109375 1317.86621094 910.198242188 1347.86621094 918.133789062 1385.20019531 c 0
 924.935546875 1417.20019531 942.3984375 1446.66699219 970.5234375 1473.59960938 c 0
 998.647460938 1500.53320312 1027.41015625 1514 1056.81054688 1514 c 0
 1093.67773438 1514 1119.51464844 1500.53320312 1134.32324219 1473.59960938 c 0
 1149.13085938 1446.66699219 1153.13378906 1417.20019531 1146.33203125 1385.20019531 c 0
EndSplineSet
Refer: 40 116 N 1 0 0.212557 1 0 0 2
EndChar

StartChar: caron
Encoding: 711 711 248
Width: 1347
GlyphClass: 2
Flags: HW
LayerCount: 2
Fore
SplineSet
1526.1328125 1906 m 1
 1255.1328125 1906 l 1
 1088.91113281 1745 l 1
 998.495117188 1903 l 1
 721.495117188 1903 l 1
 933.013671875 1562 l 1
 1169.01367188 1562 l 1
 1526.1328125 1906 l 1
EndSplineSet
EndChar

StartChar: breve
Encoding: 728 728 249
Width: 1214
GlyphClass: 2
Flags: HW
HStem: 1516 235.973<644.023 806.523>
LayerCount: 2
Fore
SplineSet
1168.55664062 1768.38964844 m 0
 1205.66601562 1791.11621094 1260.40820312 1848.98632812 1332.78515625 1942 c 1
 1489.89453125 1942 l 1
 1477.65429688 1853.61328125 1435.62988281 1764.92675781 1363.82226562 1675.94042969 c 0
 1326.87597656 1630.16015625 1277.84277344 1591.74316406 1216.72363281 1560.69042969 c 0
 1158.09277344 1530.89648438 1102.1796875 1516 1048.98242188 1516 c 128
 995.786132812 1516 946.205078125 1530.89648438 900.240234375 1560.69042969 c 0
 852.323242188 1591.74316406 819.623046875 1630.16015625 802.138671875 1675.94042969 c 0
 767.98828125 1765.37304688 763.748046875 1854.05957031 789.419921875 1942 c 1
 950.88671875 1942 l 1
 970.34375 1855.49316406 998.642578125 1797.86621094 1035.78222656 1769.12011719 c 0
 1049.82324219 1758.25976562 1072.40234375 1752.54296875 1103.51953125 1751.96972656 c 1
 1130.88867188 1753.12304688 1152.56738281 1758.59667969 1168.55664062 1768.38964844 c 0
EndSplineSet
EndChar

StartChar: dotaccent
Encoding: 729 729 250
Width: 876
GlyphClass: 2
Flags: HW
HStem: 1593 328<356.544 580.98>
VStem: 304 328<1645.54 1869.98>
LayerCount: 2
Fore
SplineSet
677.461914062 1757 m 4
 687.09765625 1802.33300781 711.31640625 1841 750.118164062 1873 c 132
 788.919921875 1905 830.98828125 1921 876.321289062 1921 c 132
 921.654296875 1921 956.919921875 1905 982.118164062 1873 c 132
 1007.31640625 1841 1015.09765625 1802.33300781 1005.46191406 1757 c 132
 995.826171875 1711.66699219 971.607421875 1673 932.805664062 1641 c 132
 894.00390625 1609 851.935546875 1593 806.602539062 1593 c 132
 761.26953125 1593 726.0390625 1609.16699219 700.911132812 1641.5 c 132
 675.784179688 1673.83300781 667.967773438 1712.33300781 677.461914062 1757 c 4
EndSplineSet
EndChar

StartChar: tilde
Encoding: 732 732 251
Width: 1089
GlyphClass: 2
Flags: HW
HStem: 1514 247<606.959 819.568> 1666 247<321.632 522.579>
VStem: 252 637
LayerCount: 2
Fore
SplineSet
636.727539062 1810 m 5
 641.435546875 1813.33300781 652.302734375 1821.33300781 669.329101562 1834 c 132
 686.354492188 1846.66699219 700.076171875 1856.33300781 710.493164062 1863 c 132
 720.91015625 1869.66699219 734.075195312 1877.5 749.98828125 1886.5 c 132
 765.901367188 1895.5 781.484375 1902.16699219 796.739257812 1906.5 c 132
 811.993164062 1910.83300781 826.954101562 1913 841.62109375 1913 c 4
 859.62109375 1913 877.189453125 1907.83300781 894.326171875 1897.5 c 132
 911.462890625 1887.16699219 926.9375 1874.5 940.749023438 1859.5 c 132
 961.466796875 1837 961.466796875 1837 982.18359375 1814.5 c 132
 995.995117188 1799.5 1011.80273438 1786.83300781 1029.60644531 1776.5 c 132
 1047.41015625 1766.16699219 1065.97851562 1761 1085.3125 1761 c 4
 1106.64550781 1761 1131.66894531 1768.16699219 1160.38183594 1782.5 c 132
 1189.09570312 1796.83300781 1210.01464844 1809 1223.140625 1819 c 132
 1236.265625 1829 1257.23730469 1845.33300781 1286.05566406 1868 c 5
 1230.79101562 1608 l 5
 1226.890625 1605.33300781 1214.91699219 1596.83300781 1194.87109375 1582.5 c 132
 1174.82421875 1568.16699219 1158.48632812 1557.16699219 1145.85644531 1549.5 c 132
 1133.2265625 1541.83300781 1116.06152344 1534 1094.36132812 1526 c 132
 1072.66113281 1518 1052.14355469 1514 1032.81054688 1514 c 4
 1006.81054688 1514 981.677734375 1522 957.412109375 1538 c 132
 933.146484375 1554 912.997070312 1571.33300781 896.96484375 1590 c 132
 880.932617188 1608.66699219 862.950195312 1626 843.017578125 1642 c 132
 823.084960938 1658 804.119140625 1666 786.119140625 1666 c 132
 768.119140625 1666 749.744140625 1662.66699219 730.994140625 1656 c 132
 712.243164062 1649.33300781 696.95703125 1642.5 685.13671875 1635.5 c 132
 673.315429688 1628.5 656.44140625 1617.33300781 634.515625 1602 c 132
 612.58984375 1586.66699219 596.251953125 1575.66699219 585.500976562 1569 c 5
 636.727539062 1810 l 5
EndSplineSet
EndChar

StartChar: hungarumlaut
Encoding: 733 733 252
Width: 1298
GlyphClass: 2
Flags: HW
HStem: 1484 462
LayerCount: 2
Fore
SplineSet
1192.34667969 1493 m 2
 1186.40527344 1487 1178.43359375 1484 1168.43359375 1484 c 0
 1157.10058594 1484 1144.51074219 1487.5 1130.66601562 1494.5 c 128
 1116.8203125 1501.5 1105.67675781 1508.66699219 1097.23535156 1516 c 256
 1088.79492188 1523.33300781 1080.98730469 1536 1073.8125 1554 c 128
 1066.63867188 1572 1064.46875 1587.66699219 1067.30273438 1601 c 0
 1068.43652344 1606.33300781 1070.76171875 1611 1074.27929688 1615 c 2
 1349.59667969 1927 l 1
 1361.62207031 1939.66699219 1377.63476562 1946 1397.63476562 1946 c 0
 1412.30175781 1946 1427.29492188 1942.83300781 1442.61621094 1936.5 c 128
 1457.93652344 1930.16699219 1470.34179688 1922.66699219 1479.83300781 1914 c 1
 1491.84960938 1904.66699219 1501.23144531 1890 1507.98046875 1870 c 128
 1514.72949219 1850 1516.12011719 1830.66699219 1512.15234375 1812 c 0
 1509.31835938 1798.66699219 1503.64648438 1787.66699219 1495.13769531 1779 c 2
 1192.34667969 1493 l 2
803.346679688 1493 m 2
 797.405273438 1487 789.43359375 1484 779.43359375 1484 c 0
 768.100585938 1484 755.510742188 1487.5 741.666015625 1494.5 c 128
 727.8203125 1501.5 716.676757812 1508.66699219 708.235351562 1516 c 256
 699.794921875 1523.33300781 691.987304688 1536 684.8125 1554 c 128
 677.638671875 1572 675.46875 1587.66699219 678.302734375 1601 c 0
 679.436523438 1606.33300781 681.76171875 1611 685.279296875 1615 c 2
 960.596679688 1927 l 1
 972.622070312 1939.66699219 988.634765625 1946 1008.63476562 1946 c 0
 1023.30175781 1946 1038.29492188 1942.83300781 1053.61621094 1936.5 c 128
 1068.93652344 1930.16699219 1081.34179688 1922.66699219 1090.83300781 1914 c 1
 1102.84960938 1904.66699219 1112.23144531 1890 1118.98046875 1870 c 128
 1125.72949219 1850 1127.12011719 1830.66699219 1123.15234375 1812 c 0
 1120.31835938 1798.66699219 1114.64648438 1787.66699219 1106.13769531 1779 c 2
 803.346679688 1493 l 2
EndSplineSet
EndChar

StartChar: bullet
Encoding: 8226 8226 253
Width: 824
VWidth: 2050
GlyphClass: 2
Flags: HW
LayerCount: 2
Fore
SplineSet
229.123046875 615 m 0
 251.200195312 718.866210938 310.602539062 802.233398438 407.333007812 865.099609375 c 0
 472.37109375 907.466796875 541.107421875 928.650390625 613.541015625 928.650390625 c 0
 718.774414062 928.650390625 794.109375 887.650390625 839.545898438 805.650390625 c 0
 871.369140625 749.616210938 879.728515625 686.06640625 864.623046875 615 c 0
 842.544921875 511.133789062 783.287109375 428.450195312 686.84765625 366.950195312 c 0
 620.442382812 324.583007812 551.706054688 303.400390625 480.639648438 303.400390625 c 0
 375.40625 303.400390625 299.92578125 343.716796875 254.198242188 424.349609375 c 0
 222.375 480.383789062 214.016601562 543.93359375 229.123046875 615 c 0
EndSplineSet
EndChar

StartChar: ordmasculine
Encoding: 186 186 256
Width: 763
Flags: HW
HStem: 866 162<197.942 401.965> 1328 162<199.752 401.965>
VStem: -17 173<1072.29 1283.45> 445 173<1070.53 1283.45>
LayerCount: 2
Fore
SplineSet
406.391601562 1178 m 0
 397.463867188 1136 403.918945312 1100.5 425.75390625 1071.5 c 128
 447.58984375 1042.5 478.841796875 1028 519.5078125 1028 c 128
 560.174804688 1028 597.423828125 1042.5 631.25390625 1071.5 c 128
 665.084960938 1100.5 686.463867188 1136 695.391601562 1178 c 0
 704.177734375 1219.33300781 697.854492188 1254.66699219 676.422851562 1284 c 128
 654.991210938 1313.33300781 623.94140625 1328 583.275390625 1328 c 128
 542.608398438 1328 505.157226562 1313.33300781 470.922851562 1284 c 128
 436.6875 1254.66699219 415.177734375 1219.33300781 406.391601562 1178 c 0
233.391601562 1178 m 128
 251.813476562 1264.66699219 298.471679688 1338.33300781 373.366210938 1399 c 128
 448.26171875 1459.66699219 529.708984375 1490 617.708984375 1490 c 128
 705.708984375 1490 774.094726562 1459.66699219 822.866210938 1399 c 128
 871.638671875 1338.33300781 886.813476562 1264.66699219 868.391601562 1178 c 128
 849.969726562 1091.33300781 803.478515625 1017.66699219 728.916992188 957 c 128
 654.354492188 896.333007812 573.07421875 866 485.07421875 866 c 128
 397.07421875 866 328.521484375 896.333007812 279.416992188 957 c 128
 230.311523438 1017.66699219 214.969726562 1091.33300781 233.391601562 1178 c 128
EndSplineSet
EndChar

StartChar: ring
Encoding: 730 730 257
Width: 718
Flags: HW
HStem: 1492.72 116.64<280.014 437.217> 1825.36 116.64<281.29 437.217>
VStem: 130.4 124.56<1634.98 1799.55> 463.041 124.559<1634.98 1799.55>
LayerCount: 2
Fore
SplineSet
619.99609375 1717.36035156 m 4
 613.568359375 1687.12011719 618.215820312 1661.55957031 633.9375 1640.6796875 c 132
 649.659179688 1619.79980469 672.16015625 1609.36035156 701.440429688 1609.36035156 c 132
 730.719726562 1609.36035156 757.5390625 1619.79980469 781.897460938 1640.6796875 c 132
 806.255859375 1661.55957031 821.649414062 1687.12011719 828.077148438 1717.36035156 c 4
 834.40234375 1747.12011719 829.849609375 1772.55957031 814.41796875 1793.6796875 c 132
 798.987304688 1814.79980469 776.631835938 1825.36035156 747.352539062 1825.36035156 c 132
 718.072265625 1825.36035156 691.107421875 1814.79980469 666.458007812 1793.6796875 c 132
 641.809570312 1772.55957031 626.322265625 1747.12011719 619.99609375 1717.36035156 c 4
495.436523438 1717.36035156 m 132
 508.69921875 1779.75976562 542.293945312 1832.79980469 596.217773438 1876.48046875 c 132
 650.143554688 1920.16015625 708.78515625 1942 772.14453125 1942 c 132
 835.504882812 1942 884.7421875 1920.16015625 919.858398438 1876.48046875 c 132
 954.973632812 1832.79980469 965.899414062 1779.75976562 952.635742188 1717.36035156 c 132
 939.373046875 1654.95996094 905.8984375 1601.91992188 852.213867188 1558.24023438 c 132
 798.529296875 1514.55957031 740.0078125 1492.71972656 676.647460938 1492.71972656 c 132
 613.288085938 1492.71972656 563.930664062 1514.55957031 528.57421875 1558.24023438 c 132
 493.21875 1601.91992188 482.172851562 1654.95996094 495.436523438 1717.36035156 c 132
EndSplineSet
EndChar

StartChar: ogonek
Encoding: 731 731 258
Width: 528
Flags: HW
HStem: -344 439
VStem: 56 227<-164.5 14.2032>
LayerCount: 2
Fore
SplineSet
367.875 -217 m 1
 227.880859375 -344 l 1
 214.630859375 -337.333007812 200.270507812 -328.833007812 184.80078125 -318.5 c 128
 169.330078125 -308.166992188 153.491210938 -298 137.284179688 -288 c 128
 121.076171875 -278 105.924804688 -266.166992188 91.8291015625 -252.5 c 128
 77.734375 -238.833007812 65.5078125 -225 55.150390625 -211 c 128
 44.79296875 -197 37.4208984375 -181.5 33.0341796875 -164.5 c 128
 28.6474609375 -147.5 28.3671875 -130 32.193359375 -112 c 0
 47.9228515625 -38 98.5888671875 31 184.193359375 95 c 1
 327.0625 5 l 1
 310.75390625 -9 297.7421875 -23.1669921875 288.029296875 -37.5 c 128
 278.315429688 -51.8330078125 272.073242188 -63.1669921875 269.301757812 -71.5 c 128
 266.53125 -79.8330078125 263.586914062 -91.3330078125 260.46875 -106 c 0
 258.485351562 -115.333007812 261.122070312 -125.666992188 268.379882812 -137 c 128
 275.637695312 -148.333007812 284.9765625 -158.5 296.396484375 -167.5 c 128
 307.817382812 -176.5 320.03515625 -185.666992188 333.051757812 -195 c 128
 346.067382812 -204.333007812 357.67578125 -211.666992188 367.875 -217 c 1
EndSplineSet
EndChar

StartChar: Hbar
Encoding: 294 294 270
Width: 1253
Flags: HW
HStem: 0 21<115 383 868 1137> 625 239<383 868> 1074 240<44 1209> 1436 20<115 383 868 1137>
VStem: 115 268<0 625 864 1456> 868 269<0 625 864 1456>
LayerCount: 2
Fore
SplineSet
323.299804688 1314 m 1
 1488.29980469 1314 l 1
 1437.28613281 1074 l 1
 272.286132812 1074 l 1
 323.299804688 1314 l 1
EndSplineSet
Refer: 95 72 N 1 0 0.212557 1 0 0 2
EndChar

StartChar: IJ
Encoding: 306 306 276
Width: 1707
Flags: HW
HStem: -35 254<922.943 1209.1> 0 21<143 412> 1436 20G<143 412 1316 1584>
VStem: 143 269<0 1456> 558 241<364.219 586> 1316 268<344.343 1456>
LayerCount: 2
Fore
SplineSet
682.55859375 586 m 1
 923.55859375 586 l 1
 913.497070312 538.666992188 908.740234375 494.333007812 909.288085938 453 c 0
 909.8359375 411.666992188 916.415039062 372.833007812 929.025390625 336.5 c 0
 941.635742188 300.166992188 964.041992188 271.5 996.245117188 250.5 c 0
 1028.44824219 229.5 1069.21679688 219 1118.54980469 219 c 0
 1164.54980469 219 1206.41308594 229.333007812 1244.13867188 250 c 0
 1281.86523438 270.666992188 1313.25683594 299.166992188 1338.3125 335.5 c 0
 1363.36914062 371.833007812 1384.05273438 410.333007812 1400.36328125 451 c 0
 1416.67382812 491.666992188 1430.07226562 536.666992188 1440.55859375 586 c 2
 1625.48242188 1456 l 1
 1893.48242188 1456 l 1
 1708.55859375 586 l 2
 1682.34277344 462.666992188 1640.79101562 355 1583.90234375 263 c 0
 1527.01367188 171 1453.90136719 98.3330078125 1364.56542969 45 c 0
 1275.22851562 -8.3330078125 1175.22753906 -35 1064.56054688 -35 c 0
 994.560546875 -35 933.256835938 -24.6669921875 880.649414062 -4 c 0
 828.04296875 16.6669921875 785.837890625 45.5 754.036132812 82.5 c 0
 722.233398438 119.5 698.359375 164 682.412109375 216 c 0
 666.46484375 268 658.711914062 324.833007812 659.153320312 386.5 c 0
 659.59375 448.166992188 667.395507812 514.666992188 682.55859375 586 c 1
EndSplineSet
Refer: 96 73 N 1 0 0.212557 1 0 0 2
EndChar

StartChar: hbar
Encoding: 295 295 305
Width: 1121
Flags: HW
HStem: 0 21<119 377 756 1014> 867 235<525.512 727.5> 1160 240<40 624> 1434 20<119 377>
VStem: 119 258<0 782.961 912 1454> 756 258<0 797.388>
LayerCount: 2
Fore
SplineSet
337.579101562 1400 m 1
 921.579101562 1400 l 1
 870.565429688 1160 l 1
 286.565429688 1160 l 1
 337.579101562 1400 l 1
EndSplineSet
Refer: 127 104 N 1 0 0.212557 1 0 0 2
EndChar

StartChar: dotlessi
Encoding: 305 305 310
Width: 534
Flags: HW
HStem: 0 21G<139 397> 1053 20G<139 397>
VStem: 139 258<0 1073>
LayerCount: 2
Fore
SplineSet
367.073242188 1073 m 1
 625.073242188 1073 l 1
 397 0 l 1
 139 0 l 1
 367.073242188 1073 l 1
EndSplineSet
EndChar

StartChar: lslash
Encoding: 322 322 316
Width: 561
Flags: HW
HStem: -29 21G<397.5 490> 1054 20G<485.117 507.915> 1434 20G<139 397>
VStem: 139 258<206.164 520.631 976.984 1454>
LayerCount: 2
Fore
SplineSet
85.0224609375 400 m 1
 133.91015625 630 l 1
 298.733398438 751.48828125 l 1
 448.057617188 1454 l 1
 706.057617188 1454 l 1
 604.6640625 976.984375 l 1
 736.286132812 1074 l 1
 685.547851562 840 l 1
 555.255859375 744.536132812 l 1
 456.728515625 281 l 2
 444.400390625 223 469.236328125 194 531.236328125 194 c 1
 483.8359375 -29 l 1
 360.502929688 -29 275.916015625 -6.6669921875 230.077148438 38 c 128
 184.23828125 82.6669921875 173.434570312 162 197.666015625 276 c 2
 249.663085938 520.630859375 l 1
 85.0224609375 400 l 1
EndSplineSet
EndChar

StartChar: eng
Encoding: 331 331 319
Width: 1121
Flags: HW
HStem: -432 229<510.688 731.05> 0 21G<119 377 756 759> 867 235<525.512 727.5> 1054 20G<119 377>
VStem: 119 258<0 782.961 912 1074> 756 261<-170.505 0 1.1241e-15 797.388>
LayerCount: 2
Fore
SplineSet
313.21875 -333 m 1
 518.778320312 -161 l 1
 524.369140625 -172.333007812 534.946289062 -182.166992188 550.5078125 -190.5 c 128
 566.0703125 -198.833007812 582.517578125 -203 599.850585938 -203 c 0
 633.184570312 -203 663.083007812 -192.5 689.546875 -171.5 c 128
 716.038085938 -150.3671875 732.670898438 -123.8671875 739.444335938 -92 c 2
 759 0 l 1
 756 0 l 1
 870.142578125 537 l 2
 881.62109375 591 888.70703125 637.666992188 891.400390625 677 c 128
 894.094726562 716.333007812 892.9921875 748 888.09375 772 c 128
 883.1953125 796 874.435546875 815.166992188 861.815429688 829.5 c 128
 849.1953125 843.833007812 834.952148438 853.666992188 819.0859375 859 c 128
 803.219726562 864.333007812 783.620117188 867 760.286132812 867 c 128
 736.953125 867 715.552734375 864.333007812 696.0859375 859 c 128
 676.619140625 853.666992188 656.493164062 843.666992188 635.708984375 829 c 128
 614.924804688 814.333007812 596.149414062 795 579.380859375 771 c 128
 562.61328125 747 546.513671875 715.166992188 531.08203125 675.5 c 128
 515.650390625 635.833007812 502.266601562 589.333007812 490.930664062 536 c 2
 377 0 l 1
 119 0 l 1
 347.286132812 1074 l 1
 605.286132812 1074 l 1
 570.8515625 912 l 1
 612.471679688 966.666992188 666.2734375 1012 732.258789062 1048 c 128
 798.245117188 1084 865.5703125 1102 934.237304688 1102 c 0
 970.904296875 1102 1005.38476562 1092.5 1037.6796875 1073.5 c 128
 1069.97460938 1054.5 1097.90234375 1027.5 1121.46191406 992.5 c 128
 1145.02246094 957.5 1160.28027344 911.666992188 1167.23632812 855 c 128
 1174.19140625 798.333007812 1170.44140625 736 1155.98730469 668 c 2
 1009.56054688 -35 l 2
 995.387695312 -101.67578125 963.249023438 -165.842773438 913.143554688 -227.5 c 128
 863.034179688 -289.165039062 804.178710938 -338.665039062 736.579101562 -376 c 128
 668.9765625 -413.333007812 603.508789062 -432 540.17578125 -432 c 0
 484.841796875 -432 439.758789062 -425.333007812 404.926757812 -412 c 128
 370.09375 -398.666992188 339.524414062 -372.333007812 313.21875 -333 c 1
EndSplineSet
EndChar

StartChar: tbar
Encoding: 359 359 325
Width: 706
Flags: HW
HStem: -15 217<483.875 621> 514 240<40 655> 844 229<72 213 471 625>
VStem: 40 615<514 754> 213 258<216.248 844 1073 1323>
LayerCount: 2
Fore
SplineSet
200.267578125 754 m 1
 815.267578125 754 l 1
 764.25390625 514 l 1
 149.25390625 514 l 1
 200.267578125 754 l 1
EndSplineSet
Refer: 40 116 N 1 0 0.212557 1 0 0 2
EndChar

StartChar: Eng
Encoding: 330 330 334
Width: 1344
Flags: HW
HStem: 0 229<715.688 936.05> 1248 235<657.522 932.5> 1435 20G<119 377> 1435 20G<119 377>
VStem: 119 258<0 1056.11 1293 1455> 961 261<261.495 1176.56>
LayerCount: 2
Fore
SplineSet
610.04296875 99 m 1
 815.602539062 271 l 1
 821.194335938 259.666992188 831.770507812 249.833007812 847.33203125 241.5 c 128
 862.89453125 233.166992188 879.341796875 229 896.67578125 229 c 0
 930.008789062 229 959.907226562 239.5 986.37109375 260.5 c 128
 1012.86328125 281.6328125 1029.49609375 308.1328125 1036.26953125 340 c 2
 1055.82421875 432 l 1
 1052.82421875 432 l 1
 1156.12695312 918 l 2
 1167.60546875 972.000976562 1174.69140625 1018.66699219 1177.38476562 1058 c 128
 1180.07910156 1097.33300781 1178.9765625 1129 1174.078125 1153 c 128
 1169.17871094 1177 1160.41992188 1196.16699219 1147.79980469 1210.5 c 128
 1135.1796875 1224.83300781 1120.93652344 1234.66699219 1105.0703125 1240 c 128
 1089.20410156 1245.33300781 1069.60351562 1248 1046.27050781 1248 c 0
 961.603515625 1248 885.975585938 1232.5 819.38671875 1201.5 c 0
 755.612304688 1171.81347656 686.505859375 1123.48046875 612.06640625 1056.5 c 0
 603.411132812 1048.71289062 590.02734375 1002.21289062 571.9140625 917 c 2
 377 0 l 1
 119 0 l 1
 428.26953125 1455 l 1
 686.26953125 1455 l 1
 651.8359375 1293 l 1
 798.939453125 1366.90625 896.049804688 1412.90625 943.16796875 1431 c 0
 1033.45800781 1465.66699219 1125.80957031 1483 1220.22167969 1483 c 0
 1256.88769531 1483 1291.36914062 1473.5 1323.66308594 1454.5 c 128
 1355.95800781 1435.5 1383.88574219 1408.5 1407.44628906 1373.5 c 128
 1431.00683594 1338.5 1446.26464844 1292.66699219 1453.21972656 1236 c 0
 1460.17285156 1180.82714844 1456.42285156 1118.49316406 1441.97167969 1049 c 2
 1306.38476562 397 l 2
 1292.62402344 330.81640625 1260.48535156 266.650390625 1209.96777344 204.5 c 0
 1159.86035156 142.834960938 1101.00585938 93.3349609375 1033.40332031 56 c 128
 965.80078125 18.6669921875 900.333007812 0 837 0 c 0
 781.666992188 0 736.583984375 6.6669921875 701.750976562 20 c 128
 666.918945312 33.3330078125 636.349609375 59.6669921875 610.04296875 99 c 1
EndSplineSet
EndChar

StartChar: kgreenlandic
Encoding: 312 312 335
Width: 1029
Flags: HW
HStem: 0 20G<23 291 665.966 1021> 1054 19G<23 291 671.05 1026>
VStem: 23 268<-1 414 672 1074>
LayerCount: 2
Fore
SplineSet
378.998046875 414 m 1
 290.787109375 -1 l 1
 22.787109375 -1 l 1
 251.286132812 1074 l 1
 519.286132812 1074 l 1
 433.837890625 672 l 1
 919.073242188 1073 l 1
 1254.07324219 1073 l 1
 635.693359375 549 l 1
 1021 0 l 1
 685 0 l 1
 378.998046875 414 l 1
EndSplineSet
EndChar

StartChar: twosuperior
Encoding: 178 178 336
Width: 728
Flags: HW
HStem: 885 160<282 597> 1511 160<267.028 392.041>
VStem: 406 171<1331.76 1497.25>
LayerCount: 2
Fore
SplineSet
540.53515625 1418.0703125 m 1
 394.61328125 1464.54980469 l 1
 401.986328125 1482.41992188 l 2
 423.984375 1535.74023438 462.903320312 1580.5 518.743164062 1616.70019531 c 128
 574.58203125 1652.90039062 630.0625 1671 685.181640625 1671 c 0
 707.889648438 1671 729.551757812 1668.75292969 750.169921875 1664.25976562 c 128
 770.7890625 1659.76660156 791.046875 1651.70019531 810.9453125 1640.05957031 c 128
 830.84375 1628.41992188 847.190429688 1613.41015625 859.987304688 1595.03027344 c 128
 872.786132812 1576.65625 881.25 1552.88378906 885.37890625 1523.70996094 c 128
 889.506835938 1494.53027344 887.713867188 1461.79296875 879.999023438 1425.5 c 0
 870.842773438 1382.41992188 856.641601562 1345.91015625 837.396484375 1315.96972656 c 128
 818.150390625 1286.03710938 788.83984375 1254.83300781 749.463867188 1222.36035156 c 0
 730.141601562 1206.42675781 712.604492188 1193.23339844 696.8515625 1182.78027344 c 2
 615.576171875 1129.75976562 l 2
 577.143554688 1104.86035156 550.528320312 1086.12695312 535.731445312 1073.55957031 c 128
 520.936523438 1061 510.400390625 1051.48046875 504.122070312 1045 c 1
 819.122070312 1045 l 1
 785.112304688 885 l 1
 260.612304688 885 l 1
 264.86328125 905 l 2
 271.064453125 934.172851562 277.92578125 959.866210938 285.446289062 982.080078125 c 128
 292.96875 1004.29980469 303.165039062 1027.30664062 316.03515625 1051.09960938 c 128
 328.905273438 1074.89355469 345.075195312 1097.9296875 364.544921875 1120.20996094 c 128
 384.013671875 1142.49023438 407.02734375 1164.49707031 433.583984375 1186.23046875 c 0
 449.868164062 1199.54980469 469.702148438 1214.19042969 493.086914062 1230.15039062 c 128
 516.471679688 1246.11035156 537.203125 1259.49023438 555.28125 1270.29003906 c 128
 573.361328125 1281.08984375 591.749023438 1293.07324219 610.446289062 1306.24023438 c 128
 629.142578125 1319.40625 644.833007812 1331.65625 657.517578125 1342.99023438 c 128
 670.201171875 1354.32324219 681.143554688 1367.09960938 690.342773438 1381.3203125 c 128
 699.543945312 1395.546875 705.762695312 1410.2734375 708.999023438 1425.5 c 0
 715.075195312 1454.08691406 712.71484375 1475.48339844 701.91796875 1489.69042969 c 128
 691.123046875 1503.89648438 674.208007812 1511 651.172851562 1511 c 0
 628.747070312 1511 609.598632812 1505.28027344 593.728515625 1493.83984375 c 128
 577.856445312 1482.39355469 563.365234375 1463.59667969 550.25390625 1437.45019531 c 2
 540.53515625 1418.0703125 l 1
EndSplineSet
EndChar

StartChar: onesuperior
Encoding: 185 185 337
Width: 502
Flags: HW
VStem: 216 174<885 1488>
LayerCount: 2
Fore
SplineSet
532.284179688 1488 m 5
 365.208984375 1488 l 5
 581.169921875 1653 l 5
 741.356445312 1653 l 5
 578.112304688 885 l 5
 404.112304688 885 l 5
 532.284179688 1488 l 5
EndSplineSet
EndChar

StartChar: threesuperior
Encoding: 179 179 341
Width: 667
Flags: HW
HStem: 885 161<239.817 404.021> 1224.5 146.5<224.5 380.151> 1466.23 21G<164.922 247.425> 1525.5 158.5<205.581 374.26>
VStem: 388 166<1378.16 1512.33> 423.5 174.5<1065.08 1209.01>
LayerCount: 2
Fore
SplineSet
280.831054688 1094.11035156 m 1
 457.690429688 1139.48046875 l 1
 460.760742188 1122.88964844 l 2
 465.759765625 1095.91699219 476.5703125 1076.36035156 493.193359375 1064.21972656 c 128
 509.815429688 1052.07324219 528.529296875 1046 549.333984375 1046 c 0
 578.055664062 1046 603.095703125 1054.36035156 624.456054688 1071.08007812 c 128
 645.81640625 1087.79980469 659.141601562 1108.60644531 664.432617188 1133.5 c 0
 669.64453125 1158.01953125 664.4453125 1179.31640625 648.833984375 1197.38964844 c 128
 633.223632812 1215.46289062 612.704101562 1224.5 587.275390625 1224.5 c 2
 484.775390625 1224.5 l 1
 515.915039062 1371 l 1
 606.915039062 1371 l 2
 626.083007812 1371 644.634765625 1378.88671875 662.5703125 1394.66015625 c 128
 680.506835938 1410.44042969 691.435546875 1427.55371094 695.356445312 1446 c 0
 700.9375 1472.25292969 698.072265625 1492.06640625 686.762695312 1505.44042969 c 128
 675.454101562 1518.81347656 658.78515625 1525.5 636.754882812 1525.5 c 0
 621.4921875 1525.5 607.145507812 1521.19628906 593.713867188 1512.58984375 c 128
 580.284179688 1503.99023438 569.873046875 1493.86621094 562.48046875 1482.21972656 c 2
 552.33203125 1466.23046875 l 1
 398.177734375 1509.34960938 l 1
 410.56640625 1530.15039062 l 2
 471.647460938 1632.71679688 558.107421875 1684 669.9453125 1684 c 0
 701.51953125 1684 730.276367188 1679.95996094 756.213867188 1671.87988281 c 128
 782.151367188 1663.79980469 805.100585938 1651.43359375 825.061523438 1634.78027344 c 128
 845.020507812 1618.12011719 858.788085938 1595.32714844 866.362304688 1566.40039062 c 128
 873.936523438 1537.46679688 873.755859375 1504.33300781 865.8203125 1467 c 0
 854.159179688 1412.13964844 824.630859375 1366.49316406 777.234375 1330.05957031 c 1
 784.037109375 1323.95996094 791.358398438 1316.63378906 799.197265625 1308.08007812 c 128
 807.037109375 1299.52636719 815.844726562 1286.62011719 825.622070312 1269.36035156 c 128
 835.397460938 1252.09375 841.497070312 1231.90039062 843.922851562 1208.78027344 c 128
 846.349609375 1185.66015625 844.686523438 1160.56640625 838.932617188 1133.5 c 0
 831.870117188 1100.2734375 818.216796875 1068.5 797.97265625 1038.1796875 c 128
 777.73046875 1007.86035156 753.345703125 981.38671875 724.8203125 958.759765625 c 128
 696.294921875 936.126953125 663.67578125 918.177734375 626.961914062 904.91015625 c 128
 590.245117188 891.63671875 552.962890625 885 515.112304688 885 c 0
 475.087890625 885 439.388671875 891.209960938 408.015625 903.629882812 c 128
 376.641601562 916.04296875 349.741210938 936.716796875 327.31640625 965.650390625 c 128
 304.892578125 994.58984375 290.426757812 1030.59667969 283.919921875 1073.66992188 c 2
 280.831054688 1094.11035156 l 1
EndSplineSet
EndChar

StartChar: ordfeminine
Encoding: 170 170 342
Width: 584
Flags: HW
HStem: 1059.5 160<213.762 337.437> 1074 21G<345.5 524> 1336 158.5<213.206 334.989> 1489.66 21G<115.603 175.226> 1522.5 152.5<128.936 334.186>
VStem: 30 171<1231.75 1323.63> 345.5 178.5<1074 1094.99 1237.22 1317.62>
LayerCount: 2
Fore
SplineSet
561.151367188 1336 m 128
 538.314453125 1336 518.604492188 1329.86328125 502.022460938 1317.58984375 c 128
 485.440429688 1305.31640625 475.583007812 1291.81347656 472.452148438 1277.08007812 c 128
 469.3203125 1262.34667969 473.375976562 1249.06640625 484.618164062 1237.24023438 c 128
 495.860351562 1225.41308594 513.225585938 1219.5 536.712890625 1219.5 c 0
 559.48046875 1219.5 578.22265625 1225.2265625 592.940429688 1236.6796875 c 128
 607.659179688 1248.13964844 616.665039062 1261.61621094 619.958007812 1277.11035156 c 128
 623.252929688 1292.61035156 619.984375 1306.29980469 610.15234375 1318.1796875 c 128
 600.322265625 1330.05957031 583.98828125 1336 561.151367188 1336 c 128
578.247070312 1094.99023438 m 1
 575.21875 1093.00976562 572.106445312 1091.05957031 568.911132812 1089.13964844 c 0
 535.946289062 1069.37988281 500.377929688 1059.5 462.204101562 1059.5 c 0
 404.05078125 1059.5 359.411132812 1080.59375 328.283203125 1122.78027344 c 0
 297.419921875 1164.59960938 288.541015625 1216.33984375 301.647460938 1278 c 128
 314.766601562 1339.71972656 345.533203125 1391.16699219 393.948242188 1432.33984375 c 0
 442.672851562 1473.78027344 495.579101562 1494.5 552.666015625 1494.5 c 0
 590.75390625 1494.5 622.317382812 1484.66308594 647.356445312 1464.99023438 c 2
 651.368164062 1461.71972656 l 1
 651.224609375 1464.85351562 650.919921875 1467.85351562 650.453125 1470.71972656 c 0
 648.59375 1482.17285156 645.411132812 1490.91015625 640.905273438 1496.9296875 c 128
 636.313476562 1503.06347656 630.091796875 1508.04980469 622.239257812 1511.88964844 c 0
 613.4375 1516.19628906 605.14453125 1519.00976562 597.361328125 1520.33007812 c 0
 588.840820312 1521.77636719 579.59375 1522.5 569.6171875 1522.5 c 0
 556.04296875 1522.5 542.40234375 1521.09960938 528.694335938 1518.29980469 c 0
 514.668945312 1515.43359375 504.6640625 1512.88671875 498.6796875 1510.66015625 c 2
 444.80078125 1489.66015625 l 1
 395.383789062 1608.58984375 l 1
 415.759765625 1622.51953125 l 2
 436.272460938 1636.546875 465.375 1648.85644531 503.06640625 1659.45019531 c 0
 539.938476562 1669.81640625 572.927734375 1675 602.032226562 1675 c 128
 631.151367188 1675 657.911132812 1672.2265625 682.310546875 1666.6796875 c 0
 707.375 1660.98632812 730.555664062 1651.36328125 751.853515625 1637.80957031 c 0
 773.54296875 1624.00292969 790.982421875 1606.703125 804.173828125 1585.91015625 c 0
 817.5 1564.89648438 825.909179688 1538.66015625 829.401367188 1507.20019531 c 0
 832.822265625 1476.36035156 830.462890625 1441.79296875 822.323242188 1403.5 c 2
 752.286132812 1074 l 1
 573.786132812 1074 l 1
 578.247070312 1094.99023438 l 1
EndSplineSet
EndChar

StartChar: florin
Encoding: 402 402 343
Width: 1282
Flags: HW
HStem: 862 212<816 927.678> 1072 20G<392.721 556> 1088 21G<1207.03 1216.34>
LayerCount: 2
Fore
SplineSet
927.223632812 862 m 1
 232.581054688 -336 l 1
 -43.4189453125 -336 l 1
 661.774414062 874 l 1
 508.049804688 876.810546875 l 1
 632.111328125 1092 l 1
 787.26171875 1088 l 1
 859.357421875 1219.11035156 l 2
 875.896484375 1249.19042969 903.4375 1280.04296875 941.982421875 1311.66992188 c 0
 979.004882812 1342.04296875 1019.875 1368.01660156 1064.59375 1389.58984375 c 0
 1112.18359375 1412.54980469 1159.81152344 1426.25 1207.47558594 1430.69042969 c 0
 1289.08789062 1438.09667969 1342.43945312 1437.20019531 1367.53125 1428 c 0
 1446.625 1397.13964844 1491.25585938 1362.47363281 1501.42480469 1324 c 1
 1447.26171875 1088 l 1
 1444.16015625 1129.64648438 1422.47949219 1165.64648438 1382.21777344 1196 c 0
 1359.4921875 1212.78710938 1312.70996094 1224.78710938 1241.87011719 1232 c 0
 1222.97460938 1233.91992188 1191.19824219 1224.92675781 1146.54101562 1205.01953125 c 0
 1130.875 1197.78027344 1113.3203125 1179.33007812 1093.87890625 1149.66992188 c 2
 1044.28613281 1074 l 1
 1234.28613281 1074 l 1
 1110.22363281 858.810546875 l 1
 927.223632812 862 l 1
EndSplineSet
EndChar

StartChar: fraction
Encoding: 8260 8260 344
Width: 320
Flags: HW
LayerCount: 2
Fore
SplineSet
-289.608398438 -144 m 1
 -499.608398438 -144 l 1
 819.240234375 1596 l 1
 1020.24023438 1596 l 1
 -289.608398438 -144 l 1
EndSplineSet
EndChar

StartChar: perthousand
Encoding: 8240 8240 345
Width: 2134
VWidth: 2050
Flags: HW
LayerCount: 2
Fore
SplineSet
1019.81933594 371.049804688 m 0
 1008.49023438 317.75 1023.38476562 284.950195312 1064.50390625 272.650390625 c 0
 1071.046875 271.283203125 1078.41796875 270.599609375 1086.6171875 270.599609375 c 0
 1134.45117188 270.599609375 1167.69726562 295.200195312 1186.35449219 344.400390625 c 0
 1189.46386719 352.599609375 1192.03613281 361.483398438 1194.06933594 371.049804688 c 0
 1204.23632812 418.883789062 1193.58691406 452.366210938 1162.12109375 471.5 c 0
 1152.34960938 476.966796875 1141.31347656 479.700195312 1129.01367188 479.700195312 c 0
 1093.48046875 479.700195312 1063.15625 459.200195312 1038.04199219 418.200195312 c 0
 1029.37890625 403.166992188 1023.30566406 387.450195312 1019.81933594 371.049804688 c 0
804.569335938 371.049804688 m 0
 826.9375 476.283203125 885.119140625 560.333007812 979.115234375 623.200195312 c 0
 1042.49609375 664.200195312 1107.67089844 684.700195312 1174.63671875 684.700195312 c 0
 1274.40332031 684.700195312 1346.32226562 643.700195312 1390.39257812 561.700195312 c 0
 1419.48242188 505.666992188 1426.47460938 442.116210938 1411.36914062 371.049804688 c 0
 1389.29199219 267.18359375 1331.54589844 185.18359375 1238.12988281 125.049804688 c 0
 1174.74902344 84.0498046875 1109.57421875 63.5498046875 1042.60742188 63.5498046875 c 0
 940.107421875 63.5498046875 867.505859375 104.549804688 824.802734375 186.549804688 c 0
 796.498046875 239.849609375 789.75390625 301.349609375 804.569335938 371.049804688 c 0
538.313476562 1076.25 m 0
 526.984375 1022.95019531 541.879882812 990.150390625 582.999023438 977.849609375 c 0
 589.541015625 976.483398438 596.913085938 975.799804688 605.11328125 975.799804688 c 0
 652.946289062 975.799804688 686.19140625 1000.40039062 704.849609375 1049.59960938 c 0
 707.958984375 1057.79980469 710.530273438 1066.68359375 712.563476562 1076.25 c 0
 722.731445312 1124.08300781 712.081054688 1157.56640625 680.615234375 1176.70019531 c 0
 670.84375 1182.16699219 659.80859375 1184.90039062 647.508789062 1184.90039062 c 0
 611.974609375 1184.90039062 581.651367188 1164.40039062 556.536132812 1123.40039062 c 0
 547.874023438 1108.36621094 541.799804688 1092.65039062 538.313476562 1076.25 c 0
323.063476562 1076.25 m 0
 345.431640625 1181.48339844 403.61328125 1265.53320312 497.610351562 1328.40039062 c 0
 559.625 1369.40039062 624.798828125 1389.90039062 693.1328125 1389.90039062 c 0
 794.265625 1389.90039062 866.868164062 1348.90039062 910.938476562 1266.90039062 c 0
 940.028320312 1210.86621094 947.020507812 1147.31640625 931.9140625 1076.25 c 0
 909.836914062 972.383789062 851.407226562 890.383789062 756.625 830.25 c 1
 694.610351562 789.25 629.436523438 768.75 561.103515625 768.75 c 0
 458.603515625 768.75 386.001953125 809.75 343.296875 891.75 c 0
 315.283203125 946.416992188 308.5390625 1007.91699219 323.063476562 1076.25 c 0
511.123046875 118.900390625 m 1
 300.409179688 120.950195312 l 1
 1232.07421875 1340.70019531 l 1
 1432.5390625 1338.65039062 l 1
 511.123046875 118.900390625 l 1
1716.81933594 371.049804688 m 0
 1705.49023438 317.75 1720.38476562 284.950195312 1761.50390625 272.650390625 c 0
 1768.046875 271.283203125 1775.41796875 270.599609375 1783.6171875 270.599609375 c 0
 1831.45117188 270.599609375 1864.69726562 295.200195312 1883.35449219 344.400390625 c 0
 1886.46386719 352.599609375 1889.03613281 361.483398438 1891.06933594 371.049804688 c 0
 1901.23632812 418.883789062 1890.58691406 452.366210938 1859.12109375 471.5 c 0
 1849.34960938 476.966796875 1838.31347656 479.700195312 1826.01367188 479.700195312 c 0
 1790.48046875 479.700195312 1760.15625 459.200195312 1735.04199219 418.200195312 c 0
 1726.37890625 403.166992188 1720.30566406 387.450195312 1716.81933594 371.049804688 c 0
1501.56933594 371.049804688 m 0
 1523.9375 476.283203125 1582.11914062 560.333007812 1676.11523438 623.200195312 c 0
 1739.49609375 664.200195312 1804.67089844 684.700195312 1871.63671875 684.700195312 c 0
 1971.40332031 684.700195312 2043.32226562 643.700195312 2087.39257812 561.700195312 c 0
 2116.48242188 505.666992188 2123.47460938 442.116210938 2108.36914062 371.049804688 c 0
 2086.29199219 267.18359375 2028.54589844 185.18359375 1935.12988281 125.049804688 c 0
 1871.74902344 84.0498046875 1806.57421875 63.5498046875 1739.60742188 63.5498046875 c 0
 1637.10742188 63.5498046875 1564.50585938 104.549804688 1521.80273438 186.549804688 c 0
 1493.49804688 239.849609375 1486.75390625 301.349609375 1501.56933594 371.049804688 c 0
EndSplineSet
EndChar

StartChar: guilsinglleft
Encoding: 8249 8249 348
Width: 559
VWidth: 2050
Flags: HW
LayerCount: 2
Fore
SplineSet
432.8828125 908.150390625 m 1
 651.797851562 906.099609375 l 1
 397.22265625 615 l 1
 523.946289062 323.900390625 l 1
 308.696289062 323.900390625 l 1
 181.97265625 615 l 1
 432.8828125 908.150390625 l 1
EndSplineSet
EndChar

StartChar: guilsinglright
Encoding: 8250 8250 349
Width: 635
VWidth: 2050
Flags: HW
LayerCount: 2
Fore
SplineSet
665.772460938 615 m 1
 411.196289062 323.900390625 l 1
 195.946289062 323.900390625 l 1
 450.522460938 615 l 1
 319.697265625 906.099609375 l 1
 535.3828125 908.150390625 l 1
 665.772460938 615 l 1
EndSplineSet
EndChar

